<?xml version="1.0" encoding="UTF-8" standalone="no"?>
<svg width="598px" height="759px" viewBox="0 0 598 759" version="1.1" xmlns="http://www.w3.org/2000/svg" xmlns:xlink="http://www.w3.org/1999/xlink">
    <!-- Generator: Sketch 45.2 (43514) - http://www.bohemiancoding.com/sketch -->
    <title>Flowchart</title>
    <desc>Created with Sketch.</desc>
    <defs>
        <linearGradient x1="50%" y1="0%" x2="50%" y2="100%" id="linearGradient-1">
            <stop stop-color="#573DFF" stop-opacity="0.4" offset="0%"></stop>
            <stop stop-color="#5B42FF" offset="100%"></stop>
        </linearGradient>
        <linearGradient x1="50%" y1="0%" x2="50%" y2="100%" id="linearGradient-2">
            <stop stop-color="#333DFF" stop-opacity="0.6" offset="0%"></stop>
            <stop stop-color="#333DFF" offset="100%"></stop>
        </linearGradient>
        <linearGradient x1="50%" y1="0%" x2="50%" y2="100%" id="linearGradient-3">
            <stop stop-color="#FF8269" stop-opacity="0.4" offset="0%"></stop>
            <stop stop-color="#FF6C4F" offset="100%"></stop>
        </linearGradient>
        <linearGradient x1="50%" y1="0%" x2="50%" y2="100%" id="linearGradient-4">
            <stop stop-color="#D94CC6" stop-opacity="0.5" offset="0%"></stop>
            <stop stop-color="#D93FC4" offset="100%"></stop>
        </linearGradient>
        <linearGradient x1="50%" y1="0%" x2="50%" y2="100%" id="linearGradient-5">
            <stop stop-color="#16E0B5" stop-opacity="0.6" offset="0%"></stop>
            <stop stop-color="#0BE0B2" offset="100%"></stop>
        </linearGradient>
        <linearGradient x1="0%" y1="100%" x2="100%" y2="0%" id="linearGradient-6">
            <stop stop-color="#FF5781" offset="0%"></stop>
            <stop stop-color="#FFAAA6" stop-opacity="0.3" offset="100%"></stop>
        </linearGradient>
    </defs>
    <g id="Page-1" stroke="none" stroke-width="1" fill="none" fill-rule="evenodd">
        <g id="Flowchart">
            <g id="Lines" transform="translate(109.322383, 130.208558)" stroke="#E9ECF4" stroke-width="4">
                <path d="M1.13686838e-13,0.853221522 L145.716191,0.853221522 C152.899056,0.853221522 158.721919,6.67341367 158.721919,13.8616983 L158.721919,111.308194 C158.721919,118.492578 152.910909,124.316671 145.72899,124.316671 L1.98845072,124.316671" id="Path-22" transform="translate(79.360960, 62.584946) scale(-1, 1) translate(-79.360960, -62.584946) "></path>
                <path d="M260.065492,192.169505 L293.273806,192.169505 C300.449328,192.169505 306.266238,197.983285 306.266238,205.161893 L306.266238,318.610964 C306.266238,325.786462 300.441848,331.603352 293.269125,331.603352 L260.64429,331.603352" id="Path-22-Copy-2" transform="translate(283.165865, 261.886429) scale(-1, 1) translate(-283.165865, -261.886429) "></path>
                <path d="M321.019155,124.316671 L73.186503,124.316671 C66.0058502,124.316671 60.184781,130.134713 60.184781,137.320929 L60.184781,187.820845" id="Path-23" transform="translate(190.601968, 156.068758) scale(-1, 1) translate(-190.601968, -156.068758) "></path>
                <path d="M46.2007464,333.094623 L4.88418784,333.094623 C2.18672538,333.094623 0,329.525461 0,325.109943 L5.33782191e-15,201.645456 C5.33782191e-15,197.235639 2.18507154,193.660777 4.88234766,193.660777 L45.6219486,193.660777" id="Path-22-Copy"></path>
                <path d="M191.533254,124.316671 L141.908536,124.316671 C134.732397,124.316671 128.914986,130.139361 128.914986,137.319072 L128.914986,193.660777" id="Path-24" transform="translate(160.224120, 158.988724) scale(-1, 1) translate(-160.224120, -158.988724) "></path>
                <path d="M192.254719,193.660777 L135.94794,193.660777 C128.771364,193.660777 122.953599,199.480969 122.953599,206.669253 L122.953599,317.124226" id="Path-24-Copy-2"></path>
                <path d="M105.069439,333.094623 L71.8611253,333.094623 C64.6856031,333.094623 58.868693,338.908831 58.868693,346.088855 L58.868693,382.306569" id="Path-24-Copy-2"></path>
                <path d="M58.868693,333.094623 L25.6603789,333.094623 C18.4848567,333.094623 12.6679466,338.908831 12.6679466,346.088855 L12.6679466,382.306569" id="Path-24-Copy-2" transform="translate(35.768320, 357.700596) scale(-1, 1) translate(-35.768320, -357.700596) "></path>
                <path d="M324.150398,331.603352 L308.462758,331.603352 C301.28221,331.603352 295.461225,337.427167 295.461225,344.608774 L295.461225,412.13199" id="Path-24-Copy-3" transform="translate(309.805812, 371.867671) scale(-1, 1) translate(-309.805812, -371.867671) "></path>
                <path d="M76.7528529,332.956664 L116.913659,332.956664 C120.249426,332.956664 122.953599,329.382226 122.953599,324.976193 L122.953599,213.792936" id="Path-24-Copy-2"></path>
                <path d="M58.5198151,124.316671 L30.8812271,124.316671 C23.7031451,124.316671 17.8841599,130.136008 17.8841599,137.322565 L17.8841599,188.300422" id="Path-24-Copy" transform="translate(38.201987, 156.308547) scale(-1, 1) translate(-38.201987, -156.308547) "></path>
            </g>
            <path d="M588.310902,89.4058271 C582.394001,82.9702418 579.654996,79.755118 567.308436,79.755118 C554.961875,79.755118 472.912807,134.083895 298.579646,0.828571429 C125.881312,134.083895 41.6891994,79.755118 29.8639289,79.755118 C18.0386584,79.755118 14.7734614,82.9702418 8.86309643,89.4058271 C2.95599953,95.8378538 0,103.458427 0,112.263987 L0,417.190092 C0,581.788847 98.2463718,695.265981 294.739115,757.621494 L294.739115,757.621494 C297.238516,758.414661 299.919356,758.433432 302.429619,757.675344 C498.916068,698.337311 597.159292,584.842227 597.159292,417.190092 L597.159292,112.263987 C597.157658,103.453089 594.204927,95.8396331 588.310902,89.4058271 Z" id="Shape-Copy-4" fill="#E9ECF4" opacity="0.290000021"></path>
            <text id="chooses-investment-f" opacity="0.800000012" font-family="SFUIDisplay-Regular, SF UI Display" font-size="14" font-weight="normal" line-spacing="21" letter-spacing="0.0874999985" fill="#000000">
                <tspan x="222.63445" y="238">chooses investment fund</tspan>
            </text>
            <text id="Crypto-Managed-Fund" opacity="0.800000012" font-family="SFUIDisplay-Light, SF UI Display" font-size="14" font-weight="300" line-spacing="21" letter-spacing="0.0875" fill="#000000">
                <tspan x="384.410164" y="389">Crypto Managed</tspan>
                <tspan x="419.287117" y="410">Fund</tspan>
            </text>
            <text id="Exchange-Traded-Fund" opacity="0.800000012" font-family="SFUIDisplay-Light, SF UI Display" font-size="14" font-weight="300" line-spacing="21" letter-spacing="0.0875" fill="#000000">
                <tspan x="249.676841" y="389">Exchange Traded</tspan>
                <tspan x="286.692759" y="410">Fund</tspan>
            </text>
            <text id="Real-Estate-Fund" opacity="0.800000012" font-family="SFUIDisplay-Light, SF UI Display" font-size="14" font-weight="300" line-spacing="21" letter-spacing="0.0875" fill="#000000">
                <tspan x="136.972925" y="389">Real Estate</tspan>
                <tspan x="154.580933" y="410">Fund</tspan>
            </text>
            <text id="Funds-managers-trade" opacity="0.800000012" font-family="SFUIDisplay-Light, SF UI Display" font-size="14" font-weight="300" line-spacing="21" letter-spacing="0.0875" fill="#000000">
                <tspan x="354.829773" y="599.760494">Funds managers trade on </tspan>
                <tspan x="336.473914" y="620.760494">specially secured accounts with </tspan>
                <tspan x="381.306726" y="641.760494">cryptocurrencies</tspan>
            </text>
            <text id="Trustless-physical-s" opacity="0.800000012" font-family="SFUIDisplay-Light, SF UI Display" font-size="14" font-weight="300" line-spacing="21" letter-spacing="0.0875" fill="#000000">
                <tspan x="78.4336914" y="599.760494">Trustless physical storage, real </tspan>
                <tspan x="69.1580078" y="620.760494">ownership, no CFDs or other trust </tspan>
                <tspan x="111.748633" y="641.760494">related agreements</tspan>
            </text>
            <text id="Investor" opacity="0.800000012" font-family="SFUIDisplay-Light, SF UI Display" font-size="14" font-weight="300" line-spacing="21" letter-spacing="0.0874999985" fill="#000000">
                <tspan x="276.353469" y="198">Investor</tspan>
            </text>
            <g id="flowchart_icon" transform="translate(260.022730, 93.000000)">
                <ellipse id="Oval-5-Copy" fill="#DFDBFC" cx="39.8667731" cy="40.2643192" rx="39.8667731" ry="39.8915015"></ellipse>
                <g id="Group-2" transform="translate(17.138987, 17.895253)">
                    <path d="M15.9634387,35.6592279 L9.18198183,39.3605768 C8.78403115,39.5776974 8.42639013,39.8445928 8.09362103,40.1355172 C12.0473982,43.4712796 17.1512872,45.4837218 22.7277426,45.4837218 C28.2630307,45.4837218 33.3343289,43.5013161 37.2769566,40.2110375 C36.913312,39.9038075 36.518792,39.6274721 36.0813893,39.4094933 L28.8196471,35.7767992 C27.8813754,35.3073724 27.2887377,34.3479223 27.2887377,33.2983629 L27.2887377,30.4474747 C27.4928589,30.2149067 27.7261403,29.9162586 27.9757172,29.5635448 C28.965448,28.1647044 29.7141784,26.62598 30.2330581,25.0117353 C31.1644685,24.7242435 31.8505904,23.8634847 31.8505904,22.840529 L31.8505904,19.7974075 C31.8505904,19.1280237 31.552985,18.5298692 31.0907104,18.1110753 L31.0907104,13.7120226 C31.0907104,13.7120226 31.9938183,6.8662864 22.7286003,6.8662864 C13.4633822,6.8662864 14.3664901,13.7120226 14.3664901,13.7120226 L14.3664901,18.1110753 C13.9033579,18.5298692 13.6066102,19.1280237 13.6066102,19.7974075 L13.6066102,22.840529 C13.6066102,23.6420731 14.0277175,24.3475006 14.6580919,24.7551382 C15.4179719,28.065155 17.4077253,30.4474747 17.4077253,30.4474747 L17.4077253,33.2279918 C17.4068676,34.2406493 16.8528242,35.1734956 15.9634387,35.6592279 Z" id="Shape" fill="#FFFFFF"></path>
                    <path d="M23.1162591,0.00338653413 C10.5662327,-0.211159541 0.217799755,9.79526942 0.00338667471,22.3530803 C-0.118399955,29.4734355 3.05319833,35.8729158 8.10305521,40.1286518 C8.43325135,39.8403018 8.78746176,39.5759811 9.18112418,39.361435 L15.9625811,35.6600861 C16.8519666,35.1743538 17.40601,34.2415075 17.40601,33.2271336 L17.40601,30.4466165 C17.40601,30.4466165 15.4153989,28.0642968 14.6563766,24.75428 C14.0268598,24.3466424 13.6048949,23.6420731 13.6048949,22.8396708 L13.6048949,19.7965493 C13.6048949,19.1271655 13.9025002,18.5290111 14.3647748,18.1102171 L14.3647748,13.7111644 C14.3647748,13.7111644 13.4616669,6.86542821 22.726885,6.86542821 C31.992103,6.86542821 31.0889951,13.7111644 31.0889951,13.7111644 L31.0889951,18.1102171 C31.5521274,18.5290111 31.8488751,19.1271655 31.8488751,19.7965493 L31.8488751,22.8396708 C31.8488751,23.8626265 31.1627532,24.7233854 30.2313428,25.0108771 C29.7124631,26.6251218 28.9637326,28.1638462 27.9740019,29.5626866 C27.724425,29.9154004 27.4911436,30.2140485 27.2870224,30.4466165 L27.2870224,33.2975047 C27.2870224,34.3470641 27.8796601,35.3073724 28.8179318,35.775941 L36.079674,39.4086351 C36.5153613,39.6266139 36.9090238,39.9020911 37.2718107,40.2084629 C42.1690055,36.1217893 45.3328849,30.011517 45.4503832,23.1305953 C45.6665116,10.5727844 35.6671432,0.21793261 23.1162591,0.00338653413 Z" id="Shape-Copy-15" fill="url(#linearGradient-1)" opacity="0.800000012"></path>
                </g>
            </g>
            <g id="flowchart_icon" transform="translate(394.153929, 283.247404)">
                <ellipse id="Oval-5-Copy-2" fill="#E6E7FB" cx="39.8667731" cy="40.2643192" rx="39.8667731" ry="39.8915015"></ellipse>
                <g id="Group-3" transform="translate(16.393813, 17.895253)">
                    <g id="bitcoin" transform="translate(16.364006, 0.909675)" fill="url(#linearGradient-2)">
                        <path d="M0.195059705,33.8667825 L10.7866506,25.0602603 L9.21423037,31.4911823 C11.8059489,32.0597471 19.725089,34.6182888 20.8769639,29.9276291 C21.9725972,25.3307951 14.6008613,24.0775522 11.6480605,23.3545258 L11.6480605,21.8322086 L7.78419615,16.2999549 L5.79621213,16.8056498 L7.05446489,11.7335548 C7.05446489,10.8807075 6.76649616,9.88571911 5.32665251,9.6014367 L2.59094958,8.89073067 L3.59884013,4.91077692 L8.78227727,6.19004777 C9.5021991,6.33218898 10.3661053,6.61647139 11.2300115,6.75861259 L12.8138395,0.646540761 L16.557433,1.6415292 L14.973605,7.61145982 C15.9814955,7.89574224 16.9893861,8.03788344 17.9972766,8.32216585 L19.4371203,2.35223523 L23.1807138,3.34722366 L21.5968857,9.45929549 C26.6363385,11.0228488 30.2359476,13.4392492 29.5160258,17.9877678 C29.0840727,21.2570155 27.212276,22.96271 24.6205574,23.5312748 C28.0761822,25.2369693 29.8039946,27.9376522 28.0761822,32.628312 C26.0604011,38.4561014 21.1649327,38.882525 14.6856362,37.7453954 L13.1018082,43.9996084 L9.35821473,42.8624788 L10.9420427,36.7504069 C9.93415219,36.4661245 8.92626164,36.1818421 7.91837108,36.0397009 L6.33454307,42.1517727 L2.59094958,41.1567843 L4.17477759,34.9025713 C3.3108714,34.6182888 2.44696521,34.4761476 1.43907466,34.1918652 L0.195059705,33.8667825 Z M14.1096988,12.0178372 L12.237902,19.5513211 C14.3976675,20.1198859 21.0209483,22.252004 22.0288388,17.9877678 C23.0367294,13.5813905 16.2694642,12.586402 14.1096988,12.0178372 Z" id="Combined-Shape-Copy"></path>
                    </g>
                    <g id="ethereum" fill="#FFFFFF">
                        <polygon id="Path-21" points="0.969784611 22.741884 14.2191377 31.4377831 28.0430095 22.7043834 14.2230136 4.16093826e-13"></polygon>
                        <polygon id="Path-22" points="0.785977258 25.234396 14.3604416 45.0341206 27.9711435 25.234396 14.3604416 34.1004193"></polygon>
                    </g>
                </g>
            </g>
            <g id="flowchart_icon-copy" transform="translate(129.617398, 283.247404)">
                <ellipse id="Oval-5-Copy-3" fill="#FAE1DE" cx="39.8667731" cy="40.2643192" rx="39.8667731" ry="39.8915015"></ellipse>
                <g id="Group-2" transform="translate(17.884160, 19.386524)">
                    <path d="M4.47103998,15.6583464 L21.9826132,2.81172249 L40.2393598,15.6583464 L40.2393598,35.5249997 C40.2393598,37.7306504 38.4410907,39.5186837 36.2403937,39.5186837 L8.47000602,39.5186837 C6.26143806,39.5186837 4.47103998,37.7252804 4.47103998,35.5249997 L4.47103998,15.6583464 Z" id="Rectangle" fill="#FFFFFF"></path>
                    <path d="M41.011242,19.1182632 L22.322449,5.02111035 L3.63350498,19.1182632 C2.63606049,19.8707171 1.21495885,19.6753078 0.459625734,18.6817136 C-0.295858419,17.6882699 -0.0995110779,16.2730188 0.897933413,15.5205649 L20.7974343,0.510298221 C21.6994238,-0.170099407 22.9456253,-0.170099407 23.8474637,0.510298221 L43.7469646,15.5205649 C44.7444091,16.2730188 44.9406054,17.6882699 44.1852723,18.6817136 C43.4297882,19.6753078 42.0086865,19.8707171 41.011242,19.1182632 Z" id="XMLID_991_-Copy" fill="#FF8269"></path>
                    <path d="M15.6486399,29.3545171 C15.6486399,27.1437717 17.4297987,25.3516084 19.6548496,25.3516084 L25.0555501,25.3516084 C27.2681187,25.3516084 29.0617598,27.1458783 29.0617598,29.3545171 L29.0617598,39.5186837 L15.6486399,39.5186837 L15.6486399,29.3545171 Z" id="Rectangle-2-Copy" fill="url(#linearGradient-3)"></path>
                </g>
            </g>
            <g id="flowchart_icon-copy-2" transform="translate(261.513077, 283.247404)">
                <ellipse id="Oval-5-Copy-4" fill="#F3D7F2" cx="39.8667731" cy="40.2643192" rx="39.8667731" ry="39.8915015"></ellipse>
                <g id="Group-Copy" transform="translate(20.864853, 15.658346)">
                    <path d="M6.42471728,5.80902108 C4.21616355,5.80902108 2.42577701,7.59720777 2.42577701,9.80309837 L2.42577701,40.4980891 C2.42577701,42.7039571 4.20818788,44.4921664 6.42471728,44.4921664 L31.5791225,44.4921664 C33.7876762,44.4921664 35.5780628,42.7039797 35.5780628,40.4980891 L35.5780628,9.80309837 C35.5780628,7.59723039 33.7956519,5.80902108 31.5791225,5.80902108 L6.42471728,5.80902108 Z" id="Shape" fill="#FFFFFF"></path>
                    <path d="M17.654266,14.0420466 L7.14256564,14.0420466 C6.69541407,14.0420466 6.3339733,13.6669312 6.3339733,13.2028622 C6.3339733,12.7387932 6.69541407,12.3636777 7.14256564,12.3636777 L17.654266,12.3636777 C18.1014176,12.3636777 18.4628583,12.7387932 18.4628583,13.2028622 C18.4628583,13.6669312 18.1014176,14.0420466 17.654266,14.0420466 Z" id="Shape-Copy-16" fill="url(#linearGradient-4)"></path>
                    <path d="M17.654266,18.7239442 L7.14256564,18.7239442 C6.69541407,18.7239442 6.3339733,18.3488288 6.3339733,17.8847597 C6.3339733,17.4206907 6.69541407,17.0455753 7.14256564,17.0455753 L17.654266,17.0455753 C18.1014176,17.0455753 18.4628583,17.4206907 18.4628583,17.8847597 C18.4628583,18.3488288 18.1014176,18.7239442 17.654266,18.7239442 Z" id="Shape-Copy-17" fill="url(#linearGradient-4)"></path>
                    <path d="M23.8265208,39.6514497 L7.70858027,39.6514497 C7.02294788,39.6514497 6.46873869,39.2763342 6.46873869,38.8122652 C6.46873869,38.3481962 7.02294788,37.9730808 7.70858027,37.9730808 L23.8265208,37.9730808 C24.5121532,37.9730808 25.0663624,38.3481962 25.0663624,38.8122652 C25.0663624,39.2763342 24.5121532,39.6514497 23.8265208,39.6514497 Z" id="Shape-Copy-18" fill="url(#linearGradient-4)"></path>
                    <path d="M30.5917434,23.7069448 L7.14256564,23.7069448 C6.69541407,23.7069448 6.3339733,23.3318293 6.3339733,22.8677603 C6.3339733,22.4036913 6.69541407,22.0285759 7.14256564,22.0285759 L30.5917434,22.0285759 C31.0388949,22.0285759 31.4003357,22.4036913 31.4003357,22.8677603 C31.4003357,23.3318293 31.0388949,23.7069448 30.5917434,23.7069448 Z" id="Shape-Copy-19" fill="url(#linearGradient-4)"></path>
                    <path d="M30.7265088,28.7420516 L7.27733103,28.7420516 C6.83017946,28.7420516 6.46873869,28.3669362 6.46873869,27.9028671 C6.46873869,27.4387981 6.83017946,27.0636827 7.27733103,27.0636827 L30.7265088,27.0636827 C31.1736603,27.0636827 31.5351011,27.4387981 31.5351011,27.9028671 C31.5351011,28.3669362 31.1736603,28.7420516 30.7265088,28.7420516 Z" id="Shape-Copy-20" fill="url(#linearGradient-4)"></path>
                    <path d="M30.7265088,34.6163429 L7.27733103,34.6163429 C6.83017946,34.6163429 6.46873869,34.2412274 6.46873869,33.7771584 C6.46873869,33.3130894 6.83017946,32.937974 7.27733103,32.937974 L30.7265088,32.937974 C31.1736603,32.937974 31.5351011,33.3130894 31.5351011,33.7771584 C31.5351011,34.2412274 31.1736603,34.6163429 30.7265088,34.6163429 Z" id="Shape-Copy-21" fill="url(#linearGradient-4)"></path>
                    <path d="M21.7164799,4.93513368 C21.7164799,4.38347211 22.1543195,3.93626204 22.7150549,3.93626204 L28.8615848,3.93626204 C29.4130826,3.93626204 29.8601598,4.38767933 29.8601598,4.93513368 L29.8601598,17.9819548 L25.7883199,14.4106438 L21.7164799,17.9819548 L21.7164799,4.93513368 Z" id="Rectangle-9-Copy" fill="url(#linearGradient-4)"></path>
                </g>
            </g>
            <g id="flowchart_icon-copy-3" transform="translate(394.153929, 495.007898)">
                <g id="Kravatte" transform="translate(36.513493, 53.685759)"></g>
                <ellipse id="Oval-5-Copy-5" fill="url(#linearGradient-5)" opacity="0.200000003" cx="39.8667731" cy="39.8915015" rx="39.8667731" ry="39.8915015"></ellipse>
                <g id="Group-3" opacity="0" transform="translate(16.393813, 17.149617)">
                    <path d="M17.5745841,35.059465 C18.0142655,34.5611195 18.2681452,33.9124221 18.2687256,33.2271798 L18.2687256,30.4466627 C18.2687256,30.4466627 16.2789722,28.064343 15.5190922,24.7543262 C14.8887178,24.3466887 14.4676105,23.6412612 14.4676105,22.839717 L14.4676105,19.7965955 C14.4676105,19.1272117 14.7643582,18.5290573 15.2274904,18.1102633 L15.2274904,13.7112106 C15.2274904,13.7112106 14.3243826,6.86547442 23.5896006,6.86547442 C32.8548186,6.86547442 31.9517107,13.7112106 31.9517107,13.7112106 L31.9517107,18.1102633 C32.4139853,18.5290573 32.7115907,19.1272117 32.7115907,19.7965955 L32.7115907,22.839717 C32.7115907,23.8626727 32.0254688,24.7234316 31.0940584,25.0109233 C30.5751788,26.625168 29.8264483,28.1638924 28.8367175,29.5627328 C28.5871407,29.9154466 28.3538592,30.2140947 28.149738,30.4466627 L28.149738,33.2975509 C28.149738,33.9762596 28.3975613,34.6172873 28.8264145,35.1124916 C26.5321456,37.6366574 23.2279719,41.4076336 23.2279719,41.4076336 C23.2279719,41.4076336 19.7825749,37.4748282 17.5745841,35.059465 Z" id="Combined-Shape" fill="#FFFFFF"></path>
                    <path d="M23.8585682,0.051243234 C11.3085418,-0.163302842 0.96010888,9.84312612 0.745695799,22.400937 C0.623909169,29.5212922 3.79550746,35.9207725 8.84536433,40.1765085 C9.17556048,39.8881585 9.52977089,39.6238378 9.9234333,39.4092917 L16.7048902,35.7079428 C17.5942757,35.2222105 18.1483191,34.2893642 18.1483191,33.2749903 L18.1483191,30.4944732 C18.1483191,30.4944732 16.157708,28.1121535 15.3986857,24.8021367 C14.7691689,24.3944991 14.347204,23.6899298 14.347204,22.8875275 L14.347204,19.844406 C14.347204,19.1750222 14.6448093,18.5768678 15.1070839,18.1580738 L15.1070839,13.7590211 C15.1070839,13.7590211 14.203976,6.91328491 23.4691941,6.91328491 C32.7344121,6.91328491 31.8313042,13.7590211 31.8313042,13.7590211 L31.8313042,18.1580738 C32.2944365,18.5768678 32.5911842,19.1750222 32.5911842,19.844406 L32.5911842,22.8875275 C32.5911842,23.9104832 31.9050623,24.7712421 30.9736519,25.0587338 C30.4547723,26.6729785 29.7060418,28.2117029 28.716311,29.6105433 C28.4667342,29.9632571 28.2334527,30.2619052 28.0293315,30.4944732 L28.0293315,33.3453614 C28.0293315,34.3949208 28.6219692,35.3552291 29.5602409,35.8237977 L36.8219831,39.4564918 C37.2576705,39.6744706 37.6513329,39.9499478 38.0141198,40.2563196 C42.9113146,36.169646 46.075194,30.0593737 46.1926924,23.178452 C46.4088208,10.6206411 36.4094523,0.26578931 23.8585682,0.051243234 Z" id="Shape" fill="#6A7F91"></path>
                    <path d="M17.6170768,34.9854845 C17.406993,35.2235986 17.1544903,35.4273871 16.8669318,35.5844354 L10.0854749,39.2857843 C9.6875242,39.5029049 9.32988318,39.7698003 8.99711408,40.0607247 C12.9508913,43.3964871 18.0547803,45.4089293 23.6312357,45.4089293 C29.1665237,45.4089293 34.2378219,43.4265236 38.1804497,40.136245 C37.8168051,39.829015 37.422285,39.5526796 36.9848823,39.3347008 L29.7231401,35.7020067 C29.3916118,35.5361397 29.1032354,35.3090939 28.8689072,35.0385111 C26.5746383,37.5626769 23.2704646,41.3336531 23.2704646,41.3336531 C23.2704646,41.3336531 19.8250676,37.4008477 17.6170768,34.9854845 Z" id="Combined-Shape" fill-opacity="0.420855978" fill="#6A7F91"></path>
                    <polyline id="Path-25" stroke="#C0CFDB" stroke-width="1.5" points="17.3547939 35.2806999 22.9846252 41.1585832 29.0957501 35.2806999"></polyline>
                    <g id="Kravatte" transform="translate(19.613524, 38.618294)" fill="#C0CFDB">
                        <path d="M2.09374015,6.90545634 L2.34599316,3.02574677 L2.11825229,3.02574677 L0.560159164,0.157606186 L6.31294872,0.157606186 L4.88471281,3.02574677 L4.62251998,3.02574677 L4.81536824,7.01970195 C4.68371336,7.02195135 4.55178578,7.0230806 4.41959461,7.0230806 C3.63437289,7.0230806 2.85845167,6.98323572 2.09374015,6.90545634 Z" id="Combined-Shape"></path>
                    </g>
                </g>
                <g id="exchange" transform="translate(20.119680, 20.877795)" fill-rule="nonzero">
                    <path d="M19.8114139,20.5793456 C20.5503755,18.8231297 21.1768131,17.4454166 21.6909797,16.4463757 C22.0765836,15.7052856 22.4383828,15.0808533 22.7757862,14.573248 C23.112852,14.0656428 23.5228516,13.5701436 24.0046876,13.086835 C24.4871146,12.6033571 25.0411248,12.2404312 25.6680688,11.9989885 C26.2943375,11.7572919 26.9931179,11.6364013 27.7647478,11.6364013 L30.9533794,11.6364013 L30.9533794,16.2771457 C30.9533794,16.4865879 31.0296054,16.6680085 31.1821418,16.8208996 C31.3346782,16.9740447 31.5154934,17.0504902 31.7240808,17.0504902 C31.9493822,17.0504902 32.1342492,16.9781929 32.2780909,16.8330903 L39.9905912,9.09888306 C40.1356148,8.95369577 40.2077889,8.76863489 40.2077889,8.5429385 C40.2077889,8.31724211 40.1356148,8.13209658 39.9905912,7.98640134 L32.3024022,0.275982832 C32.1100223,0.114964627 31.9164607,0.0347941546 31.7239964,0.0347941546 C31.4986949,0.0347941546 31.3143344,0.107176155 31.1693953,0.252363442 C31.0255535,0.397381415 30.953295,0.582526953 30.953295,0.808138685 L30.953295,5.44854449 L27.7646634,5.44854449 C26.6718376,5.44854449 25.6436731,5.5817951 24.6794101,5.84761906 C23.715147,6.11344301 22.8594406,6.45164896 22.1124597,6.86274486 C21.3652255,7.27367145 20.6423026,7.8254678 19.9432688,8.51847254 C19.2443195,9.21113865 18.6497062,9.88010072 18.1599352,10.5245968 C17.6699953,11.1689236 17.1556598,11.9745226 16.6175195,12.9414784 C16.0794636,13.9082649 15.6455748,14.75433 15.3161907,15.4793352 C14.9867222,16.2045097 14.5891315,17.0988296 14.1232497,18.1623794 C13.3840349,19.9186799 12.7574285,21.2965623 12.2433463,22.2955186 C11.8578268,23.0366087 11.4960276,23.6612103 11.1588775,24.1687309 C10.8215585,24.6763361 10.4115588,25.1717507 9.92963837,25.6550593 C9.44754907,26.1388758 8.89320124,26.5015477 8.26659488,26.7432443 C7.64015736,26.9848563 6.94103923,27.1059163 6.16991582,27.1059163 L0.771461065,27.1059163 C0.546412898,27.1059163 0.361545874,27.1777903 0.217113236,27.3231469 C0.0728494254,27.4679956 0.000337656665,27.6528871 0.000337656665,27.8787528 L0.000337656665,32.5199206 C0.000337656665,32.745363 0.0731026679,32.9307625 0.217704135,33.0761191 C0.362390016,33.2210524 0.547341454,33.2934344 0.772051964,33.2934344 L6.17067555,33.2934344 C7.26350135,33.2934344 8.29158148,33.1601838 9.25576008,32.8941905 C10.2197699,32.6281973 11.0755607,32.289822 11.8224572,31.8790647 C12.5697758,31.4679688 13.2926988,30.9160032 13.9916481,30.2229984 C14.6904285,29.5305863 15.2852107,28.8613702 15.7751506,28.2171281 C16.2649215,27.5724627 16.7791726,26.767033 17.3174818,25.8003312 C17.8555377,24.8332061 18.2895953,23.9873103 18.6188106,23.2623897 C18.9479414,22.5372152 19.3454477,21.6431493 19.8114139,20.5793456 Z" id="Shape-Copy-22" fill="url(#linearGradient-5)"></path>
                    <path d="M0.771123408,11.6361473 L6.16974699,11.6361473 C6.87671564,11.6361473 7.5313475,11.7530591 8.13398023,11.9868825 C8.73661296,12.220706 9.24267589,12.5025302 9.65233784,12.8330324 C10.0620842,13.1635345 10.4717461,13.6185675 10.8814925,14.1985548 C11.2911545,14.7788806 11.6165711,15.2906341 11.8575735,15.7334765 C12.0984071,16.1767421 12.3956294,16.7609622 12.7491559,17.4859675 C13.9865832,14.5694385 15.0869219,12.3699569 16.0510161,10.8875227 C13.480267,7.2620734 10.1865107,5.44905244 6.16966258,5.44905244 L0.771123408,5.44905244 C0.546075241,5.44905244 0.361208217,5.52143444 0.216775579,5.66662173 C0.0725117688,5.81147038 0,5.99661592 0,6.22231231 L0,10.8630568 C0,11.0888378 0.0721741121,11.2737294 0.216775579,11.4186627 C0.361545874,11.56385 0.546412898,11.6361473 0.771123408,11.6361473 Z" id="Shape" fill="#FFFFFF"></path>
                    <path d="M32.3029931,21.9334393 C32.1100223,21.772421 31.9170516,21.6924199 31.7240808,21.6924199 C31.4993703,21.6924199 31.3144188,21.7645479 31.1700706,21.9096505 C31.025638,22.0544992 30.9534638,22.2398987 30.9534638,22.4652565 L30.9534638,27.1064242 L27.7642413,27.1064242 C27.0570195,27.1064242 26.402472,26.9893431 25.7998393,26.7553503 C25.1972065,26.5217808 24.6910592,26.2399566 24.2814817,25.9093698 C23.8721574,25.5791217 23.4622422,25.12375 23.0525802,24.5434241 C22.642665,23.9633522 22.3170796,23.4515141 22.0761616,23.0081638 C21.8354124,22.5657447 21.5381901,21.9808473 21.1846636,21.2563501 C19.947574,24.1566249 18.8551702,26.3561065 17.9070303,27.8547948 C18.3406659,28.4831214 18.7905934,29.0431295 19.2565596,29.5342265 C19.722357,30.0255776 20.1643495,30.4566526 20.5820308,30.8274516 C20.9997965,31.1977427 21.4737821,31.5204564 22.0039031,31.7938995 C22.5342773,32.0679352 22.9999902,32.2974412 23.4020549,32.4829253 C23.8047949,32.6682402 24.3103513,32.817237 24.9206657,32.9301699 C25.5310646,33.0425948 26.0452313,33.1277601 26.462997,33.1833799 C26.8806783,33.2395924 27.4512336,33.2801432 28.1742409,33.3045245 C28.896995,33.3288212 29.4835047,33.3363557 29.9329257,33.3288212 C30.3832753,33.3206941 30.4396348,33.2923339 30.9538859,33.2923339 L30.9538859,37.933163 C30.9538859,38.1426052 31.0301119,38.3239411 31.1826483,38.4769169 C31.3351847,38.6299773 31.5159998,38.7064228 31.7245873,38.7064228 C31.9498887,38.7064228 32.1347557,38.6340408 32.2785974,38.4891922 L39.9910977,30.7550696 C40.1355304,30.6096284 40.2077045,30.4248215 40.2077045,30.1988711 C40.2077045,29.9731747 40.1355304,29.7880292 39.9905068,29.6432652 L32.3029931,21.9334393 Z" id="Shape" fill="#FFFFFF"></path>
                </g>
            </g>
            <g id="flowchart_icon-copy-4" transform="translate(128.127051, 495.007898)">
                <ellipse id="Oval-5-Copy-6" fill="#FAE1DE" cx="39.8667731" cy="40.2643192" rx="39.8667731" ry="39.8915015"></ellipse>
                <g id="safe" transform="translate(19.374507, 20.132160)">
                    <g id="Layer_1">
                        <rect id="Rectangle-Copy-2" fill="url(#linearGradient-6)" x="0.167662507" y="0.26523195" width="40.7050938" height="40.0986224" rx="4"></rect>
                        <path d="M4.23678184,26.6190652 L4.23678184,12.8538664 L5.46367758,12.8538664 L5.46367758,9.09972131 L4.23678184,9.09972131 L4.23678184,5.34700926 C4.23678184,4.63265753 4.85166741,4.03117404 5.5816882,4.03117404 L35.3221596,4.03117404 C36.0521804,4.03117404 36.6285365,4.63265753 36.6286498,5.34689839 L36.6286498,34.4070328 C36.6286498,35.1213845 36.0137642,35.722868 35.2837434,35.722868 L5.5816882,35.722868 C4.85155409,35.722868 4.23678184,35.1212737 4.23678184,34.4070328 L4.23678184,30.3732103 L5.46367758,30.3732103 L5.46367758,26.6190652 L4.23678184,26.6190652 Z" id="Combined-Shape" fill="#FFFFFF"></path>
                        <path d="M20.4519239,29.2043814 C15.1760836,29.2043814 10.89917,25.0199164 10.89917,19.8581173 C10.89917,14.6963181 15.1760836,10.5118531 20.4519239,10.5118531 C25.7277642,10.5118531 30.0046778,14.6963181 30.0046778,19.8581173 C30.0046778,25.0199164 25.7277642,29.2043814 20.4519239,29.2043814 Z M20.4519239,24.0795998 C22.834894,24.0795998 24.7666729,22.1895777 24.7666729,19.8581173 C24.7666729,17.5266569 22.834894,15.6366348 20.4519239,15.6366348 C18.0689538,15.6366348 16.1371749,17.5266569 16.1371749,19.8581173 C16.1371749,22.1895777 18.0689538,24.0795998 20.4519239,24.0795998 Z M20.4519239,11.6711311 C19.9943049,11.6711311 19.6020462,12.0549109 19.6020462,12.5026381 L19.6020462,14.1976259 C19.6020462,14.6453532 19.9943049,15.0291329 20.4519239,15.0291329 C20.9095429,15.0291329 21.3018016,14.6453532 21.3018016,14.1976259 L21.3018016,12.5026381 C21.3018016,12.0549109 20.9095429,11.6711311 20.4519239,11.6711311 Z M20.4519239,24.7192641 C19.9943049,24.7192641 19.6020462,25.1030438 19.6020462,25.5507711 L19.6020462,27.2457588 C19.6020462,27.6934861 19.9943049,28.0772658 20.4519239,28.0772658 C20.9095429,28.0772658 21.3018016,27.6934861 21.3018016,27.2457588 L21.3018016,25.5507711 C21.3018016,25.0709757 20.9095429,24.7192641 20.4519239,24.7192641 Z M28.8197875,19.8581173 C28.8197875,19.41039 28.4275289,19.0266103 27.9699098,19.0266103 L26.2375706,19.0266103 C25.7799515,19.0266103 25.3876929,19.41039 25.3876929,19.8581173 C25.3876929,20.3058445 25.7799515,20.6896243 26.2375706,20.6896243 L27.9700062,20.6896243 C28.4603054,20.6896243 28.8197875,20.3379126 28.8197875,19.8581173 Z M15.5161549,19.8581173 C15.5161549,19.41039 15.1238963,19.0266103 14.6662772,19.0266103 L12.9338416,19.0266103 C12.4762225,19.0266103 12.0839639,19.41039 12.0839639,19.8581173 C12.0839639,20.3058445 12.4762225,20.6896243 12.9338416,20.6896243 L14.6662772,20.6896243 C15.1238963,20.6896243 15.5161549,20.3379126 15.5161549,19.8581173 Z M26.3682913,14.0696364 C26.041393,13.7498043 25.5184136,13.7498043 25.1915153,14.0696364 L23.9493789,15.2849231 C23.6224806,15.6047553 23.6224806,16.1164301 23.9493789,16.4362623 C24.2762772,16.7560944 24.7992567,16.7560944 25.1261549,16.4362623 L26.3682913,15.2209756 C26.6951896,14.9331172 26.6951896,14.3894686 26.3682913,14.0696364 Z M16.9543725,23.2800666 C16.6274742,22.9602344 16.1044947,22.9602344 15.7775965,23.2800666 L14.5354601,24.4953533 C14.2085618,24.8151854 14.2085618,25.3268603 14.5354601,25.6466924 C14.8623584,25.9665246 15.3853378,25.9665246 15.7122361,25.6466924 L16.9543725,24.4314057 C17.2812708,24.1435473 17.2812708,23.5998987 16.9543725,23.2800666 Z M26.3682913,25.6786662 C26.6951896,25.358834 26.6951896,24.8471592 26.3682913,24.5273271 L25.1261549,23.3120404 C24.7992567,22.9922082 24.2762772,22.9922082 23.9493789,23.3120404 C23.6224806,23.6318725 23.6224806,24.1435473 23.9493789,24.4633795 L25.1915153,25.6786662 C25.5184136,25.998404 26.041393,25.998404 26.3682913,25.6786662 Z M16.9543725,16.4682361 C17.2812708,16.1484039 17.2812708,15.6367291 16.9543725,15.3168969 L15.7122361,14.0696364 C15.3853378,13.7498043 14.8623584,13.7498043 14.5354601,14.0696364 C14.2085618,14.3894686 14.2085618,14.9011434 14.5354601,15.2209756 L15.7775965,16.4362623 C16.1044947,16.7879739 16.6274742,16.7879739 16.9543725,16.4682361 Z" id="Combined-Shape-Copy-2" fill="url(#linearGradient-6)"></path>
                    </g>
                </g>
            </g>
        </g>
    </g>
</svg>