<svg xmlns="http://www.w3.org/2000/svg" width="62" height="62" viewBox="0 0 62 62"><path fill="#cce1f4" d="M31.21 7a23.2 23.2 0 1 1 0 46.42 23.2 23.2 0 0 1 0-46.42z"/><path fill="#fff" d="M39.73 15.23c-.27-.65-.54-1.27-.84-1.87-1.7-3.39-3.78-5.54-6-6.27 1.76.12 3.47.43 5.1.92a19.93 19.93 0 0 1 2.89 4.35c.32.63.61 1.28.88 1.95a23.53 23.53 0 0 0 3.74-2.36 22 22 0 0 1 1.72 1.48 25.42 25.42 0 0 1-4.68 2.99 44.13 44.13 0 0 1 2.04 12.68h9.78c.02.37.06.73.06 1.11 0 .38-.04.74-.06 1.12h-9.78c-.1 4.55-.8 8.9-2.04 12.67 1.65.82 3.22 1.82 4.68 2.99-.55.52-1.12 1.02-1.72 1.49a22.9 22.9 0 0 0-3.74-2.37 24.6 24.6 0 0 1-.88 1.95 19.69 19.69 0 0 1-2.89 4.35c-1.63.49-3.34.8-5.09.92 2.21-.73 4.3-2.88 5.99-6.27.3-.59.58-1.22.84-1.86a23.31 23.31 0 0 0-7.4-1.58v9.74c-.38.02-.74.06-1.12.06-.38 0-.74-.04-1.11-.06v-9.74c-2.56.12-5.06.66-7.41 1.58.27.64.54 1.27.84 1.86 1.7 3.39 3.78 5.54 6 6.27a23.2 23.2 0 0 1-5.1-.92 19.69 19.69 0 0 1-2.89-4.35 24.6 24.6 0 0 1-.88-1.95 23.53 23.53 0 0 0-3.74 2.36 22 22 0 0 1-1.72-1.48A25.95 25.95 0 0 1 19.88 44a44.48 44.48 0 0 1-2.04-12.68H8.06c-.02-.37-.06-.73-.06-1.11 0-.38.04-.74.06-1.12h9.78c.1-4.55.81-8.9 2.04-12.67a25.95 25.95 0 0 1-4.68-2.99c.55-.52 1.12-1.02 1.72-1.49a22.9 22.9 0 0 0 3.74 2.37c.27-.67.57-1.32.88-1.95a19.69 19.69 0 0 1 2.89-4.35 23.2 23.2 0 0 1 5.1-.92c-2.22.73-4.3 2.88-6 6.27-.29.59-.57 1.22-.84 1.86 2.35.92 4.85 1.46 7.41 1.58V7.06c.37-.02.74-.06 1.11-.06.38 0 .74.04 1.12.06v9.74c2.56-.12 5.05-.66 7.4-1.57zm.75 27.87a41.87 41.87 0 0 0 1.87-11.77H32.32v10.06c2.82.12 5.57.71 8.16 1.71zm1.87-14c-.1-4.25-.74-8.28-1.86-11.78a25.52 25.52 0 0 1-8.16 1.71V29.1zM21.93 17.32a42.32 42.32 0 0 0-1.86 11.78h10.02V19.04a25.74 25.74 0 0 1-8.16-1.72zm-1.86 14.01c.09 4.24.74 8.28 1.86 11.77 2.59-1 5.35-1.59 8.16-1.71V31.33z"/><path fill="#cce1f4" d="M30.95 61.9a30.7 30.7 0 0 1-21-8.29v2.21c0 .3-.25.55-.56.55h-1.1a.55.55 0 0 1-.55-.55v-5.53c0-.3.24-.55.55-.55h5.52c.31 0 .56.25.56.55v1.11c0 .3-.25.55-.56.55h-2.39a28.5 28.5 0 0 0 19.53 7.74 28.73 28.73 0 0 0 26.72-39.26 5.56 5.56 0 0 0 1.82-1.44A30.95 30.95 0 0 1 30.95 61.9zm23.21-50.29V6.08a.55.55 0 0 0-.55-.55H52.5a.54.54 0 0 0-.55.55v2.2a30.77 30.77 0 0 0-21-8.28A30.95 30.95 0 0 0 2.4 42.91c.5-.6 1.11-1.1 1.82-1.44A28.7 28.7 0 0 1 30.95 2.21c7.56 0 14.4 2.96 19.53 7.74h-2.4a.55.55 0 0 0-.55.55v1.11c0 .3.24.55.55.55h5.52c.31 0 .56-.25.56-.55z"/></svg>