<svg xmlns="http://www.w3.org/2000/svg" width="24" height="29" viewBox="0 0 24 29"><defs><linearGradient id="a" x1="536" x2="536" y1="3744" y2="3772" gradientUnits="userSpaceOnUse"><stop offset="0" stop-color="#333dff" stop-opacity=".6"/><stop offset="1" stop-color="#333dff"/></linearGradient></defs><path fill="url(#a)" d="M547.64 3747.23a1.15 1.15 0 0 0-.84-.35c-3.59 0-3.79 1.98-10.8-2.88-6.94 4.86-7.19 2.88-10.8 2.88-.32 0-.61.12-.84.35-.24.24-.36.52-.36.84v11.13c0 1.06.21 2.11.63 3.16a12.2 12.2 0 0 0 1.55 2.78 22.82 22.82 0 0 0 4.59 4.27c.72.51 1.48.99 2.27 1.44a27.23 27.23 0 0 0 2.47 1.29 1.14 1.14 0 0 0 .98 0l.79-.37c.34-.16.89-.47 1.68-.92a27.34 27.34 0 0 0 4.64-3.35c.86-.76 1.6-1.55 2.22-2.36a12.2 12.2 0 0 0 1.55-2.78c.42-1.05.63-2.1.63-3.16v-11.13c0-.32-.12-.6-.36-.84z" transform="translate(-524 -3744)"/></svg>