<?xml version="1.0" encoding="UTF-8" standalone="no"?>
<svg width="1025px" height="679px" viewBox="0 0 1025 679" version="1.1" xmlns="http://www.w3.org/2000/svg" xmlns:xlink="http://www.w3.org/1999/xlink">
    <!-- Generator: Sketch 45.2 (43514) - http://www.bohemiancoding.com/sketch -->
    <title>Group 5 Copy</title>
    <desc>Created with Sketch.</desc>
    <defs>
        <linearGradient x1="50%" y1="0%" x2="50%" y2="100%" id="linearGradient-1">
            <stop stop-color="#573DFF" stop-opacity="0.4" offset="0%"></stop>
            <stop stop-color="#5B42FF" offset="100%"></stop>
        </linearGradient>
        <linearGradient x1="50%" y1="0%" x2="50%" y2="100%" id="linearGradient-2">
            <stop stop-color="#16E0B5" stop-opacity="0.6" offset="0%"></stop>
            <stop stop-color="#0BE0B2" offset="100%"></stop>
        </linearGradient>
        <linearGradient x1="50%" y1="0%" x2="50%" y2="100%" id="linearGradient-3">
            <stop stop-color="#FF8269" stop-opacity="0.4" offset="0%"></stop>
            <stop stop-color="#FF6C4F" offset="100%"></stop>
        </linearGradient>
        <linearGradient x1="50%" y1="0%" x2="50%" y2="100%" id="linearGradient-4">
            <stop stop-color="#7CE356" stop-opacity="0.6" offset="0%"></stop>
            <stop stop-color="#73E34B" offset="100%"></stop>
        </linearGradient>
        <linearGradient x1="0%" y1="100%" x2="100%" y2="0%" id="linearGradient-5">
            <stop stop-color="#FF5781" offset="0%"></stop>
            <stop stop-color="#FFAAA6" stop-opacity="0.3" offset="100%"></stop>
        </linearGradient>
        <linearGradient x1="50%" y1="0%" x2="50%" y2="100%" id="linearGradient-6">
            <stop stop-color="#333DFF" stop-opacity="0.6" offset="0%"></stop>
            <stop stop-color="#333DFF" offset="100%"></stop>
        </linearGradient>
        <linearGradient x1="50%" y1="0%" x2="50%" y2="100%" id="linearGradient-7">
            <stop stop-color="#D94CC6" stop-opacity="0.5" offset="0%"></stop>
            <stop stop-color="#D93FC4" offset="100%"></stop>
        </linearGradient>
    </defs>
    <g id="Page-1" stroke="none" stroke-width="1" fill="none" fill-rule="evenodd">
        <g id="1.home-copy-2" transform="translate(-515.000000, -5473.000000)">
            <g id="7" transform="translate(515.000000, 5232.000000)">
                <g id="Group-5-Copy" transform="translate(0.000000, 235.000000)">
                    <g id="Group" transform="translate(0.000000, 229.000000)">
                        <g id="flowchart_user-copy-9">
                            <circle id="Oval-5-Copy-7" fill="url(#linearGradient-1)" opacity="0.129999995" cx="40" cy="40.3738318" r="40"></circle>
                            <g id="Group-2" transform="translate(17.196262, 17.943925)">
                                <path d="M16.0167854,35.7562154 L9.2126662,39.4676313 C8.81338565,39.6853425 8.45454946,39.9529637 8.12066832,40.2446795 C12.0876583,43.5895146 17.2086034,45.6074303 22.8036942,45.6074303 C28.3574802,45.6074303 33.4457256,43.6196327 37.4015288,40.3204051 C37.036669,40.0123395 36.6408305,39.7352526 36.2019661,39.5166809 L28.9159566,35.8741064 C27.9745495,35.4034028 27.3799312,34.4413432 27.3799312,33.3889292 L27.3799312,30.5302869 C27.5847346,30.2970865 27.8187956,29.997626 28.0692065,29.643953 C29.0622448,28.2413079 29.8134773,26.6983984 30.334091,25.0797632 C31.268614,24.7914896 31.9570287,23.9283896 31.9570287,22.9026516 L31.9570287,19.8512533 C31.9570287,19.1800489 31.6584289,18.5802675 31.1946094,18.1603346 L31.1946094,13.7493171 C31.1946094,13.7493171 32.1007353,6.88496161 22.8045548,6.88496161 C13.5083742,6.88496161 14.4145001,13.7493171 14.4145001,13.7493171 L14.4145001,18.1603346 C13.9498201,18.5802675 13.6520808,19.1800489 13.6520808,19.8512533 L13.6520808,22.9026516 C13.6520808,23.7063758 14.0745953,24.413722 14.7070764,24.8224682 C15.4694957,28.1414878 17.4658984,30.5302869 17.4658984,30.5302869 L17.4658984,33.3183666 C17.4650379,34.3337784 16.909143,35.2691619 16.0167854,35.7562154 Z" id="Shape" fill="#FFFFFF"></path>
                                <path d="M23.1935091,0.00339574497 C10.6015429,-0.211733862 0.218527599,9.821911 0.00339799231,22.4138771 C-0.118795624,29.5535985 3.06340152,35.9704844 8.13013402,40.2377953 C8.46143361,39.9486611 8.81682772,39.6836215 9.21180568,39.4684918 L16.0159249,35.7570759 C16.9082825,35.2700224 17.4641774,34.3346389 17.4641774,33.3175061 L17.4641774,30.5294264 C17.4641774,30.5294264 15.4669141,28.1406273 14.7053553,24.8216077 C14.0737348,24.4128614 13.6503597,23.7063758 13.6503597,22.9017911 L13.6503597,19.8503927 C13.6503597,19.1791884 13.9489596,18.579407 14.4127791,18.159474 L14.4127791,13.7484566 C14.4127791,13.7484566 13.5066532,6.88410109 22.8028337,6.88410109 C32.0990143,6.88410109 31.1928884,13.7484566 31.1928884,13.7484566 L31.1928884,18.159474 C31.6575683,18.579407 31.9553077,19.1791884 31.9553077,19.8503927 L31.9553077,22.9017911 C31.9553077,23.9275291 31.266893,24.790629 30.33237,25.0789027 C29.8117563,26.6975379 29.0605237,28.2404474 28.0674855,29.6430924 C27.8170746,29.9967655 27.5830136,30.2962259 27.3782102,30.5294264 L27.3782102,33.3880686 C27.3782102,34.4404827 27.9728284,35.4034028 28.9142356,35.8732459 L36.2002451,39.5158204 C36.6373885,39.734392 37.0323664,40.0106185 37.3963657,40.3178235 C42.3099259,36.2200348 45.4843784,30.0931436 45.6022694,23.1935068 C45.8191201,10.6015407 35.7863357,0.218525352 23.1935091,0.00339574497 Z" id="Shape-Copy-23" fill="url(#linearGradient-1)" opacity="0.800000012"></path>
                            </g>
                        </g>
                        <text id="User" font-family="SFUIDisplay-Regular, SF UI Display" font-size="14" font-weight="normal" line-spacing="24" letter-spacing="0.174999997" fill="#000000">
                            <tspan x="25" y="99">User</tspan>
                        </text>
                    </g>
                    <g id="Group-Copy-3" transform="translate(922.000000, 229.000000)">
                        <g id="flowchart_user-copy-10" transform="translate(13.000000, 0.000000)">
                            <g id="Kravatte" transform="translate(36.635514, 53.831776)"></g>
                            <circle id="Oval-5-Copy-8" fill="url(#linearGradient-2)" opacity="0.200000003" cx="40" cy="40" r="40"></circle>
                            <g id="Group-3" opacity="0" transform="translate(16.448598, 17.196262)">
                                <path d="M17.6333149,35.1548212 C18.0744656,34.6551203 18.3291938,34.0046585 18.3297761,33.3175525 L18.3297761,30.5294728 C18.3297761,30.5294728 16.3333733,28.1406736 15.570954,24.821654 C14.9384729,24.4129078 14.5159584,23.7055616 14.5159584,22.9018374 L14.5159584,19.8504391 C14.5159584,19.1792347 14.8136978,18.5794534 15.2783777,18.1595204 L15.2783777,13.7485029 C15.2783777,13.7485029 14.3722518,6.88414742 23.6684324,6.88414742 C32.9646129,6.88414742 32.058487,13.7485029 32.058487,13.7485029 L32.058487,18.1595204 C32.5223065,18.5794534 32.8209064,19.1792347 32.8209064,19.8504391 L32.8209064,22.9018374 C32.8209064,23.9275754 32.1324916,24.7906754 31.1979686,25.078949 C30.677355,26.6975842 29.9261224,28.2404937 28.9330841,29.6431388 C28.6826732,29.9968118 28.4486122,30.2962723 28.2438089,30.5294728 L28.2438089,33.388115 C28.2438089,34.0686696 28.4924603,34.7114408 28.9227467,35.207992 C26.6208108,37.7390231 23.3055952,41.5202558 23.3055952,41.5202558 C23.3055952,41.5202558 19.8486843,37.5767538 17.6333149,35.1548212 Z" id="Combined-Shape" fill="#FFFFFF"></path>
                                <path d="M23.9382989,0.0513826075 C11.3463327,-0.163746999 0.963317374,9.86989786 0.748187767,22.461864 C0.62599415,29.6015854 3.80819129,36.0184713 8.87492379,40.2857822 C9.20622339,39.996648 9.5616175,39.7316083 9.95659546,39.5164787 L16.7607147,35.8050627 C17.6530723,35.3180093 18.2089672,34.3826258 18.2089672,33.365493 L18.2089672,30.5774133 C18.2089672,30.5774133 16.2117039,28.1886141 15.4501451,24.8695946 C14.8185246,24.4608483 14.3951495,23.7543627 14.3951495,22.949778 L14.3951495,19.8983796 C14.3951495,19.2271752 14.6937494,18.6273939 15.1575688,18.2074609 L15.1575688,13.7964434 C15.1575688,13.7964434 14.2514429,6.93208795 23.5476235,6.93208795 C32.8438041,6.93208795 31.9376782,13.7964434 31.9376782,13.7964434 L31.9376782,18.2074609 C32.4023581,18.6273939 32.7000975,19.2271752 32.7000975,19.8983796 L32.7000975,22.949778 C32.7000975,23.9755159 32.0116827,24.8386159 31.0771597,25.1268896 C30.5565461,26.7455247 29.8053135,28.2884343 28.8122752,29.6910793 C28.5618644,30.0447524 28.3278034,30.3442128 28.123,30.5774133 L28.123,33.4360555 C28.123,34.4884695 28.7176182,35.4513897 29.6590254,35.9212327 L36.9450349,39.5638072 C37.3821782,39.7823789 37.7771562,40.0586053 38.1411555,40.3658104 C43.0547157,36.2680216 46.2291682,30.1411304 46.3470592,23.2414937 C46.5639099,10.6495276 36.5311255,0.266512214 23.9382989,0.0513826075 Z" id="Shape" fill="#6A7F91"></path>
                                <path d="M17.6759496,35.0806395 C17.4651637,35.3194012 17.2118172,35.523744 16.9232977,35.6812194 L10.1191785,39.3926354 C9.71989799,39.6103466 9.3610618,39.8779678 9.02718065,40.1696835 C12.9941706,43.5145187 18.1151158,45.5324344 23.7102066,45.5324344 C29.2639925,45.5324344 34.352238,43.5446368 38.3080412,40.2454092 C37.9431814,39.9373436 37.5473429,39.6602566 37.1084785,39.441685 L29.822469,35.7991105 C29.4898327,35.6327923 29.2004926,35.405129 28.9653814,35.1338103 C26.6634455,37.6648414 23.3482299,41.446074 23.3482299,41.446074 C23.3482299,41.446074 19.891319,37.502572 17.6759496,35.0806395 Z" id="Combined-Shape" fill-opacity="0.420855978" fill="#6A7F91"></path>
                                <polyline id="Path-25" stroke="#C0CFDB" stroke-width="1.5" points="17.4127902 35.3766578 23.0614353 41.270528 29.1929823 35.3766578"></polyline>
                                <g id="Kravatte" transform="translate(19.679069, 38.723329)" fill="#C0CFDB">
                                    <path d="M2.10073702,6.92423809 L2.35383301,3.03397632 L2.12533107,3.03397632 L0.562031105,0.15803485 L6.33404535,0.15803485 L4.90103655,3.03397632 L4.63796752,3.03397632 L4.83146025,7.03879442 C4.69936541,7.04104994 4.56699695,7.04218227 4.43436403,7.04218227 C3.64651825,7.04218227 2.86800405,7.00222901 2.10073702,6.92423809 Z" id="Combined-Shape"></path>
                                </g>
                            </g>
                            <g id="exchange" transform="translate(20.186916, 20.934579)" fill-rule="nonzero">
                                <path d="M19.8776197,20.6353181 C20.6190508,18.8743256 21.2475818,17.4928654 21.7634667,16.4911072 C22.1503592,15.7480015 22.5133674,15.1218708 22.8518984,14.612885 C23.1900905,14.1038991 23.6014603,13.6070522 24.0849065,13.1224291 C24.5689457,12.6376362 25.1248072,12.2737232 25.7538464,12.0316239 C26.3822079,11.7892699 27.0833236,11.6680504 27.8575321,11.6680504 L31.0568195,11.6680504 L31.0568195,16.321417 C31.0568195,16.5314288 31.1333002,16.7133429 31.2863464,16.8666498 C31.4393925,17.0202114 31.6208119,17.0968649 31.8300964,17.0968649 C32.0561507,17.0968649 32.2416355,17.0243709 32.3859579,16.8788736 L40.1242319,9.12363058 C40.2697401,8.9780484 40.3421554,8.79248419 40.3421554,8.56617394 C40.3421554,8.33986369 40.2697401,8.15421459 40.1242319,8.00812309 L32.4103505,0.276733461 C32.2173277,0.115277313 32.0231192,0.0348887891 31.8300117,0.0348887891 C31.6039574,0.0348887891 31.4189807,0.107467657 31.2735572,0.253049831 C31.1292348,0.398462229 31.0567348,0.584111333 31.0567348,0.810336693 L31.0567348,5.46336367 L27.8574474,5.46336367 C26.7609696,5.46336367 25.7293692,5.5969767 24.7618838,5.86352365 C23.7943984,6.1300706 22.9358324,6.46919642 22.1863551,6.88141044 C21.4366238,7.29345468 20.711285,7.84675183 20.0099153,8.54164143 C19.3086303,9.23619149 18.7120298,9.90697302 18.2206221,10.5532221 C17.729045,11.1993013 17.2129907,12.0070914 16.673052,12.9766771 C16.133198,13.9460931 15.6978592,14.7944595 15.3673744,15.5214366 C15.0368049,16.2485834 14.6378855,17.1453357 14.1704468,18.2117781 C13.4287617,19.9728556 12.8000613,21.3544856 12.2842611,22.3561588 C11.8974533,23.0992646 11.5344451,23.725565 11.1961682,24.234466 C10.857722,24.7434518 10.4463522,25.2402139 9.96282126,25.724837 C9.47912091,26.2099694 8.92292056,26.5736277 8.29422021,26.8159817 C7.66568925,27.0582508 6.96423481,27.17964 6.19053446,27.17964 L0.774039136,27.17964 C0.548238902,27.17964 0.362754089,27.2517096 0.217838785,27.3974615 C0.0730928738,27.5427042 0.000338785047,27.7280986 0.000338785047,27.9545786 L0.000338785047,32.6083696 C0.000338785047,32.8344252 0.0733469626,33.0203289 0.218431659,33.1660809 C0.363601051,33.3114084 0.549170561,33.3839873 0.774632009,33.3839873 L6.19129673,33.3839873 C7.28777453,33.3839873 8.3192903,33.2503742 9.286691,32.9836575 C10.2539223,32.7169408 11.112573,32.3776452 11.8619655,31.9657707 C12.6117815,31.5535567 13.3371203,31.0000898 14.0384054,30.3052002 C14.739521,29.6109048 15.3362909,28.9398686 15.827868,28.2938742 C16.3192757,27.6474554 16.8352453,26.8398351 17.3753534,25.870504 C17.9152074,24.9007485 18.3507155,24.0525519 18.681031,23.3256597 C19.0112617,22.5985128 19.4100964,21.7020153 19.8776197,20.6353181 Z" id="Shape-Copy-24" fill="url(#linearGradient-2)"></path>
                                <path d="M0.77370035,11.6677958 L6.19036507,11.6677958 C6.89969626,11.6677958 7.55651577,11.7850255 8.16116238,12.019485 C8.765809,12.2539444 9.27356308,12.5365351 9.68459404,12.8679362 C10.0957097,13.1993372 10.5067407,13.6556079 10.9178563,14.2371726 C11.3288873,14.8190768 11.6553914,15.3322222 11.8971992,15.776269 C12.1388376,16.2207403 12.4370532,16.8065494 12.7917611,17.5335265 C14.0333236,14.609065 15.1373394,12.4036012 16.1046554,10.917135 C13.5253154,7.28182508 10.220552,5.463873 6.19028037,5.463873 L0.77370035,5.463873 C0.547900117,5.463873 0.362415304,5.53645186 0.2175,5.68203404 C0.0727540888,5.82727666 0,6.01292576 0,6.23923601 L0,10.8926025 C0,11.1189977 0.0724153037,11.3043921 0.2175,11.4497196 C0.362754089,11.5953018 0.548238902,11.6677958 0.77370035,11.6677958 Z" id="Shape" fill="#FFFFFF"></path>
                                <path d="M32.4109433,21.9930947 C32.2173277,21.8316386 32.023712,21.7514198 31.8300964,21.7514198 C31.6046349,21.7514198 31.4190654,21.823744 31.2742348,21.9692413 C31.1293195,22.1144839 31.0569042,22.3003877 31.0569042,22.5263584 L31.0569042,27.1801494 L27.8570239,27.1801494 C27.1474387,27.1801494 26.4907039,27.0627499 25.8860572,26.8281206 C25.2814106,26.5939158 24.7735718,26.3113251 24.3626256,25.9798392 C23.9519334,25.6486928 23.5406484,25.1920826 23.1296174,24.6101783 C22.7183324,24.0285288 22.3916589,23.5152985 22.1499357,23.0707424 C21.908382,22.6271199 21.6101665,22.0406318 21.2554585,21.314164 C20.0142348,24.2223271 18.9181805,26.4277909 17.9668721,27.9305554 C18.4019568,28.5605909 18.8533879,29.1221222 19.3209112,29.614555 C19.7882652,30.1072424 20.2317348,30.5394899 20.6508119,30.9112974 C21.0699737,31.2825956 21.5455432,31.606187 22.0774357,31.8803738 C22.6095824,32.1551549 23.0768516,32.3852851 23.4802599,32.5712737 C23.8843458,32.7570926 24.3915917,32.9064947 25.0039457,33.0197347 C25.6163843,33.1324654 26.1322693,33.2178623 26.5514311,33.2736334 C26.9705082,33.3299988 27.5429702,33.3706599 28.2683937,33.3951075 C28.9935631,33.4194703 29.5820327,33.4270253 30.0329556,33.4194703 C30.4848102,33.4113211 30.5413581,33.3828837 31.0573277,33.3828837 L31.0573277,38.0363351 C31.0573277,38.246347 31.1338084,38.4281761 31.2868546,38.581568 C31.4399007,38.7350447 31.6213201,38.8116982 31.8306046,38.8116982 C32.0566589,38.8116982 32.2421437,38.7391193 32.3864661,38.5938767 L40.1247401,30.8387185 C40.2696554,30.6928817 40.3420707,30.5075721 40.3420707,30.2810072 C40.3420707,30.054697 40.2696554,29.8690479 40.1241472,29.7238901 L32.4109433,21.9930947 Z" id="Shape" fill="#FFFFFF"></path>
                            </g>
                        </g>
                        <text id="Fund-Manager-A" font-family="SFUIDisplay-Regular, SF UI Display" font-size="14" font-weight="normal" line-spacing="24" letter-spacing="0.174999997" fill="#000000">
                            <tspan x="0" y="99">Fund Manager A</tspan>
                        </text>
                    </g>
                    <g id="Group-Copy" transform="translate(0.000000, 404.000000)">
                        <g id="flowchart_user-copy-9">
                            <circle id="Oval-5-Copy-9" fill="url(#linearGradient-1)" opacity="0.129999995" cx="40" cy="40.3738318" r="40"></circle>
                            <g id="Group-2" transform="translate(17.196262, 17.943925)">
                                <path d="M16.0167854,35.7562154 L9.2126662,39.4676313 C8.81338565,39.6853425 8.45454946,39.9529637 8.12066832,40.2446795 C12.0876583,43.5895146 17.2086034,45.6074303 22.8036942,45.6074303 C28.3574802,45.6074303 33.4457256,43.6196327 37.4015288,40.3204051 C37.036669,40.0123395 36.6408305,39.7352526 36.2019661,39.5166809 L28.9159566,35.8741064 C27.9745495,35.4034028 27.3799312,34.4413432 27.3799312,33.3889292 L27.3799312,30.5302869 C27.5847346,30.2970865 27.8187956,29.997626 28.0692065,29.643953 C29.0622448,28.2413079 29.8134773,26.6983984 30.334091,25.0797632 C31.268614,24.7914896 31.9570287,23.9283896 31.9570287,22.9026516 L31.9570287,19.8512533 C31.9570287,19.1800489 31.6584289,18.5802675 31.1946094,18.1603346 L31.1946094,13.7493171 C31.1946094,13.7493171 32.1007353,6.88496161 22.8045548,6.88496161 C13.5083742,6.88496161 14.4145001,13.7493171 14.4145001,13.7493171 L14.4145001,18.1603346 C13.9498201,18.5802675 13.6520808,19.1800489 13.6520808,19.8512533 L13.6520808,22.9026516 C13.6520808,23.7063758 14.0745953,24.413722 14.7070764,24.8224682 C15.4694957,28.1414878 17.4658984,30.5302869 17.4658984,30.5302869 L17.4658984,33.3183666 C17.4650379,34.3337784 16.909143,35.2691619 16.0167854,35.7562154 Z" id="Shape" fill="#FFFFFF"></path>
                                <path d="M23.1935091,0.00339574497 C10.6015429,-0.211733862 0.218527599,9.821911 0.00339799231,22.4138771 C-0.118795624,29.5535985 3.06340152,35.9704844 8.13013402,40.2377953 C8.46143361,39.9486611 8.81682772,39.6836215 9.21180568,39.4684918 L16.0159249,35.7570759 C16.9082825,35.2700224 17.4641774,34.3346389 17.4641774,33.3175061 L17.4641774,30.5294264 C17.4641774,30.5294264 15.4669141,28.1406273 14.7053553,24.8216077 C14.0737348,24.4128614 13.6503597,23.7063758 13.6503597,22.9017911 L13.6503597,19.8503927 C13.6503597,19.1791884 13.9489596,18.579407 14.4127791,18.159474 L14.4127791,13.7484566 C14.4127791,13.7484566 13.5066532,6.88410109 22.8028337,6.88410109 C32.0990143,6.88410109 31.1928884,13.7484566 31.1928884,13.7484566 L31.1928884,18.159474 C31.6575683,18.579407 31.9553077,19.1791884 31.9553077,19.8503927 L31.9553077,22.9017911 C31.9553077,23.9275291 31.266893,24.790629 30.33237,25.0789027 C29.8117563,26.6975379 29.0605237,28.2404474 28.0674855,29.6430924 C27.8170746,29.9967655 27.5830136,30.2962259 27.3782102,30.5294264 L27.3782102,33.3880686 C27.3782102,34.4404827 27.9728284,35.4034028 28.9142356,35.8732459 L36.2002451,39.5158204 C36.6373885,39.734392 37.0323664,40.0106185 37.3963657,40.3178235 C42.3099259,36.2200348 45.4843784,30.0931436 45.6022694,23.1935068 C45.8191201,10.6015407 35.7863357,0.218525352 23.1935091,0.00339574497 Z" id="Shape-Copy-25" fill="url(#linearGradient-1)" opacity="0.800000012"></path>
                            </g>
                        </g>
                        <text id="User" font-family="SFUIDisplay-Regular, SF UI Display" font-size="14" font-weight="normal" line-spacing="24" letter-spacing="0.174999997" fill="#000000">
                            <tspan x="25" y="99">User</tspan>
                        </text>
                    </g>
                    <g id="Group-Copy-4" transform="translate(921.000000, 404.000000)">
                        <g id="flowchart_user-copy-11" transform="translate(14.000000, 0.000000)">
                            <g id="Kravatte" transform="translate(36.635514, 53.831776)"></g>
                            <circle id="Oval-5-Copy-10" fill="url(#linearGradient-3)" opacity="0.200000003" cx="40" cy="40" r="40"></circle>
                            <g id="Group-3" opacity="0" transform="translate(16.448598, 17.196262)">
                                <path d="M17.6333149,35.1548212 C18.0744656,34.6551203 18.3291938,34.0046585 18.3297761,33.3175525 L18.3297761,30.5294728 C18.3297761,30.5294728 16.3333733,28.1406736 15.570954,24.821654 C14.9384729,24.4129078 14.5159584,23.7055616 14.5159584,22.9018374 L14.5159584,19.8504391 C14.5159584,19.1792347 14.8136978,18.5794534 15.2783777,18.1595204 L15.2783777,13.7485029 C15.2783777,13.7485029 14.3722518,6.88414742 23.6684324,6.88414742 C32.9646129,6.88414742 32.058487,13.7485029 32.058487,13.7485029 L32.058487,18.1595204 C32.5223065,18.5794534 32.8209064,19.1792347 32.8209064,19.8504391 L32.8209064,22.9018374 C32.8209064,23.9275754 32.1324916,24.7906754 31.1979686,25.078949 C30.677355,26.6975842 29.9261224,28.2404937 28.9330841,29.6431388 C28.6826732,29.9968118 28.4486122,30.2962723 28.2438089,30.5294728 L28.2438089,33.388115 C28.2438089,34.0686696 28.4924603,34.7114408 28.9227467,35.207992 C26.6208108,37.7390231 23.3055952,41.5202558 23.3055952,41.5202558 C23.3055952,41.5202558 19.8486843,37.5767538 17.6333149,35.1548212 Z" id="Combined-Shape" fill="#FFFFFF"></path>
                                <path d="M23.9382989,0.0513826075 C11.3463327,-0.163746999 0.963317374,9.86989786 0.748187767,22.461864 C0.62599415,29.6015854 3.80819129,36.0184713 8.87492379,40.2857822 C9.20622339,39.996648 9.5616175,39.7316083 9.95659546,39.5164787 L16.7607147,35.8050627 C17.6530723,35.3180093 18.2089672,34.3826258 18.2089672,33.365493 L18.2089672,30.5774133 C18.2089672,30.5774133 16.2117039,28.1886141 15.4501451,24.8695946 C14.8185246,24.4608483 14.3951495,23.7543627 14.3951495,22.949778 L14.3951495,19.8983796 C14.3951495,19.2271752 14.6937494,18.6273939 15.1575688,18.2074609 L15.1575688,13.7964434 C15.1575688,13.7964434 14.2514429,6.93208795 23.5476235,6.93208795 C32.8438041,6.93208795 31.9376782,13.7964434 31.9376782,13.7964434 L31.9376782,18.2074609 C32.4023581,18.6273939 32.7000975,19.2271752 32.7000975,19.8983796 L32.7000975,22.949778 C32.7000975,23.9755159 32.0116827,24.8386159 31.0771597,25.1268896 C30.5565461,26.7455247 29.8053135,28.2884343 28.8122752,29.6910793 C28.5618644,30.0447524 28.3278034,30.3442128 28.123,30.5774133 L28.123,33.4360555 C28.123,34.4884695 28.7176182,35.4513897 29.6590254,35.9212327 L36.9450349,39.5638072 C37.3821782,39.7823789 37.7771562,40.0586053 38.1411555,40.3658104 C43.0547157,36.2680216 46.2291682,30.1411304 46.3470592,23.2414937 C46.5639099,10.6495276 36.5311255,0.266512214 23.9382989,0.0513826075 Z" id="Shape" fill="#6A7F91"></path>
                                <path d="M17.6759496,35.0806395 C17.4651637,35.3194012 17.2118172,35.523744 16.9232977,35.6812194 L10.1191785,39.3926354 C9.71989799,39.6103466 9.3610618,39.8779678 9.02718065,40.1696835 C12.9941706,43.5145187 18.1151158,45.5324344 23.7102066,45.5324344 C29.2639925,45.5324344 34.352238,43.5446368 38.3080412,40.2454092 C37.9431814,39.9373436 37.5473429,39.6602566 37.1084785,39.441685 L29.822469,35.7991105 C29.4898327,35.6327923 29.2004926,35.405129 28.9653814,35.1338103 C26.6634455,37.6648414 23.3482299,41.446074 23.3482299,41.446074 C23.3482299,41.446074 19.891319,37.502572 17.6759496,35.0806395 Z" id="Combined-Shape" fill-opacity="0.420855978" fill="#6A7F91"></path>
                                <polyline id="Path-25" stroke="#C0CFDB" stroke-width="1.5" points="17.4127902 35.3766578 23.0614353 41.270528 29.1929823 35.3766578"></polyline>
                                <g id="Kravatte" transform="translate(19.679069, 38.723329)" fill="#C0CFDB">
                                    <path d="M2.10073702,6.92423809 L2.35383301,3.03397632 L2.12533107,3.03397632 L0.562031105,0.15803485 L6.33404535,0.15803485 L4.90103655,3.03397632 L4.63796752,3.03397632 L4.83146025,7.03879442 C4.69936541,7.04104994 4.56699695,7.04218227 4.43436403,7.04218227 C3.64651825,7.04218227 2.86800405,7.00222901 2.10073702,6.92423809 Z" id="Combined-Shape"></path>
                                </g>
                            </g>
                            <g id="exchange" transform="translate(20.186916, 20.934579)" fill-rule="nonzero">
                                <path d="M19.8776197,20.6353181 C20.6190508,18.8743256 21.2475818,17.4928654 21.7634667,16.4911072 C22.1503592,15.7480015 22.5133674,15.1218708 22.8518984,14.612885 C23.1900905,14.1038991 23.6014603,13.6070522 24.0849065,13.1224291 C24.5689457,12.6376362 25.1248072,12.2737232 25.7538464,12.0316239 C26.3822079,11.7892699 27.0833236,11.6680504 27.8575321,11.6680504 L31.0568195,11.6680504 L31.0568195,16.321417 C31.0568195,16.5314288 31.1333002,16.7133429 31.2863464,16.8666498 C31.4393925,17.0202114 31.6208119,17.0968649 31.8300964,17.0968649 C32.0561507,17.0968649 32.2416355,17.0243709 32.3859579,16.8788736 L40.1242319,9.12363058 C40.2697401,8.9780484 40.3421554,8.79248419 40.3421554,8.56617394 C40.3421554,8.33986369 40.2697401,8.15421459 40.1242319,8.00812309 L32.4103505,0.276733461 C32.2173277,0.115277313 32.0231192,0.0348887891 31.8300117,0.0348887891 C31.6039574,0.0348887891 31.4189807,0.107467657 31.2735572,0.253049831 C31.1292348,0.398462229 31.0567348,0.584111333 31.0567348,0.810336693 L31.0567348,5.46336367 L27.8574474,5.46336367 C26.7609696,5.46336367 25.7293692,5.5969767 24.7618838,5.86352365 C23.7943984,6.1300706 22.9358324,6.46919642 22.1863551,6.88141044 C21.4366238,7.29345468 20.711285,7.84675183 20.0099153,8.54164143 C19.3086303,9.23619149 18.7120298,9.90697302 18.2206221,10.5532221 C17.729045,11.1993013 17.2129907,12.0070914 16.673052,12.9766771 C16.133198,13.9460931 15.6978592,14.7944595 15.3673744,15.5214366 C15.0368049,16.2485834 14.6378855,17.1453357 14.1704468,18.2117781 C13.4287617,19.9728556 12.8000613,21.3544856 12.2842611,22.3561588 C11.8974533,23.0992646 11.5344451,23.725565 11.1961682,24.234466 C10.857722,24.7434518 10.4463522,25.2402139 9.96282126,25.724837 C9.47912091,26.2099694 8.92292056,26.5736277 8.29422021,26.8159817 C7.66568925,27.0582508 6.96423481,27.17964 6.19053446,27.17964 L0.774039136,27.17964 C0.548238902,27.17964 0.362754089,27.2517096 0.217838785,27.3974615 C0.0730928738,27.5427042 0.000338785047,27.7280986 0.000338785047,27.9545786 L0.000338785047,32.6083696 C0.000338785047,32.8344252 0.0733469626,33.0203289 0.218431659,33.1660809 C0.363601051,33.3114084 0.549170561,33.3839873 0.774632009,33.3839873 L6.19129673,33.3839873 C7.28777453,33.3839873 8.3192903,33.2503742 9.286691,32.9836575 C10.2539223,32.7169408 11.112573,32.3776452 11.8619655,31.9657707 C12.6117815,31.5535567 13.3371203,31.0000898 14.0384054,30.3052002 C14.739521,29.6109048 15.3362909,28.9398686 15.827868,28.2938742 C16.3192757,27.6474554 16.8352453,26.8398351 17.3753534,25.870504 C17.9152074,24.9007485 18.3507155,24.0525519 18.681031,23.3256597 C19.0112617,22.5985128 19.4100964,21.7020153 19.8776197,20.6353181 Z" id="Shape-Copy-26" fill="url(#linearGradient-3)"></path>
                                <path d="M0.77370035,11.6677958 L6.19036507,11.6677958 C6.89969626,11.6677958 7.55651577,11.7850255 8.16116238,12.019485 C8.765809,12.2539444 9.27356308,12.5365351 9.68459404,12.8679362 C10.0957097,13.1993372 10.5067407,13.6556079 10.9178563,14.2371726 C11.3288873,14.8190768 11.6553914,15.3322222 11.8971992,15.776269 C12.1388376,16.2207403 12.4370532,16.8065494 12.7917611,17.5335265 C14.0333236,14.609065 15.1373394,12.4036012 16.1046554,10.917135 C13.5253154,7.28182508 10.220552,5.463873 6.19028037,5.463873 L0.77370035,5.463873 C0.547900117,5.463873 0.362415304,5.53645186 0.2175,5.68203404 C0.0727540888,5.82727666 0,6.01292576 0,6.23923601 L0,10.8926025 C0,11.1189977 0.0724153037,11.3043921 0.2175,11.4497196 C0.362754089,11.5953018 0.548238902,11.6677958 0.77370035,11.6677958 Z" id="Shape" fill="#FFFFFF"></path>
                                <path d="M32.4109433,21.9930947 C32.2173277,21.8316386 32.023712,21.7514198 31.8300964,21.7514198 C31.6046349,21.7514198 31.4190654,21.823744 31.2742348,21.9692413 C31.1293195,22.1144839 31.0569042,22.3003877 31.0569042,22.5263584 L31.0569042,27.1801494 L27.8570239,27.1801494 C27.1474387,27.1801494 26.4907039,27.0627499 25.8860572,26.8281206 C25.2814106,26.5939158 24.7735718,26.3113251 24.3626256,25.9798392 C23.9519334,25.6486928 23.5406484,25.1920826 23.1296174,24.6101783 C22.7183324,24.0285288 22.3916589,23.5152985 22.1499357,23.0707424 C21.908382,22.6271199 21.6101665,22.0406318 21.2554585,21.314164 C20.0142348,24.2223271 18.9181805,26.4277909 17.9668721,27.9305554 C18.4019568,28.5605909 18.8533879,29.1221222 19.3209112,29.614555 C19.7882652,30.1072424 20.2317348,30.5394899 20.6508119,30.9112974 C21.0699737,31.2825956 21.5455432,31.606187 22.0774357,31.8803738 C22.6095824,32.1551549 23.0768516,32.3852851 23.4802599,32.5712737 C23.8843458,32.7570926 24.3915917,32.9064947 25.0039457,33.0197347 C25.6163843,33.1324654 26.1322693,33.2178623 26.5514311,33.2736334 C26.9705082,33.3299988 27.5429702,33.3706599 28.2683937,33.3951075 C28.9935631,33.4194703 29.5820327,33.4270253 30.0329556,33.4194703 C30.4848102,33.4113211 30.5413581,33.3828837 31.0573277,33.3828837 L31.0573277,38.0363351 C31.0573277,38.246347 31.1338084,38.4281761 31.2868546,38.581568 C31.4399007,38.7350447 31.6213201,38.8116982 31.8306046,38.8116982 C32.0566589,38.8116982 32.2421437,38.7391193 32.3864661,38.5938767 L40.1247401,30.8387185 C40.2696554,30.6928817 40.3420707,30.5075721 40.3420707,30.2810072 C40.3420707,30.054697 40.2696554,29.8690479 40.1241472,29.7238901 L32.4109433,21.9930947 Z" id="Shape" fill="#FFFFFF"></path>
                            </g>
                        </g>
                        <text id="Fund-Manager-B" font-family="SFUIDisplay-Regular, SF UI Display" font-size="14" font-weight="normal" line-spacing="24" letter-spacing="0.174999997" fill="#000000">
                            <tspan x="0" y="99">Fund Manager B</tspan>
                        </text>
                    </g>
                    <g id="Group-Copy-2" transform="translate(0.000000, 579.000000)">
                        <g id="flowchart_user-copy-9">
                            <circle id="Oval-5-Copy-11" fill="url(#linearGradient-1)" opacity="0.129999995" cx="40" cy="40.3738318" r="40"></circle>
                            <g id="Group-2" transform="translate(17.196262, 17.943925)">
                                <path d="M16.0167854,35.7562154 L9.2126662,39.4676313 C8.81338565,39.6853425 8.45454946,39.9529637 8.12066832,40.2446795 C12.0876583,43.5895146 17.2086034,45.6074303 22.8036942,45.6074303 C28.3574802,45.6074303 33.4457256,43.6196327 37.4015288,40.3204051 C37.036669,40.0123395 36.6408305,39.7352526 36.2019661,39.5166809 L28.9159566,35.8741064 C27.9745495,35.4034028 27.3799312,34.4413432 27.3799312,33.3889292 L27.3799312,30.5302869 C27.5847346,30.2970865 27.8187956,29.997626 28.0692065,29.643953 C29.0622448,28.2413079 29.8134773,26.6983984 30.334091,25.0797632 C31.268614,24.7914896 31.9570287,23.9283896 31.9570287,22.9026516 L31.9570287,19.8512533 C31.9570287,19.1800489 31.6584289,18.5802675 31.1946094,18.1603346 L31.1946094,13.7493171 C31.1946094,13.7493171 32.1007353,6.88496161 22.8045548,6.88496161 C13.5083742,6.88496161 14.4145001,13.7493171 14.4145001,13.7493171 L14.4145001,18.1603346 C13.9498201,18.5802675 13.6520808,19.1800489 13.6520808,19.8512533 L13.6520808,22.9026516 C13.6520808,23.7063758 14.0745953,24.413722 14.7070764,24.8224682 C15.4694957,28.1414878 17.4658984,30.5302869 17.4658984,30.5302869 L17.4658984,33.3183666 C17.4650379,34.3337784 16.909143,35.2691619 16.0167854,35.7562154 Z" id="Shape" fill="#FFFFFF"></path>
                                <path d="M23.1935091,0.00339574497 C10.6015429,-0.211733862 0.218527599,9.821911 0.00339799231,22.4138771 C-0.118795624,29.5535985 3.06340152,35.9704844 8.13013402,40.2377953 C8.46143361,39.9486611 8.81682772,39.6836215 9.21180568,39.4684918 L16.0159249,35.7570759 C16.9082825,35.2700224 17.4641774,34.3346389 17.4641774,33.3175061 L17.4641774,30.5294264 C17.4641774,30.5294264 15.4669141,28.1406273 14.7053553,24.8216077 C14.0737348,24.4128614 13.6503597,23.7063758 13.6503597,22.9017911 L13.6503597,19.8503927 C13.6503597,19.1791884 13.9489596,18.579407 14.4127791,18.159474 L14.4127791,13.7484566 C14.4127791,13.7484566 13.5066532,6.88410109 22.8028337,6.88410109 C32.0990143,6.88410109 31.1928884,13.7484566 31.1928884,13.7484566 L31.1928884,18.159474 C31.6575683,18.579407 31.9553077,19.1791884 31.9553077,19.8503927 L31.9553077,22.9017911 C31.9553077,23.9275291 31.266893,24.790629 30.33237,25.0789027 C29.8117563,26.6975379 29.0605237,28.2404474 28.0674855,29.6430924 C27.8170746,29.9967655 27.5830136,30.2962259 27.3782102,30.5294264 L27.3782102,33.3880686 C27.3782102,34.4404827 27.9728284,35.4034028 28.9142356,35.8732459 L36.2002451,39.5158204 C36.6373885,39.734392 37.0323664,40.0106185 37.3963657,40.3178235 C42.3099259,36.2200348 45.4843784,30.0931436 45.6022694,23.1935068 C45.8191201,10.6015407 35.7863357,0.218525352 23.1935091,0.00339574497 Z" id="Shape-Copy-27" fill="url(#linearGradient-1)" opacity="0.800000012"></path>
                            </g>
                        </g>
                        <text id="User" font-family="SFUIDisplay-Regular, SF UI Display" font-size="14" font-weight="normal" line-spacing="24" letter-spacing="0.174999997" fill="#000000">
                            <tspan x="25" y="99">User</tspan>
                        </text>
                    </g>
                    <g id="Group-Copy-5" transform="translate(922.000000, 579.000000)">
                        <g id="flowchart_user-copy-12" transform="translate(13.000000, 0.000000)">
                            <g id="Kravatte" transform="translate(36.635514, 53.831776)"></g>
                            <circle id="Oval-5-Copy-12" fill="url(#linearGradient-4)" opacity="0.300000012" cx="40" cy="40" r="40"></circle>
                            <g id="Group-3" opacity="0" transform="translate(16.448598, 17.196262)">
                                <path d="M17.6333149,35.1548212 C18.0744656,34.6551203 18.3291938,34.0046585 18.3297761,33.3175525 L18.3297761,30.5294728 C18.3297761,30.5294728 16.3333733,28.1406736 15.570954,24.821654 C14.9384729,24.4129078 14.5159584,23.7055616 14.5159584,22.9018374 L14.5159584,19.8504391 C14.5159584,19.1792347 14.8136978,18.5794534 15.2783777,18.1595204 L15.2783777,13.7485029 C15.2783777,13.7485029 14.3722518,6.88414742 23.6684324,6.88414742 C32.9646129,6.88414742 32.058487,13.7485029 32.058487,13.7485029 L32.058487,18.1595204 C32.5223065,18.5794534 32.8209064,19.1792347 32.8209064,19.8504391 L32.8209064,22.9018374 C32.8209064,23.9275754 32.1324916,24.7906754 31.1979686,25.078949 C30.677355,26.6975842 29.9261224,28.2404937 28.9330841,29.6431388 C28.6826732,29.9968118 28.4486122,30.2962723 28.2438089,30.5294728 L28.2438089,33.388115 C28.2438089,34.0686696 28.4924603,34.7114408 28.9227467,35.207992 C26.6208108,37.7390231 23.3055952,41.5202558 23.3055952,41.5202558 C23.3055952,41.5202558 19.8486843,37.5767538 17.6333149,35.1548212 Z" id="Combined-Shape" fill="#FFFFFF"></path>
                                <path d="M23.9382989,0.0513826075 C11.3463327,-0.163746999 0.963317374,9.86989786 0.748187767,22.461864 C0.62599415,29.6015854 3.80819129,36.0184713 8.87492379,40.2857822 C9.20622339,39.996648 9.5616175,39.7316083 9.95659546,39.5164787 L16.7607147,35.8050627 C17.6530723,35.3180093 18.2089672,34.3826258 18.2089672,33.365493 L18.2089672,30.5774133 C18.2089672,30.5774133 16.2117039,28.1886141 15.4501451,24.8695946 C14.8185246,24.4608483 14.3951495,23.7543627 14.3951495,22.949778 L14.3951495,19.8983796 C14.3951495,19.2271752 14.6937494,18.6273939 15.1575688,18.2074609 L15.1575688,13.7964434 C15.1575688,13.7964434 14.2514429,6.93208795 23.5476235,6.93208795 C32.8438041,6.93208795 31.9376782,13.7964434 31.9376782,13.7964434 L31.9376782,18.2074609 C32.4023581,18.6273939 32.7000975,19.2271752 32.7000975,19.8983796 L32.7000975,22.949778 C32.7000975,23.9755159 32.0116827,24.8386159 31.0771597,25.1268896 C30.5565461,26.7455247 29.8053135,28.2884343 28.8122752,29.6910793 C28.5618644,30.0447524 28.3278034,30.3442128 28.123,30.5774133 L28.123,33.4360555 C28.123,34.4884695 28.7176182,35.4513897 29.6590254,35.9212327 L36.9450349,39.5638072 C37.3821782,39.7823789 37.7771562,40.0586053 38.1411555,40.3658104 C43.0547157,36.2680216 46.2291682,30.1411304 46.3470592,23.2414937 C46.5639099,10.6495276 36.5311255,0.266512214 23.9382989,0.0513826075 Z" id="Shape" fill="#6A7F91" opacity="0.200000003"></path>
                                <path d="M17.6759496,35.0806395 C17.4651637,35.3194012 17.2118172,35.523744 16.9232977,35.6812194 L10.1191785,39.3926354 C9.71989799,39.6103466 9.3610618,39.8779678 9.02718065,40.1696835 C12.9941706,43.5145187 18.1151158,45.5324344 23.7102066,45.5324344 C29.2639925,45.5324344 34.352238,43.5446368 38.3080412,40.2454092 C37.9431814,39.9373436 37.5473429,39.6602566 37.1084785,39.441685 L29.822469,35.7991105 C29.4898327,35.6327923 29.2004926,35.405129 28.9653814,35.1338103 C26.6634455,37.6648414 23.3482299,41.446074 23.3482299,41.446074 C23.3482299,41.446074 19.891319,37.502572 17.6759496,35.0806395 Z" id="Combined-Shape" fill-opacity="0.420855978" fill="#6A7F91"></path>
                                <polyline id="Path-25" stroke="#C0CFDB" stroke-width="1.5" points="17.4127902 35.3766578 23.0614353 41.270528 29.1929823 35.3766578"></polyline>
                                <g id="Kravatte" transform="translate(19.679069, 38.723329)" fill="#C0CFDB">
                                    <path d="M2.10073702,6.92423809 L2.35383301,3.03397632 L2.12533107,3.03397632 L0.562031105,0.15803485 L6.33404535,0.15803485 L4.90103655,3.03397632 L4.63796752,3.03397632 L4.83146025,7.03879442 C4.69936541,7.04104994 4.56699695,7.04218227 4.43436403,7.04218227 C3.64651825,7.04218227 2.86800405,7.00222901 2.10073702,6.92423809 Z" id="Combined-Shape"></path>
                                </g>
                            </g>
                            <g id="exchange" transform="translate(20.186916, 20.934579)" fill-rule="nonzero">
                                <path d="M19.8776197,20.6353181 C20.6190508,18.8743256 21.2475818,17.4928654 21.7634667,16.4911072 C22.1503592,15.7480015 22.5133674,15.1218708 22.8518984,14.612885 C23.1900905,14.1038991 23.6014603,13.6070522 24.0849065,13.1224291 C24.5689457,12.6376362 25.1248072,12.2737232 25.7538464,12.0316239 C26.3822079,11.7892699 27.0833236,11.6680504 27.8575321,11.6680504 L31.0568195,11.6680504 L31.0568195,16.321417 C31.0568195,16.5314288 31.1333002,16.7133429 31.2863464,16.8666498 C31.4393925,17.0202114 31.6208119,17.0968649 31.8300964,17.0968649 C32.0561507,17.0968649 32.2416355,17.0243709 32.3859579,16.8788736 L40.1242319,9.12363058 C40.2697401,8.9780484 40.3421554,8.79248419 40.3421554,8.56617394 C40.3421554,8.33986369 40.2697401,8.15421459 40.1242319,8.00812309 L32.4103505,0.276733461 C32.2173277,0.115277313 32.0231192,0.0348887891 31.8300117,0.0348887891 C31.6039574,0.0348887891 31.4189807,0.107467657 31.2735572,0.253049831 C31.1292348,0.398462229 31.0567348,0.584111333 31.0567348,0.810336693 L31.0567348,5.46336367 L27.8574474,5.46336367 C26.7609696,5.46336367 25.7293692,5.5969767 24.7618838,5.86352365 C23.7943984,6.1300706 22.9358324,6.46919642 22.1863551,6.88141044 C21.4366238,7.29345468 20.711285,7.84675183 20.0099153,8.54164143 C19.3086303,9.23619149 18.7120298,9.90697302 18.2206221,10.5532221 C17.729045,11.1993013 17.2129907,12.0070914 16.673052,12.9766771 C16.133198,13.9460931 15.6978592,14.7944595 15.3673744,15.5214366 C15.0368049,16.2485834 14.6378855,17.1453357 14.1704468,18.2117781 C13.4287617,19.9728556 12.8000613,21.3544856 12.2842611,22.3561588 C11.8974533,23.0992646 11.5344451,23.725565 11.1961682,24.234466 C10.857722,24.7434518 10.4463522,25.2402139 9.96282126,25.724837 C9.47912091,26.2099694 8.92292056,26.5736277 8.29422021,26.8159817 C7.66568925,27.0582508 6.96423481,27.17964 6.19053446,27.17964 L0.774039136,27.17964 C0.548238902,27.17964 0.362754089,27.2517096 0.217838785,27.3974615 C0.0730928738,27.5427042 0.000338785047,27.7280986 0.000338785047,27.9545786 L0.000338785047,32.6083696 C0.000338785047,32.8344252 0.0733469626,33.0203289 0.218431659,33.1660809 C0.363601051,33.3114084 0.549170561,33.3839873 0.774632009,33.3839873 L6.19129673,33.3839873 C7.28777453,33.3839873 8.3192903,33.2503742 9.286691,32.9836575 C10.2539223,32.7169408 11.112573,32.3776452 11.8619655,31.9657707 C12.6117815,31.5535567 13.3371203,31.0000898 14.0384054,30.3052002 C14.739521,29.6109048 15.3362909,28.9398686 15.827868,28.2938742 C16.3192757,27.6474554 16.8352453,26.8398351 17.3753534,25.870504 C17.9152074,24.9007485 18.3507155,24.0525519 18.681031,23.3256597 C19.0112617,22.5985128 19.4100964,21.7020153 19.8776197,20.6353181 Z" id="Shape-Copy-28" fill="url(#linearGradient-4)"></path>
                                <path d="M0.77370035,11.6677958 L6.19036507,11.6677958 C6.89969626,11.6677958 7.55651577,11.7850255 8.16116238,12.019485 C8.765809,12.2539444 9.27356308,12.5365351 9.68459404,12.8679362 C10.0957097,13.1993372 10.5067407,13.6556079 10.9178563,14.2371726 C11.3288873,14.8190768 11.6553914,15.3322222 11.8971992,15.776269 C12.1388376,16.2207403 12.4370532,16.8065494 12.7917611,17.5335265 C14.0333236,14.609065 15.1373394,12.4036012 16.1046554,10.917135 C13.5253154,7.28182508 10.220552,5.463873 6.19028037,5.463873 L0.77370035,5.463873 C0.547900117,5.463873 0.362415304,5.53645186 0.2175,5.68203404 C0.0727540888,5.82727666 0,6.01292576 0,6.23923601 L0,10.8926025 C0,11.1189977 0.0724153037,11.3043921 0.2175,11.4497196 C0.362754089,11.5953018 0.548238902,11.6677958 0.77370035,11.6677958 Z" id="Shape" fill="#FFFFFF"></path>
                                <path d="M32.4109433,21.9930947 C32.2173277,21.8316386 32.023712,21.7514198 31.8300964,21.7514198 C31.6046349,21.7514198 31.4190654,21.823744 31.2742348,21.9692413 C31.1293195,22.1144839 31.0569042,22.3003877 31.0569042,22.5263584 L31.0569042,27.1801494 L27.8570239,27.1801494 C27.1474387,27.1801494 26.4907039,27.0627499 25.8860572,26.8281206 C25.2814106,26.5939158 24.7735718,26.3113251 24.3626256,25.9798392 C23.9519334,25.6486928 23.5406484,25.1920826 23.1296174,24.6101783 C22.7183324,24.0285288 22.3916589,23.5152985 22.1499357,23.0707424 C21.908382,22.6271199 21.6101665,22.0406318 21.2554585,21.314164 C20.0142348,24.2223271 18.9181805,26.4277909 17.9668721,27.9305554 C18.4019568,28.5605909 18.8533879,29.1221222 19.3209112,29.614555 C19.7882652,30.1072424 20.2317348,30.5394899 20.6508119,30.9112974 C21.0699737,31.2825956 21.5455432,31.606187 22.0774357,31.8803738 C22.6095824,32.1551549 23.0768516,32.3852851 23.4802599,32.5712737 C23.8843458,32.7570926 24.3915917,32.9064947 25.0039457,33.0197347 C25.6163843,33.1324654 26.1322693,33.2178623 26.5514311,33.2736334 C26.9705082,33.3299988 27.5429702,33.3706599 28.2683937,33.3951075 C28.9935631,33.4194703 29.5820327,33.4270253 30.0329556,33.4194703 C30.4848102,33.4113211 30.5413581,33.3828837 31.0573277,33.3828837 L31.0573277,38.0363351 C31.0573277,38.246347 31.1338084,38.4281761 31.2868546,38.581568 C31.4399007,38.7350447 31.6213201,38.8116982 31.8306046,38.8116982 C32.0566589,38.8116982 32.2421437,38.7391193 32.3864661,38.5938767 L40.1247401,30.8387185 C40.2696554,30.6928817 40.3420707,30.5075721 40.3420707,30.2810072 C40.3420707,30.054697 40.2696554,29.8690479 40.1241472,29.7238901 L32.4109433,21.9930947 Z" id="Shape" fill="#FFFFFF"></path>
                            </g>
                        </g>
                        <text id="Fund-Manager-C" font-family="SFUIDisplay-Regular, SF UI Display" font-size="14" font-weight="normal" line-spacing="24" letter-spacing="0.174999997" fill="#000000">
                            <tspan x="0" y="99">Fund Manager C</tspan>
                        </text>
                    </g>
                    <path d="M515.5,164.5 L515.5,629.814467" id="Line" stroke="#000000"></path>
                    <g id="contract" transform="translate(471.000000, 33.000000)">
                        <g>
                            <path d="M68.2261905,0 L0,0 L0,120 L88,120 L88,20.1526718 L68.2261905,20.1526718 L68.2261905,2.22044605e-16 Z" id="Combined-Shape-Copy-3" fill="url(#linearGradient-5)" opacity="0.449999988"></path>
                            <polygon id="XMLID_1239_-Copy" fill="url(#linearGradient-5)" fill-rule="nonzero" transform="translate(78.361905, 10.243902) scale(-1, 1) translate(-78.361905, -10.243902) " points="88.6285714 0 68.0952381 20.4878049 88.6285714 20.4878049"></polygon>
                            <path d="M44,95.7073171 C42.0522667,95.7073171 39.9605067,96.1955122 38.1333333,95.9795122 L38.1333333,111.219512 L44,108.292683 L49.8666667,111.219512 L49.8666667,95.9795122 C48.0392,96.1955122 45.9477333,95.7073171 44,95.7073171 Z" id="XMLID_1240_-Copy" fill="url(#linearGradient-5)" fill-rule="nonzero"></path>
                            <path d="M36.2249067,68.5156098 C33.9990933,69.8004878 33.3455467,72.852 32.0578133,75.0725854 C30.8093867,77.2252683 28.4533333,79.2851707 28.4533333,81.9512195 C28.4533333,84.6169756 30.8093867,86.6771707 32.0578133,88.8298537 C33.3455467,91.0507317 33.9990933,94.1019512 36.2249067,95.3868293 C36.8098133,95.7242927 37.45368,95.8993171 38.1333333,95.9792195 C39.9605067,96.1952195 42.0522667,95.7070244 44,95.7070244 C45.9477333,95.7070244 48.0392,96.1952195 49.8666667,95.9792195 C50.5460267,95.8993171 51.1901867,95.7242927 51.7750933,95.3868293 C54.0009067,94.1019512 54.6544533,91.0507317 55.9421867,88.8298537 C57.1906133,86.6771707 59.5466667,84.6172683 59.5466667,81.9512195 C59.5466667,79.2851707 57.1906133,77.2252683 55.9421867,75.0725854 C54.6544533,72.8517073 54.0006133,69.8001951 51.7750933,68.5153171 C49.6176267,67.2699512 46.67168,68.195122 44,68.195122 C41.32832,68.195122 38.3823733,67.2699512 36.2249067,68.5156098 Z M52.8,81.9512195 C52.8,86.8000976 48.8599467,90.7317073 44,90.7317073 C39.1400533,90.7317073 35.2,86.8000976 35.2,81.9512195 C35.2,77.1020488 39.1400533,73.1707317 44,73.1707317 C48.8599467,73.1707317 52.8,77.1020488 52.8,81.9512195 Z" id="XMLID_1241_" fill="#FFFFFF" fill-rule="nonzero"></path>
                            <ellipse id="XMLID_1244_-Copy" fill="url(#linearGradient-5)" fill-rule="nonzero" cx="44" cy="81.9512195" rx="8.8" ry="8.7804878"></ellipse>
                            <rect id="Rectangle-14-Copy-3" fill="url(#linearGradient-5)" x="20.3048681" y="31.1450382" width="47.3902637" height="4.58015267"></rect>
                            <rect id="Rectangle-14-Copy-4" fill="url(#linearGradient-5)" x="20.3048681" y="41.221374" width="47.3902637" height="4.58015267"></rect>
                            <rect id="Rectangle-14-Copy-5" fill="url(#linearGradient-5)" x="20.3048681" y="51.2977099" width="47.3902637" height="4.58015267"></rect>
                        </g>
                    </g>
                    <g id="Group-3" transform="translate(490.000000, 229.000000)">
                        <rect id="Rectangle" fill="#F5F7FC" x="0" y="0" width="49" height="58"></rect>
                        <g id="contract" transform="translate(33.000000, 30.000000)">
                            <path d="M31.0119048,0 L0,0 L0,54 L40,54 L40,9.06870229 L31.0119048,9.06870229 L31.0119048,1.11022302e-16 Z" id="Combined-Shape-Copy-4" fill="url(#linearGradient-5)" opacity="0.449999988"></path>
                            <polygon id="XMLID_1239_-Copy-2" fill="url(#linearGradient-5)" fill-rule="nonzero" opacity="0.889999986" transform="translate(35.619048, 4.609756) scale(-1, 1) translate(-35.619048, -4.609756) " points="40.2857143 0 30.952381 9.2195122 40.2857143 9.2195122"></polygon>
                            <path d="M20,43.0682927 C19.1146667,43.0682927 18.1638667,43.2879805 17.3333333,43.1907805 L17.3333333,50.0487805 L20,48.7317073 L22.6666667,50.0487805 L22.6666667,43.1907805 C21.836,43.2879805 20.8853333,43.0682927 20,43.0682927 Z" id="XMLID_1240_-Copy-2" fill="url(#linearGradient-5)" fill-rule="nonzero"></path>
                            <path d="M16.4658667,30.8320244 C15.4541333,31.4102195 15.1570667,32.7834 14.5717333,33.7826634 C14.0042667,34.7513707 12.9333333,35.6783268 12.9333333,36.8780488 C12.9333333,38.077639 14.0042667,39.0047268 14.5717333,39.9734341 C15.1570667,40.9728293 15.4541333,42.345878 16.4658667,42.9240732 C16.7317333,43.0759317 17.0244,43.1546927 17.3333333,43.1906488 C18.1638667,43.2878488 19.1146667,43.068161 20,43.068161 C20.8853333,43.068161 21.836,43.2878488 22.6666667,43.1906488 C22.9754667,43.1546927 23.2682667,43.0759317 23.5341333,42.9240732 C24.5458667,42.345878 24.8429333,40.9728293 25.4282667,39.9734341 C25.9957333,39.0047268 27.0666667,38.0777707 27.0666667,36.8780488 C27.0666667,35.6783268 25.9957333,34.7513707 25.4282667,33.7826634 C24.8429333,32.7832683 24.5457333,31.4100878 23.5341333,30.8318927 C22.5534667,30.271478 21.2144,30.6878049 20,30.6878049 C18.7856,30.6878049 17.4465333,30.271478 16.4658667,30.8320244 Z M24,36.8780488 C24,39.0600439 22.2090667,40.8292683 20,40.8292683 C17.7909333,40.8292683 16,39.0600439 16,36.8780488 C16,34.695922 17.7909333,32.9268293 20,32.9268293 C22.2090667,32.9268293 24,34.695922 24,36.8780488 Z" id="XMLID_1241_-Copy" fill="#FFFFFF" fill-rule="nonzero"></path>
                            <ellipse id="XMLID_1244_-Copy-2" fill="url(#linearGradient-5)" fill-rule="nonzero" cx="20" cy="36.8780488" rx="4" ry="3.95121951"></ellipse>
                            <rect id="Rectangle-14-Copy-6" fill="url(#linearGradient-5)" x="9.22948552" y="14.0152672" width="21.541029" height="2.0610687"></rect>
                            <rect id="Rectangle-14-Copy-7" fill="url(#linearGradient-5)" x="9.22948552" y="18.5496183" width="21.541029" height="2.0610687"></rect>
                            <rect id="Rectangle-14-Copy-8" fill="url(#linearGradient-5)" x="9.22948552" y="23.0839695" width="21.541029" height="2.0610687"></rect>
                        </g>
                        <g id="Group-2" transform="translate(10.000000, 12.000000)">
                            <rect id="Rectangle-24" stroke="#000000" x="0" y="13" width="30" height="22"></rect>
                            <circle id="Oval-14" fill="#000000" cx="15" cy="22" r="2"></circle>
                            <rect id="Rectangle-27" fill="#000000" x="14" y="23" width="2" height="5"></rect>
                            <path d="M23.9925018,13.9665146 C23.9925018,4.65550486 20.9920819,-1.40213767e-12 14.9912422,-2.61479727e-12 C8.9904024,-3.82881589e-12 5.99948934,4.65550486 6.01850299,13.9665146" id="Path-41" stroke="#000000"></path>
                        </g>
                    </g>
                    <g id="Group-3-Copy-3" transform="translate(490.000000, 404.000000)">
                        <rect id="Rectangle" fill="#F5F7FC" x="0" y="0" width="49" height="58"></rect>
                        <g id="contract" transform="translate(33.000000, 30.000000)">
                            <path d="M31.0119048,0 L0,0 L0,54 L40,54 L40,9.06870229 L31.0119048,9.06870229 L31.0119048,1.11022302e-16 Z" id="Combined-Shape-Copy-5" fill="url(#linearGradient-5)" opacity="0.5"></path>
                            <polygon id="XMLID_1239_-Copy-3" fill="url(#linearGradient-5)" fill-rule="nonzero" transform="translate(35.619048, 4.609756) scale(-1, 1) translate(-35.619048, -4.609756) " points="40.2857143 0 30.952381 9.2195122 40.2857143 9.2195122"></polygon>
                            <path d="M20,43.0682927 C19.1146667,43.0682927 18.1638667,43.2879805 17.3333333,43.1907805 L17.3333333,50.0487805 L20,48.7317073 L22.6666667,50.0487805 L22.6666667,43.1907805 C21.836,43.2879805 20.8853333,43.0682927 20,43.0682927 Z" id="XMLID_1240_-Copy-3" fill="url(#linearGradient-5)" fill-rule="nonzero"></path>
                            <path d="M16.4658667,30.8320244 C15.4541333,31.4102195 15.1570667,32.7834 14.5717333,33.7826634 C14.0042667,34.7513707 12.9333333,35.6783268 12.9333333,36.8780488 C12.9333333,38.077639 14.0042667,39.0047268 14.5717333,39.9734341 C15.1570667,40.9728293 15.4541333,42.345878 16.4658667,42.9240732 C16.7317333,43.0759317 17.0244,43.1546927 17.3333333,43.1906488 C18.1638667,43.2878488 19.1146667,43.068161 20,43.068161 C20.8853333,43.068161 21.836,43.2878488 22.6666667,43.1906488 C22.9754667,43.1546927 23.2682667,43.0759317 23.5341333,42.9240732 C24.5458667,42.345878 24.8429333,40.9728293 25.4282667,39.9734341 C25.9957333,39.0047268 27.0666667,38.0777707 27.0666667,36.8780488 C27.0666667,35.6783268 25.9957333,34.7513707 25.4282667,33.7826634 C24.8429333,32.7832683 24.5457333,31.4100878 23.5341333,30.8318927 C22.5534667,30.271478 21.2144,30.6878049 20,30.6878049 C18.7856,30.6878049 17.4465333,30.271478 16.4658667,30.8320244 Z M24,36.8780488 C24,39.0600439 22.2090667,40.8292683 20,40.8292683 C17.7909333,40.8292683 16,39.0600439 16,36.8780488 C16,34.695922 17.7909333,32.9268293 20,32.9268293 C22.2090667,32.9268293 24,34.695922 24,36.8780488 Z" id="XMLID_1241_-Copy-2" fill="#FFFFFF" fill-rule="nonzero"></path>
                            <ellipse id="XMLID_1244_-Copy-3" fill="url(#linearGradient-5)" fill-rule="nonzero" cx="20" cy="36.8780488" rx="4" ry="3.95121951"></ellipse>
                            <rect id="Rectangle-14-Copy-9" fill="url(#linearGradient-5)" x="9.22948552" y="14.0152672" width="21.541029" height="2.0610687"></rect>
                            <rect id="Rectangle-14-Copy-10" fill="url(#linearGradient-5)" x="9.22948552" y="18.5496183" width="21.541029" height="2.0610687"></rect>
                            <rect id="Rectangle-14-Copy-11" fill="url(#linearGradient-5)" x="9.22948552" y="23.0839695" width="21.541029" height="2.0610687"></rect>
                        </g>
                        <g id="Group-2" transform="translate(10.000000, 12.000000)">
                            <rect id="Rectangle-24" stroke="#000000" x="0.5" y="13.5" width="29" height="21"></rect>
                            <circle id="Oval-14" fill="#000000" cx="15" cy="22" r="2"></circle>
                            <rect id="Rectangle-27" fill="#000000" x="14" y="23" width="2" height="5"></rect>
                            <path d="M23.9925018,13.9665146 C23.9925018,4.65550486 20.9920819,-1.40213767e-12 14.9912422,-2.61479727e-12 C8.9904024,-3.82881589e-12 5.99948934,4.65550486 6.01850299,13.9665146" id="Path-41" stroke="#000000"></path>
                        </g>
                    </g>
                    <g id="Group-3-Copy-4" transform="translate(490.000000, 579.000000)">
                        <rect id="Rectangle" fill="#F5F7FC" x="0" y="0" width="49" height="58"></rect>
                        <g id="contract" transform="translate(33.000000, 30.000000)">
                            <path d="M31.0119048,0 L0,0 L0,54 L40,54 L40,9.06870229 L31.0119048,9.06870229 L31.0119048,1.11022302e-16 Z" id="Combined-Shape-Copy-6" fill="url(#linearGradient-5)" opacity="0.449999988"></path>
                            <polygon id="XMLID_1239_" fill="url(#linearGradient-5)" fill-rule="nonzero" transform="translate(35.619048, 4.609756) scale(-1, 1) translate(-35.619048, -4.609756) " points="40.2857143 0 30.952381 9.2195122 40.2857143 9.2195122"></polygon>
                            <path d="M20,43.0682927 C19.1146667,43.0682927 18.1638667,43.2879805 17.3333333,43.1907805 L17.3333333,50.0487805 L20,48.7317073 L22.6666667,50.0487805 L22.6666667,43.1907805 C21.836,43.2879805 20.8853333,43.0682927 20,43.0682927 Z" id="XMLID_1240_" fill="url(#linearGradient-5)" fill-rule="nonzero"></path>
                            <path d="M16.4658667,30.8320244 C15.4541333,31.4102195 15.1570667,32.7834 14.5717333,33.7826634 C14.0042667,34.7513707 12.9333333,35.6783268 12.9333333,36.8780488 C12.9333333,38.077639 14.0042667,39.0047268 14.5717333,39.9734341 C15.1570667,40.9728293 15.4541333,42.345878 16.4658667,42.9240732 C16.7317333,43.0759317 17.0244,43.1546927 17.3333333,43.1906488 C18.1638667,43.2878488 19.1146667,43.068161 20,43.068161 C20.8853333,43.068161 21.836,43.2878488 22.6666667,43.1906488 C22.9754667,43.1546927 23.2682667,43.0759317 23.5341333,42.9240732 C24.5458667,42.345878 24.8429333,40.9728293 25.4282667,39.9734341 C25.9957333,39.0047268 27.0666667,38.0777707 27.0666667,36.8780488 C27.0666667,35.6783268 25.9957333,34.7513707 25.4282667,33.7826634 C24.8429333,32.7832683 24.5457333,31.4100878 23.5341333,30.8318927 C22.5534667,30.271478 21.2144,30.6878049 20,30.6878049 C18.7856,30.6878049 17.4465333,30.271478 16.4658667,30.8320244 Z M24,36.8780488 C24,39.0600439 22.2090667,40.8292683 20,40.8292683 C17.7909333,40.8292683 16,39.0600439 16,36.8780488 C16,34.695922 17.7909333,32.9268293 20,32.9268293 C22.2090667,32.9268293 24,34.695922 24,36.8780488 Z" id="XMLID_1241_-Copy-3" fill="#FFFFFF" fill-rule="nonzero"></path>
                            <ellipse id="XMLID_1244_" fill="url(#linearGradient-5)" fill-rule="nonzero" cx="20" cy="36.8780488" rx="4" ry="3.95121951"></ellipse>
                            <rect id="Rectangle-14" fill="url(#linearGradient-5)" x="9.22948552" y="14.0152672" width="21.541029" height="2.0610687"></rect>
                            <rect id="Rectangle-14-Copy" fill="url(#linearGradient-5)" x="9.22948552" y="18.5496183" width="21.541029" height="2.0610687"></rect>
                            <rect id="Rectangle-14-Copy-2" fill="url(#linearGradient-5)" x="9.22948552" y="23.0839695" width="21.541029" height="2.0610687"></rect>
                        </g>
                        <g id="Group-2" transform="translate(10.000000, 11.000000)">
                            <rect id="Rectangle-24" stroke="#000000" x="0" y="14" width="30" height="22"></rect>
                            <circle id="Oval-14" fill="#000000" cx="15" cy="23" r="2"></circle>
                            <rect id="Rectangle-27" fill="#000000" x="14" y="24" width="2" height="5"></rect>
                            <path d="M23.9925018,13.9665146 C23.9925018,4.65550486 20.9920819,-1.40213767e-12 14.9912422,-2.61479727e-12 C8.9904024,-3.82881589e-12 5.99948934,4.65550486 6.01850299,13.9665146" id="Path-41" stroke="#000000"></path>
                        </g>
                    </g>
                    <g id="Group-4" transform="translate(262.500000, 277.000000) scale(1, -1) translate(-262.500000, -277.000000) translate(102.000000, 229.000000)" stroke="#000000">
                        <g id="Arrow" transform="translate(4.000000, 50.000000)">
                            <path d="M305,11 C223.574975,60.2843758 83.484711,54.2714457 5,11" id="Path-40"></path>
                            <polygon id="Triangle-7-Copy-4" transform="translate(307.921693, 8.921693) rotate(59.000000) translate(-307.921693, -8.921693) " points="307.921693 2.9216926 313.921693 14.9216926 301.921693 14.9216926"></polygon>
                            <circle id="Oval-11-Copy-3" cx="5.5" cy="11.5" r="5.5"></circle>
                        </g>
                        <g id="Arrow-Copy" transform="translate(158.500000, 23.000000) rotate(-180.000000) translate(-158.500000, -23.000000) ">
                            <path d="M305,11 C223.574975,60.2843758 83.484711,54.2714457 5,11" id="Path-40"></path>
                            <polygon id="Triangle-7-Copy-4" transform="translate(307.921693, 8.921693) rotate(59.000000) translate(-307.921693, -8.921693) " points="307.921693 2.9216926 313.921693 14.9216926 301.921693 14.9216926"></polygon>
                            <circle id="Oval-11-Copy-3" cx="5.5" cy="11.5" r="5.5"></circle>
                        </g>
                    </g>
                    <g id="Group-4-Copy-3" transform="translate(754.000000, 277.000000) scale(1, -1) translate(-754.000000, -277.000000) translate(593.000000, 229.000000)" stroke="#000000">
                        <g id="Arrow" transform="translate(4.000000, 49.000000)">
                            <path d="M305,12 C223.574975,61.2843758 83.484711,55.2714457 5,12" id="Path-40"></path>
                            <polygon id="Triangle-7-Copy-4" transform="translate(308.921693, 8.921693) rotate(59.000000) translate(-308.921693, -8.921693) " points="308.921693 2.9216926 314.921693 14.9216926 302.921693 14.9216926"></polygon>
                            <circle id="Oval-11-Copy-3" fill="#FFFFFF" cx="5.5" cy="12.5" r="5.5"></circle>
                        </g>
                        <g id="Arrow-Copy" transform="translate(158.500000, 23.000000) rotate(-180.000000) translate(-158.500000, -23.000000) ">
                            <path d="M305,11 C223.574975,60.2843758 83.484711,54.2714457 5,11" id="Path-40"></path>
                            <polygon id="Triangle-7-Copy-4" transform="translate(307.921693, 8.921693) rotate(59.000000) translate(-307.921693, -8.921693) " points="307.921693 2.9216926 313.921693 14.9216926 301.921693 14.9216926"></polygon>
                            <circle id="Oval-11-Copy-3" fill="#FFFFFF" cx="5.5" cy="11.5" r="5.5"></circle>
                        </g>
                    </g>
                    <g id="Group-4-Copy-4" transform="translate(753.500000, 440.000000) scale(1, -1) translate(-753.500000, -440.000000) translate(593.000000, 392.000000)" stroke="#000000">
                        <g id="Arrow" transform="translate(4.000000, 50.000000)">
                            <path d="M305,11 C223.574975,60.2843758 83.484711,54.2714457 5,11" id="Path-40"></path>
                            <polygon id="Triangle-7-Copy-4" fill="#FFFFFF" transform="translate(307.921693, 8.921693) rotate(59.000000) translate(-307.921693, -8.921693) " points="307.921693 2.9216926 313.921693 14.9216926 301.921693 14.9216926"></polygon>
                            <circle id="Oval-11-Copy-3" fill="#FFFFFF" cx="5.5" cy="11.5" r="5.5"></circle>
                        </g>
                        <g id="Arrow-Copy" transform="translate(158.500000, 23.000000) rotate(-180.000000) translate(-158.500000, -23.000000) ">
                            <path d="M305,11 C223.574975,60.2843758 83.484711,54.2714457 5,11" id="Path-40"></path>
                            <polygon id="Triangle-7-Copy-4" fill="#FFFFFF" transform="translate(307.921693, 8.921693) rotate(59.000000) translate(-307.921693, -8.921693) " points="307.921693 2.9216926 313.921693 14.9216926 301.921693 14.9216926"></polygon>
                            <circle id="Oval-11-Copy-3" fill="#FFFFFF" cx="5.5" cy="11.5" r="5.5"></circle>
                        </g>
                    </g>
                    <g id="Group-4-Copy-5" transform="translate(753.500000, 624.000000) scale(1, -1) translate(-753.500000, -624.000000) translate(593.000000, 576.000000)" stroke="#000000">
                        <g id="Arrow" transform="translate(4.000000, 50.000000)">
                            <path d="M305,11 C223.574975,60.2843758 83.484711,54.2714457 5,11" id="Path-40"></path>
                            <polygon id="Triangle-7-Copy-4" fill="#FFFFFF" transform="translate(307.921693, 8.921693) rotate(59.000000) translate(-307.921693, -8.921693) " points="307.921693 2.9216926 313.921693 14.9216926 301.921693 14.9216926"></polygon>
                            <circle id="Oval-11-Copy-3" fill="#FFFFFF" cx="5.5" cy="11.5" r="5.5"></circle>
                        </g>
                        <g id="Arrow-Copy" transform="translate(158.500000, 23.000000) rotate(-180.000000) translate(-158.500000, -23.000000) ">
                            <path d="M305,11 C223.574975,60.2843758 83.484711,54.2714457 5,11" id="Path-40"></path>
                            <polygon id="Triangle-7-Copy-4" fill="#FFFFFF" transform="translate(307.921693, 8.921693) rotate(59.000000) translate(-307.921693, -8.921693) " points="307.921693 2.9216926 313.921693 14.9216926 301.921693 14.9216926"></polygon>
                            <circle id="Oval-11-Copy-3" fill="#FFFFFF" cx="5.5" cy="11.5" r="5.5"></circle>
                        </g>
                    </g>
                    <g id="flowchart_cryptofund-copy" transform="translate(433.000000, 595.000000)">
                        <ellipse id="Oval-5-Copy-13" fill="url(#linearGradient-6)" opacity="0.100000001" cx="28.5" cy="29" rx="28.5" ry="28.7314815"></ellipse>
                        <g id="Group-3" transform="translate(11.719626, 12.888889)">
                            <g id="bitcoin" transform="translate(11.698318, 0.655185)" fill="url(#linearGradient-6)">
                                <path d="M0.139444484,24.3922339 L7.71117194,18.0494185 L6.58707853,22.6812301 C8.43984898,23.0907336 14.101092,24.9334993 14.9245456,21.5550954 C15.707793,18.2442687 10.4378788,17.3416322 8.32697752,16.8208792 L8.32697752,15.7244444 L5.56477419,11.7398903 L4.14360212,12.1041124 L5.04310316,8.45098328 C5.04310316,7.83672803 4.83723977,7.12009689 3.80792286,6.91534514 L1.85222071,6.40346576 L2.57274256,3.53694123 L6.27828346,4.45832411 C6.79294192,4.56069999 7.41053207,4.76545174 8.02812222,4.86782762 L9.16037083,0.465664947 L11.8365948,1.18229608 L10.7043462,5.48208288 C11.424868,5.68683463 12.1453899,5.7892105 12.8659117,5.99396226 L13.8952286,1.69417546 L16.5714526,2.41080659 L15.439204,6.81296926 C19.0418132,7.9391039 21.6151055,9.67949379 21.1004471,12.9555218 C20.791652,15.310167 19.45354,16.5386775 17.6007695,16.948181 C20.0711301,18.1766915 21.3063104,20.1218332 20.0711301,23.5002371 C18.6300865,27.697648 15.1304089,28.0047756 10.4984828,27.1857686 L9.36623421,31.6903072 L6.69001022,30.8713001 L7.82225883,26.4691375 C7.10173699,26.2643857 6.38121515,26.059634 5.66069331,25.9572581 L4.5284447,30.3594208 L1.85222071,29.6427896 L2.98446932,25.1382511 C2.36687917,24.9334993 1.74928902,24.8311235 1.02876718,24.6263717 L0.139444484,24.3922339 Z M10.0867561,8.65573503 L8.74864406,14.0816565 C10.2926194,14.49116 15.0274773,16.0267981 15.7479991,12.9555218 C16.4685209,9.78186967 11.6307314,9.06523854 10.0867561,8.65573503 Z" id="Combined-Shape-Copy-7"></path>
                            </g>
                            <g id="ethereum" fill="#FFFFFF">
                                <polygon id="Path-21" points="0.693280626 16.3796296 10.1649919 22.6427698 20.0474157 16.3526202 10.1677626 4.16093826e-13"></polygon>
                                <polygon id="Path-22" points="0.561880235 18.1748381 10.2660074 32.4354049 19.99604 18.1748381 10.2660074 24.5605086"></polygon>
                            </g>
                        </g>
                    </g>
                    <g id="flowchart_cryptofund-copy-2" transform="translate(433.000000, 417.000000)">
                        <ellipse id="Oval-5-Copy-14" fill="url(#linearGradient-7)" opacity="0.200000003" cx="28.5" cy="29" rx="28.5" ry="28.7314815"></ellipse>
                        <g id="Group-Copy" transform="translate(14.915888, 11.277778)">
                            <path d="M5.72771402,4.1838932 C3.52212508,4.1838932 1.73414198,5.96911809 1.73414198,8.17572017 L1.73414198,28.0532405 C1.73414198,30.2578657 3.51548945,32.0450675 5.72771402,32.0450675 L21.4405103,32.0450675 C23.6460992,32.0450675 25.4340823,30.2598426 25.4340823,28.0532405 L25.4340823,8.17572017 C25.4340823,5.97109501 23.6527348,4.1838932 21.4405103,4.1838932 L5.72771402,4.1838932 Z" id="Shape" fill="#FFFFFF"></path>
                            <path d="M12.6206999,10.113653 L5.10608471,10.113653 C4.78642454,10.113653 4.52803738,9.84347958 4.52803738,9.50923821 C4.52803738,9.17499683 4.78642454,8.90482343 5.10608471,8.90482343 L12.6206999,8.90482343 C12.9403601,8.90482343 13.1987473,9.17499683 13.1987473,9.50923821 C13.1987473,9.84347958 12.9403601,10.113653 12.6206999,10.113653 Z" id="Shape-Copy-29" fill="url(#linearGradient-7)"></path>
                            <path d="M12.6206999,13.485746 L5.10608471,13.485746 C4.78642454,13.485746 4.52803738,13.2155726 4.52803738,12.8813312 C4.52803738,12.5470899 4.78642454,12.2769165 5.10608471,12.2769165 L12.6206999,12.2769165 C12.9403601,12.2769165 13.1987473,12.5470899 13.1987473,12.8813312 C13.1987473,13.2155726 12.9403601,13.485746 12.6206999,13.485746 Z" id="Shape-Copy-2" fill="url(#linearGradient-7)"></path>
                            <path d="M17.0331279,28.5585864 L5.51071784,28.5585864 C5.02057224,28.5585864 4.6243786,28.288413 4.6243786,27.9541717 C4.6243786,27.6199303 5.02057224,27.3497569 5.51071784,27.3497569 L17.0331279,27.3497569 C17.5232735,27.3497569 17.9194671,27.6199303 17.9194671,27.9541717 C17.9194671,28.288413 17.5232735,28.5585864 17.0331279,28.5585864 Z" id="Shape-Copy-30" fill="url(#linearGradient-7)"></path>
                            <path d="M21.8694571,17.0747057 L5.10608471,17.0747057 C4.78642454,17.0747057 4.52803738,16.8045323 4.52803738,16.4702909 C4.52803738,16.1360495 4.78642454,15.8658761 5.10608471,15.8658761 L21.8694571,15.8658761 C22.1891173,15.8658761 22.4475045,16.1360495 22.4475045,16.4702909 C22.4475045,16.8045323 22.1891173,17.0747057 21.8694571,17.0747057 Z" id="Shape-Copy" fill="url(#linearGradient-7)"></path>
                            <path d="M21.9657984,20.7011943 L5.20242593,20.7011943 C4.88276576,20.7011943 4.6243786,20.4310209 4.6243786,20.0967795 C4.6243786,19.7625382 4.88276576,19.4923648 5.20242593,19.4923648 L21.9657984,19.4923648 C22.2854585,19.4923648 22.5438457,19.7625382 22.5438457,20.0967795 C22.5438457,20.4310209 22.2854585,20.7011943 21.9657984,20.7011943 Z" id="Shape-Copy-31" fill="url(#linearGradient-7)"></path>
                            <path d="M21.9657984,24.9320978 L5.20242593,24.9320978 C4.88276576,24.9320978 4.6243786,24.6619244 4.6243786,24.327683 C4.6243786,23.9934416 4.88276576,23.7232682 5.20242593,23.7232682 L21.9657984,23.7232682 C22.2854585,23.7232682 22.5438457,23.9934416 22.5438457,24.327683 C22.5438457,24.6619244 22.2854585,24.9320978 21.9657984,24.9320978 Z" id="Shape-Copy-32" fill="url(#linearGradient-7)"></path>
                            <path d="M15.5246996,3.84202794 C15.5246996,3.28589269 15.9815235,2.83505599 16.5254962,2.83505599 L20.3456653,2.83505599 C20.89839,2.83505599 21.3464619,3.28279295 21.3464619,3.84202794 L21.3464619,12.9513351 L18.4355808,10.3791316 L15.5246996,12.9513351 L15.5246996,3.84202794 Z" id="Rectangle-9" fill="url(#linearGradient-7)"></path>
                        </g>
                    </g>
                    <g id="flowchart_cryptofund-copy-3" transform="translate(433.000000, 248.000000)">
                        <path d="M28.5,57.7314815 C44.2401154,57.7314815 57,44.8679591 57,29 C57,19.980051 52.8770054,11.9309005 46.4272899,6.66341176 C41.5306196,2.6642964 35.2928376,0.268518519 28.5,0.268518519 C12.7598846,0.268518519 0,13.1320409 0,29 C0,44.8679591 12.7598846,57.7314815 28.5,57.7314815 Z" id="Oval-5" fill="url(#linearGradient-3)" opacity="0.200000003"></path>
                        <g id="Group-2" transform="translate(12.785047, 13.962963)">
                            <path d="M3.19626168,11.2777778 L15.7149533,2.02511687 L28.7663551,11.2777778 L28.7663551,24.4554892 C28.7663551,26.6687559 26.9683158,28.462963 24.771028,28.462963 L7.19158879,28.462963 C4.98503056,28.462963 3.19626168,26.6724803 3.19626168,24.4554892 L3.19626168,11.2777778 Z" id="Rectangle" fill="#FFFFFF"></path>
                            <path d="M29.3181591,13.7697506 L15.9578954,3.61640785 L2.5975238,13.7697506 C1.88446965,14.3116985 0.86855104,14.1709567 0.32857772,13.4553298 C-0.211503572,12.7398113 -0.0711385823,11.7204898 0.641915567,11.1785419 L14.8676914,0.367537529 C15.5125065,-0.12251251 16.4033923,-0.12251251 17.0480995,0.367537529 L31.2738753,11.1785419 C31.9869295,11.7204898 32.1271865,12.7398113 31.5872132,13.4553298 C31.0471319,14.1709567 30.0312133,14.3116985 29.3181591,13.7697506 Z" id="XMLID_991_-Copy-2" fill="url(#linearGradient-3)"></path>
                            <path d="M11.1869159,22.2627472 C11.1869159,20.0516819 12.9680206,18.2592593 15.18399,18.2592593 L16.7786269,18.2592593 C18.9861499,18.2592593 20.7757009,20.0599886 20.7757009,22.2627472 L20.7757009,28.462963 L11.1869159,28.462963 L11.1869159,22.2627472 Z" id="Rectangle-2-Copy-2" fill="url(#linearGradient-3)"></path>
                        </g>
                    </g>
                    <g id="Group-4-Copy" transform="translate(262.500000, 446.000000) scale(1, -1) translate(-262.500000, -446.000000) translate(102.000000, 398.000000)" stroke="#000000">
                        <g id="Arrow" transform="translate(4.000000, 50.000000)">
                            <path d="M305,11 C223.574975,60.2843758 83.484711,54.2714457 5,11" id="Path-40"></path>
                            <polygon id="Triangle-7-Copy-4" transform="translate(307.921693, 8.921693) rotate(59.000000) translate(-307.921693, -8.921693) " points="307.921693 2.9216926 313.921693 14.9216926 301.921693 14.9216926"></polygon>
                            <circle id="Oval-11-Copy-3" cx="5.5" cy="11.5" r="5.5"></circle>
                        </g>
                        <g id="Arrow-Copy" transform="translate(158.500000, 23.000000) rotate(-180.000000) translate(-158.500000, -23.000000) ">
                            <path d="M305,11 C223.574975,60.2843758 83.484711,54.2714457 5,11" id="Path-40"></path>
                            <polygon id="Triangle-7-Copy-4" transform="translate(307.921693, 8.921693) rotate(59.000000) translate(-307.921693, -8.921693) " points="307.921693 2.9216926 313.921693 14.9216926 301.921693 14.9216926"></polygon>
                            <circle id="Oval-11-Copy-3" cx="5.5" cy="11.5" r="5.5"></circle>
                        </g>
                    </g>
                    <g id="Group-4-Copy-2" transform="translate(262.500000, 621.000000) scale(1, -1) translate(-262.500000, -621.000000) translate(102.000000, 573.000000)">
                        <g id="Arrow" transform="translate(4.000000, 50.000000)">
                            <path d="M305,11 C223.574975,60.2843758 83.484711,54.2714457 5,11" id="Path-40" stroke="#6A7F91" stroke-width="2"></path>
                            <polygon id="Triangle-7-Copy-4" stroke="#000000" transform="translate(307.921693, 8.921693) rotate(59.000000) translate(-307.921693, -8.921693) " points="307.921693 2.9216926 313.921693 14.9216926 301.921693 14.9216926"></polygon>
                            <circle id="Oval-11-Copy-3" stroke="#000000" cx="5.5" cy="11.5" r="5.5"></circle>
                        </g>
                        <g id="Arrow-Copy" transform="translate(158.500000, 23.000000) rotate(-180.000000) translate(-158.500000, -23.000000) " stroke="#000000">
                            <path d="M305,11 C223.574975,60.2843758 83.484711,54.2714457 5,11" id="Path-40"></path>
                            <polygon id="Triangle-7-Copy-4" transform="translate(307.921693, 8.921693) rotate(59.000000) translate(-307.921693, -8.921693) " points="307.921693 2.9216926 313.921693 14.9216926 301.921693 14.9216926"></polygon>
                            <circle id="Oval-11-Copy-3" cx="5.5" cy="11.5" r="5.5"></circle>
                        </g>
                    </g>
                    <text id="Parent-Smart-Contrac" font-family="SFUIDisplay-Medium, SF UI Display" font-size="16" font-weight="400" line-spacing="24" letter-spacing="0.2" fill="#000000">
                        <tspan x="435" y="15">Parent Smart Contract</tspan>
                    </text>
                    <text id="ETH-Copy" font-family="SFUIDisplay-Medium, SF UI Display" font-size="16" font-weight="400" line-spacing="24" letter-spacing="0.200000003" fill="#000000">
                        <tspan x="739" y="245">ETH</tspan>
                    </text>
                    <text id="ETH-Copy-5" font-family="SFUIDisplay-Medium, SF UI Display" font-size="16" font-weight="400" line-spacing="24" letter-spacing="0.200000003" fill="#000000">
                        <tspan x="258" y="245">ETH</tspan>
                    </text>
                    <text id="ETH-Copy-3" font-family="SFUIDisplay-Medium, SF UI Display" font-size="16" font-weight="400" line-spacing="24" letter-spacing="0.200000003" fill="#000000">
                        <tspan x="739" y="408">ETH</tspan>
                    </text>
                    <text id="ETH-Copy-4" font-family="SFUIDisplay-Medium, SF UI Display" font-size="16" font-weight="400" line-spacing="24" letter-spacing="0.200000003" fill="#000000">
                        <tspan x="739" y="592">ETH</tspan>
                    </text>
                    <text id="PoA-Token-Copy" fill="url(#linearGradient-2)" font-family="SFUIText-Regular, SF UI  Text" font-size="14" font-weight="normal" line-spacing="24" letter-spacing="0.175000012">
                        <tspan x="235" y="311">PoA-Token</tspan>
                    </text>
                    <text id="Security-paper-Copy" fill="url(#linearGradient-2)" font-family="SFUIText-Regular, SF UI  Text" font-size="14" font-weight="normal" line-spacing="24" letter-spacing="0.175000012">
                        <tspan x="702" y="311">Security paper</tspan>
                    </text>
                    <text id="Security-paper" fill="url(#linearGradient-3)" font-family="SFUIText-Regular, SF UI  Text" font-size="14" font-weight="normal" line-spacing="24" letter-spacing="0.175000012">
                        <tspan x="702" y="473">Security paper</tspan>
                    </text>
                    <text id="Dividends" fill="url(#linearGradient-4)" font-family="SFUIText-Regular, SF UI  Text" font-size="14" font-weight="normal" line-spacing="24" letter-spacing="0.175000012">
                        <tspan x="718" y="658">Dividends</tspan>
                    </text>
                    <text id="PoA-Token-Copy-2" fill="url(#linearGradient-3)" font-family="SFUIText-Regular, SF UI  Text" font-size="14" font-weight="normal" line-spacing="24" letter-spacing="0.175000012">
                        <tspan x="235" y="481">PoA-Token</tspan>
                    </text>
                    <text id="PoA-Token" fill="url(#linearGradient-4)" font-family="SFUIText-Regular, SF UI  Text" font-size="14" font-weight="normal" line-spacing="24" letter-spacing="0.175000012">
                        <tspan x="235" y="657">PoA-Token</tspan>
                    </text>
                    <text id="ETH" font-family="SFUIDisplay-Medium, SF UI Display" font-size="16" font-weight="400" line-spacing="24" letter-spacing="0.200000003" fill="#000000">
                        <tspan x="258" y="413">ETH</tspan>
                    </text>
                    <text id="ETH-Copy-2" font-family="SFUIDisplay-Medium, SF UI Display" font-size="16" font-weight="400" line-spacing="24" letter-spacing="0.200000003" fill="#000000">
                        <tspan x="258" y="589">ETH</tspan>
                    </text>
                </g>
            </g>
        </g>
    </g>
</svg>