<svg xmlns="http://www.w3.org/2000/svg" width="36" height="37" viewBox="0 0 36 37"><defs><linearGradient id="a" x1="1168.06" x2="1149.68" y1="3932.78" y2="3951.16" gradientUnits="userSpaceOnUse"><stop offset="0" stop-color="#00b8f4" stop-opacity=".4"/><stop offset="1" stop-color="#00b8f4"/></linearGradient><linearGradient id="b" x1="1172" x2="1172" y1="3924" y2="3930" gradientUnits="userSpaceOnUse"><stop offset="0" stop-color="#00b8f4" stop-opacity=".4"/><stop offset="1" stop-color="#00b8f4"/></linearGradient><linearGradient id="c" x1="1170" x2="1170" y1="3950" y2="3954" gradientUnits="userSpaceOnUse"><stop offset="0" stop-color="#00b8f4" stop-opacity=".4"/><stop offset="1" stop-color="#00b8f4"/></linearGradient><linearGradient id="d" x1="1158.5" x2="1158.5" y1="3954" y2="3961" gradientUnits="userSpaceOnUse"><stop offset="0" stop-color="#00b8f4" stop-opacity=".4"/><stop offset="1" stop-color="#00b8f4"/></linearGradient><linearGradient id="e" x1="1142.5" x2="1142.5" y1="3952" y2="3959" gradientUnits="userSpaceOnUse"><stop offset="0" stop-color="#00b8f4" stop-opacity=".4"/><stop offset="1" stop-color="#00b8f4"/></linearGradient><linearGradient id="f" x1="1147" x2="1147" y1="3927" y2="3931" gradientUnits="userSpaceOnUse"><stop offset="0" stop-color="#00b8f4" stop-opacity=".4"/><stop offset="1" stop-color="#00b8f4"/></linearGradient><linearGradient id="g" x1="1159" x2="1159" y1="3935" y2="3947" gradientUnits="userSpaceOnUse"><stop offset="0" stop-color="#00b8f4" stop-opacity=".4"/><stop offset="1" stop-color="#00b8f4"/></linearGradient></defs><path fill="url(#a)" d="M1162.87 3936.84c-.21-.26-.45-.5-.7-.71l8.15-8.16c.15.31.34.6.56.85zm-7.96 6.04c.2.27.42.53.66.76l-10.07 10.06a3.52 3.52 0 0 0-.63-.78zm-6.08-14.04l7.25 7.1c-.39.28-.73.62-1.03.99l-7.22-7.09.03-.03a2 2 0 0 0 .95-.95zm13.33 15.03c.26-.21.5-.45.71-.7l6.11 6.1c-.29.18-.53.42-.7.71zm-4.16-.87h1v11.04a3.53 3.53 0 0 0-1 0z" transform="translate(-1139 -3924)"/><path fill="url(#b)" d="M1169 3927a3 3 0 1 1 6 0 3 3 0 0 1-6 0z" transform="translate(-1139 -3924)"/><path fill="url(#c)" d="M1168 3952a2 2 0 1 1 4 0 2 2 0 0 1-4 0z" transform="translate(-1139 -3924)"/><path fill="url(#d)" d="M1155 3957.5a3.5 3.5 0 1 1 7 0 3.5 3.5 0 0 1-7 0z" transform="translate(-1139 -3924)"/><path fill="url(#e)" d="M1139 3955.5a3.5 3.5 0 1 1 7 0 3.5 3.5 0 0 1-7 0z" transform="translate(-1139 -3924)"/><path fill="url(#f)" d="M1145 3929a2 2 0 1 1 4 0 2 2 0 0 1-4 0z" transform="translate(-1139 -3924)"/><path fill="url(#g)" d="M1153 3941a6 6 0 1 1 12 0 6 6 0 0 1-12 0z" transform="translate(-1139 -3924)"/></svg>