<svg xmlns="http://www.w3.org/2000/svg" width="199" height="38" viewBox="0 0 199 38"><path fill="#fff" d="M69.64 29.43a11.5 11.5 0 0 1-4.9.99c-1.68 0-3.24-.28-4.67-.85a10.8 10.8 0 0 1-6.18-6.12 12.47 12.47 0 0 1-.89-4.77c0-1.78.3-3.39.91-4.84a10.6 10.6 0 0 1 2.51-3.68 10.95 10.95 0 0 1 3.76-2.34 13.07 13.07 0 0 1 9.2.01A8.7 8.7 0 0 1 73 10.27l-3.57 3.64a4.45 4.45 0 0 0-1.94-1.54 6.3 6.3 0 0 0-2.47-.5 6.1 6.1 0 0 0-5.83 4.09c-.3.83-.46 1.73-.46 2.72 0 1 .16 1.92.46 2.76a5.86 5.86 0 0 0 5.74 4.05c1.05 0 1.96-.21 2.74-.63a5.24 5.24 0 0 0 1.88-1.63l3.67 3.52a10.44 10.44 0 0 1-3.58 2.68zM101.04 24.5a7.91 7.91 0 0 1-1.89 2.83 8.62 8.62 0 0 1-2.97 1.84c-1.16.44-2.45.66-3.87.66-1.44 0-2.74-.22-3.89-.66a8.31 8.31 0 0 1-2.92-1.84 7.82 7.82 0 0 1-1.85-2.83 9.88 9.88 0 0 1-.65-3.65V7h5.24v13.41c0 .6.08 1.18.23 1.72.16.55.39 1.03.71 1.46.32.43.74.77 1.26 1.02.53.26 1.16.38 1.9.38a4.2 4.2 0 0 0 1.89-.38c.53-.25.95-.59 1.28-1.02.33-.43.57-.91.71-1.46.15-.54.22-1.12.22-1.72V7h5.27v13.85a9.5 9.5 0 0 1-.67 3.65zM131.01 22.76c0 1.22-.23 2.24-.71 3.06a5.73 5.73 0 0 1-1.88 2c-.78.5-1.67.86-2.66 1.08-1 .22-2.02.33-3.07.33H114V7h8.69c.84 0 1.71.09 2.59.27.88.18 1.68.48 2.4.91a5.14 5.14 0 0 1 1.76 1.74c.45.73.68 1.66.68 2.8 0 1.23-.33 2.25-.99 3.06a5.57 5.57 0 0 1-2.59 1.74v.06c.62.11 1.2.3 1.74.58a5.12 5.12 0 0 1 2.38 2.63c.23.58.35 1.24.35 1.97zm-5.98-9.32c0-.76-.28-1.31-.85-1.65a4.82 4.82 0 0 0-2.51-.52h-2.59v4.58h2.84c.99 0 1.75-.2 2.3-.61.54-.41.81-1.01.81-1.8zm.71 8.82c0-.92-.34-1.56-1.02-1.92a5.9 5.9 0 0 0-2.71-.53h-2.93v5.09h2.96c.41 0 .84-.04 1.28-.11.44-.08.84-.21 1.2-.4.36-.18.66-.45.88-.8.23-.34.34-.79.34-1.33zM142 29.23V7h5.3v22.23zM168.43 11.58v17.65h-5.27V11.58H157V7h17.6v4.58zM195.31 13.34a4.73 4.73 0 0 0-1.77-1.39 4.85 4.85 0 0 0-3.17-.43 2.57 2.57 0 0 0-1.7 1.05c-.19.29-.29.65-.29 1.09 0 .37.08.69.23.94.15.25.38.47.68.66.3.19.65.36 1.06.51.41.16.88.32 1.39.49a75 75 0 0 1 2.31.83c.8.31 1.53.71 2.19 1.21a5.47 5.47 0 0 1 2.28 4.65 6.74 6.74 0 0 1-2.56 5.62 7.78 7.78 0 0 1-2.68 1.35c-1.01.29-2.05.44-3.11.44-1.57 0-3.07-.28-4.53-.83a9.75 9.75 0 0 1-3.64-2.37l3.45-3.58a6.48 6.48 0 0 0 4.72 2.35c.39 0 .77-.04 1.14-.12.37-.09.69-.22.97-.41.28-.19.49-.44.66-.76.16-.31.25-.69.25-1.13 0-.41-.1-.77-.31-1.06a3 3 0 0 0-.88-.8 7 7 0 0 0-1.42-.66c-.56-.2-1.2-.42-1.92-.65-.7-.23-1.39-.5-2.05-.81a6.96 6.96 0 0 1-1.79-1.21 5.67 5.67 0 0 1-1.74-4.35 6.33 6.33 0 0 1 2.68-5.34c.8-.56 1.71-.98 2.71-1.24a11.17 11.17 0 0 1 6.83.3 9.64 9.64 0 0 1 3.37 2.04z"/><path fill="#fff" fill-opacity=".5" d="M2 19l9.82 17.27h19.65L24.1 23.32h-4.91L16.74 19M16.74 18.27H2L11.82 1h19.65L24.1 13.95h-4.91l-2.45 4.32"/><path fill="#fff" d="M31.17 36.96a.7.7 0 0 1-.61-.35l-7.16-12.6h-4.51a.68.68 0 0 1-.6-.35l-2.26-3.97H1.7a.7.7 0 0 1-.7-.71.7.7 0 0 1 .7-.71h14.33l2.26-3.96a.69.69 0 0 1 .6-.36h4.51l7.16-12.59a.7.7 0 0 1 .96-.26c.34.19.45.63.26.97l-7.37 12.95a.69.69 0 0 1-.61.36h-4.5l-2.05 3.6 2.05 3.61h4.5c.26 0 .49.13.61.35l7.37 12.96c.19.34.08.77-.26.97a.73.73 0 0 1-.35.09z"/><path fill="none" stroke="#383857" stroke-miterlimit="50" stroke-width="1.8" d="M19 14l2.46 4.32"/><path fill="#fff" d="M11.93 36.96a.99.99 0 0 1-.46-.12.97.97 0 0 1-.47-.83.9.9 0 0 1 .13-.47l9.55-16.8-9.55-16.79L12.75 1l9.55 16.79h19.11v1.9H22.3l-9.55 16.8a.95.95 0 0 1-.82.47z"/><path fill="#fff" d="M30.87 37.39H11.23c-.5 0-.97-.27-1.22-.71L.19 19.41a1.46 1.46 0 0 1 0-1.43L10.01.71A1.4 1.4 0 0 1 11.23 0h19.62c.51.01.97.25 1.24.71l9.82 17.27c.25.44.25.99 0 1.43l-9.82 17.27a1.4 1.4 0 0 1-1.22.71zm-18.83-2.85h18.02l9.02-15.85-9.02-15.84H12.04L3.02 18.69z"/></svg>