<svg xmlns="http://www.w3.org/2000/svg" width="34" height="36" viewBox="0 0 34 36"><defs><linearGradient id="a" x1="1137.5" x2="1137.5" y1="1811" y2="1843" gradientUnits="userSpaceOnUse"><stop offset="0" stop-color="#573dff" stop-opacity=".4"/><stop offset="1" stop-color="#5b42ff"/></linearGradient><linearGradient id="b" x1="1137" x2="1137" y1="1820" y2="1837" gradientUnits="userSpaceOnUse"><stop offset="0" stop-color="#573dff" stop-opacity=".4"/><stop offset="1" stop-color="#5b42ff"/></linearGradient><linearGradient id="c" x1="1150.5" x2="1150.5" y1="1829" y2="1846" gradientUnits="userSpaceOnUse"><stop offset="0" stop-color="#573dff" stop-opacity=".4"/><stop offset="1" stop-color="#5b42ff"/></linearGradient></defs><path fill="url(#a)" d="M1149.69 1820.57l-9.47-9.57H1125v32.15h24.69z" transform="translate(-1125 -1811)"/><path fill="#7f6bff" d="M15 0v9.51h9.42z"/><path fill="url(#b)" d="M1144.6 1825.25h-14.95a.66.66 0 0 1-.65-.66c0-.36.29-.65.65-.65h14.95c.35 0 .65.29.65.65 0 .36-.3.66-.65.66zm-9.75-3.94h-5.2a.65.65 0 0 1-.65-.65c0-.37.29-.66.65-.66h5.2c.36 0 .65.29.65.66 0 .36-.29.65-.65.65zm-5.2 6.56H1142c.36 0 .65.3.65.66 0 .36-.29.66-.65.66h-12.35a.66.66 0 0 1-.65-.66c0-.36.29-.66.65-.66zm0 3.94h9.75c.36 0 .65.29.65.66 0 .36-.29.65-.65.65h-9.75a.65.65 0 0 1-.65-.65c0-.37.29-.66.65-.66zm-.65 4.59c0 .36.29.66.65.66h7.8c.36 0 .65-.3.65-.66a.65.65 0 0 0-.65-.65h-7.8a.65.65 0 0 0-.65.65z" transform="translate(-1125 -1811)"/><path fill="url(#c)" d="M1150.45 1829a8.5 8.5 0 0 1 8.45 8.53 8.5 8.5 0 0 1-8.45 8.53 8.49 8.49 0 0 1-8.45-8.53 8.49 8.49 0 0 1 8.45-8.53z" transform="translate(-1125 -1811)"/><path fill="#fff" d="M28.26 22.28l-3.63 5.28-2.57-2.13a.65.65 0 0 0-.82 1.01l3.11 2.58c.12.1.26.15.41.15l.09-.01a.61.61 0 0 0 .44-.27l4.04-5.86a.65.65 0 0 0-1.07-.75z"/></svg>