<svg xmlns="http://www.w3.org/2000/svg" width="60" height="60" viewBox="0 0 60 60"><defs><linearGradient id="a" x1="893" x2="893" y1="1065" y2="1086" gradientUnits="userSpaceOnUse"><stop offset="0" stop-color="#d94cc6" stop-opacity=".5"/><stop offset="1" stop-color="#d93fc4"/></linearGradient><linearGradient id="b" x1="898" x2="898" y1="1059" y2="1070" gradientUnits="userSpaceOnUse"><stop offset="0" stop-color="#d94cc6" stop-opacity=".5"/><stop offset="1" stop-color="#d93fc4"/></linearGradient></defs><path fill="#f2f3fc" d="M0 30a30 30 0 1 1 60 0 30 30 0 0 1-60 0z"/><path fill="#fff" d="M17 16v30.34h25.68V16z"/><path fill="url(#a)" d="M891.77 1066.32h-8.14a.65.65 0 0 1-.63-.66c0-.37.28-.66.63-.66h8.14c.34 0 .62.29.62.66 0 .36-.28.66-.62.66zm0 3.67h-8.14a.65.65 0 0 1-.63-.66c0-.36.28-.66.63-.66h8.14c.34 0 .62.3.62.66 0 .36-.28.66-.62.66zm4.78 16.41h-12.49c-.53 0-.96-.3-.96-.66 0-.36.43-.66.96-.66h12.49c.53 0 .96.3.96.66 0 .36-.43.66-.96.66zm5.24-12.5h-18.16a.65.65 0 0 1-.63-.66c0-.37.28-.66.63-.66h18.16c.34 0 .62.29.62.66 0 .36-.28.66-.62.66zm.1 3.94h-18.16a.64.64 0 0 1-.63-.65c0-.37.28-.66.63-.66h18.16c.35 0 .63.29.63.66 0 .36-.28.65-.63.65zm0 4.61h-18.16a.64.64 0 0 1-.63-.66c0-.36.28-.66.63-.66h18.16c.35 0 .63.3.63.66 0 .37-.28.66-.63.66z" transform="translate(-863 -1044)"/><path fill="url(#b)" d="M895 1059h6.31v11.01l-3.16-2.8-3.15 2.8z" transform="translate(-863 -1044)"/></svg>