<svg width="598" height="759" viewBox="0 0 598 759" xmlns="http://www.w3.org/2000/svg">
    <title>
        Flowchart
    </title>
    <defs>
        <linearGradient x1="50%" y1="0%" x2="50%" y2="100%" id="a">
            <stop stop-color="#573DFF" stop-opacity=".4" offset="0%"/>
            <stop stop-color="#5B42FF" offset="100%"/>
        </linearGradient>
        <linearGradient x1="50%" y1="0%" x2="50%" y2="100%" id="b">
            <stop stop-color="#333DFF" stop-opacity=".6" offset="0%"/>
            <stop stop-color="#333DFF" offset="100%"/>
        </linearGradient>
        <linearGradient x1="50%" y1="0%" x2="50%" y2="100%" id="c">
            <stop stop-color="#FF8269" stop-opacity=".4" offset="0%"/>
            <stop stop-color="#FF6C4F" offset="100%"/>
        </linearGradient>
        <linearGradient x1="50%" y1="0%" x2="50%" y2="100%" id="d">
            <stop stop-color="#D94CC6" stop-opacity=".5" offset="0%"/>
            <stop stop-color="#D93FC4" offset="100%"/>
        </linearGradient>
        <linearGradient x1="50%" y1="0%" x2="50%" y2="100%" id="e">
            <stop stop-color="#16E0B5" stop-opacity=".6" offset="0%"/>
            <stop stop-color="#0BE0B2" offset="100%"/>
        </linearGradient>
        <linearGradient x1="0%" y1="100%" y2="0%" id="f">
            <stop stop-color="#FF5781" offset="0%"/>
            <stop stop-color="#FFAAA6" stop-opacity=".3" offset="100%"/>
        </linearGradient>
    </defs>
    <g fill="none" fill-rule="evenodd">
        <g stroke="#E9ECF4" stroke-width="4">
            <path d="M268.044 131.062H122.328c-7.183 0-13.006 5.82-13.006 13.008v97.447c0 7.184 5.811 13.008 12.993 13.008h143.74"/>
            <path d="M415.589 322.378H382.38c-7.175 0-12.992 5.814-12.992 12.992v113.45c0 7.175 5.824 12.992 12.997 12.992h32.625"/>
            <path d="M169.507 254.525H417.34c7.18 0 13.002 5.818 13.002 13.004v50.5"/>
            <path d="M155.523 463.303h-41.316c-2.698 0-4.885-3.569-4.885-7.984V331.854c0-4.41 2.185-7.985 4.883-7.985h40.74"/>
            <path d="M238.237 254.525h49.625c7.176 0 12.994 5.823 12.994 13.003v56.341"/>
            <path d="M301.577 323.87H245.27c-7.176 0-12.994 5.82-12.994 13.008v110.455"/>
            <path d="M214.392 463.303h-33.208c-7.176 0-12.993 5.814-12.993 12.994v36.218"/>
            <path d="M121.99 463.303H155.2c7.175 0 12.992 5.814 12.992 12.994v36.218"/>
            <path d="M404.784 461.812h15.687c7.18 0 13.002 5.824 13.002 13.005v67.524"/>
            <path d="M186.075 463.165h40.161c3.336 0 6.04-3.574 6.04-7.98V344"/>
            <path d="M127.207 254.525h27.638c7.178 0 12.997 5.82 12.997 13.006v50.978"/>
        </g>
        <path d="M588.31 89.406c-5.916-6.436-8.655-9.65-21.002-9.65-12.346 0-94.395 54.328-268.728-78.927C125.88 134.084 41.69 79.755 29.864 79.755c-11.825 0-15.09 3.215-21 9.65C2.955 95.839 0 103.459 0 112.265V417.19C0 581.79 98.246 695.266 294.74 757.621a13 13 0 0 0 7.69.054c196.486-59.338 294.73-172.833 294.73-340.485V112.264c-.002-8.81-2.955-16.424-8.85-22.858z" fill="#E9ECF4" opacity=".29"/>
        <text opacity=".8" font-family="SFUIDisplay-Regular, SF UI Display" font-size="14" letter-spacing=".087" fill="#000">
            <tspan x="222.634" y="238">chooses investment fund</tspan>
        </text>
        <text opacity=".8" font-family="SFUIDisplay-Light, SF UI Display" font-size="14" font-weight="300" letter-spacing=".087" fill="#000">
            <tspan x="384.41" y="389">Crypto Managed</tspan> <tspan x="419.287" y="410">Fund</tspan>
        </text>
        <text opacity=".8" font-family="SFUIDisplay-Light, SF UI Display" font-size="14" font-weight="300" letter-spacing=".087" fill="#000">
            <tspan x="249.677" y="389">Exchange Traded</tspan> <tspan x="286.693" y="410">Fund</tspan>
        </text>
        <text opacity=".8" font-family="SFUIDisplay-Light, SF UI Display" font-size="14" font-weight="300" letter-spacing=".087" fill="#000">
            <tspan x="136.973" y="389">Real Estate</tspan> <tspan x="154.581" y="410">Fund</tspan>
        </text>
        <text opacity=".8" font-family="SFUIDisplay-Light, SF UI Display" font-size="14" font-weight="300" letter-spacing=".087" fill="#000">
            <tspan x="354.83" y="599.76">Funds managers trade on </tspan> <tspan x="336.474" y="620.76">specially secured accounts with </tspan> <tspan x="381.307" y="641.76">cryptocurrencies</tspan>
        </text>
        <text opacity=".8" font-family="SFUIDisplay-Light, SF UI Display" font-size="14" font-weight="300" letter-spacing=".087" fill="#000">
            <tspan x="78.434" y="599.76">Trustless physical storage, real </tspan> <tspan x="69.158" y="620.76">ownership, no CFDs or other trust </tspan> <tspan x="111.749" y="641.76">related agreements</tspan>
        </text>
        <text opacity=".8" font-family="SFUIDisplay-Light, SF UI Display" font-size="14" font-weight="300" letter-spacing=".087" fill="#000">
            <tspan x="276.353" y="198">Investor</tspan>
        </text>
        <g transform="translate(260.023 93)">
            <ellipse fill="#DFDBFC" cx="39.867" cy="40.264" rx="39.867" ry="39.892"/>
            <path d="M33.102 53.554l-6.781 3.702a6.094 6.094 0 0 0-1.088.775 22.614 22.614 0 0 0 14.634 5.348 22.63 22.63 0 0 0 14.549-5.273 6.016 6.016 0 0 0-1.196-.801l-7.261-3.633a2.771 2.771 0 0 1-1.531-2.478v-2.851c.204-.233.437-.531.687-.884a16.724 16.724 0 0 0 2.257-4.552 2.282 2.282 0 0 0 1.618-2.171v-3.043c0-.67-.298-1.268-.76-1.687v-4.399s.903-6.845-8.362-6.845c-9.266 0-8.363 6.845-8.363 6.845v4.4a2.27 2.27 0 0 0-.76 1.686v3.043c0 .801.422 1.507 1.052 1.914.76 3.31 2.75 5.693 2.75 5.693v2.78a2.774 2.774 0 0 1-1.445 2.431z" fill="#FFF"/>
            <path d="M23.116.003C10.566-.21.218 9.795.003 22.353c-.121 7.12 3.05 13.52 8.1 17.776.33-.289.684-.553 1.078-.768l6.782-3.7a2.772 2.772 0 0 0 1.443-2.434v-2.78s-1.99-2.383-2.75-5.693a2.283 2.283 0 0 1-1.051-1.914v-3.043c0-.67.298-1.268.76-1.687v-4.399s-.903-6.846 8.362-6.846 8.362 6.846 8.362 6.846v4.4a2.27 2.27 0 0 1 .76 1.686v3.043a2.282 2.282 0 0 1-1.618 2.17 16.724 16.724 0 0 1-2.257 4.553c-.25.352-.483.651-.687.884v2.85c0 1.05.593 2.01 1.53 2.479l7.263 3.633c.435.218.829.493 1.192.8 4.897-4.087 8.06-10.197 8.178-17.078C45.667 10.573 35.667.218 23.116.003z" fill="url(#a)" opacity=".8" transform="translate(17.139 17.895)"/>
        </g>
        <g transform="translate(394.154 283.247)">
            <ellipse fill="#E6E7FB" cx="39.867" cy="40.264" rx="39.867" ry="39.892"/>
            <path d="M.195 33.867l10.592-8.807-1.573 6.431c2.592.569 10.511 3.127 11.663-1.563 1.096-4.597-6.276-5.85-9.229-6.573v-1.523L7.784 16.3l-1.988.506 1.258-5.072c0-.853-.288-1.848-1.727-2.133l-2.736-.71 1.008-3.98L8.782 6.19c.72.142 1.584.426 2.448.569L12.814.647l3.743.995-1.583 5.97c1.007.284 2.015.426 3.023.71l1.44-5.97 3.744.995-1.584 6.112c5.04 1.564 8.639 3.98 7.919 8.529-.432 3.269-2.304 4.975-4.895 5.543 3.455 1.706 5.183 4.407 3.455 9.097-2.016 5.828-6.911 6.255-13.39 5.117L13.102 44l-3.744-1.138 1.584-6.112c-1.008-.284-2.016-.568-3.024-.71l-1.583 6.112-3.744-.995 1.584-6.254c-.864-.285-1.728-.427-2.736-.711l-1.244-.325zm13.915-21.85l-1.872 7.534c2.16.569 8.783 2.701 9.79-1.563 1.009-4.407-5.759-5.402-7.918-5.97z" transform="translate(32.758 18.805)" fill="url(#b)"/>
            <g fill="#FFF">
                <path d="M17.364 40.637l13.249 8.696L44.437 40.6l-13.82-22.705z"/>
                <path d="M17.18 43.13l13.574 19.8 13.611-19.8-13.61 8.866z"/>
            </g>
        </g>
        <g transform="translate(129.617 283.247)">
            <ellipse fill="#FAE1DE" cx="39.867" cy="40.264" rx="39.867" ry="39.892"/>
            <path d="M22.355 35.045l17.512-12.847 18.257 12.847v19.867a4.001 4.001 0 0 1-4 3.993h-27.77a4 4 0 0 1-3.999-3.993V35.045z" fill="#FFF"/>
            <path d="M58.895 38.505L40.207 24.408l-18.69 14.097a2.271 2.271 0 0 1-3.173-.437 2.25 2.25 0 0 1 .438-3.16l19.9-15.011a2.534 2.534 0 0 1 3.05 0l19.9 15.01a2.25 2.25 0 0 1 .437 3.161 2.272 2.272 0 0 1-3.174.437z" fill="#FF8269"/>
            <path d="M15.649 29.355a3.997 3.997 0 0 1 4.006-4.003h5.4a4.006 4.006 0 0 1 4.007 4.003v10.164H15.649V29.355z" fill="url(#c)" transform="translate(17.884 19.387)"/>
        </g>
        <g transform="translate(261.513 283.247)">
            <ellipse fill="#F3D7F2" cx="39.867" cy="40.264" rx="39.867" ry="39.892"/>
            <path d="M27.29 21.467a3.996 3.996 0 0 0-4 3.994v30.695a3.991 3.991 0 0 0 4 3.995h25.154a3.996 3.996 0 0 0 3.999-3.995V25.461a3.991 3.991 0 0 0-3.999-3.994H27.29z" fill="#FFF"/>
            <path d="M17.654 14.042H7.143c-.448 0-.809-.375-.809-.84 0-.463.361-.838.809-.838h10.511c.447 0 .809.375.809.839 0 .464-.362.839-.809.839z" fill="url(#d)" transform="translate(20.865 15.658)"/>
            <path d="M17.654 18.724H7.143c-.448 0-.809-.375-.809-.84 0-.463.361-.838.809-.838h10.511c.447 0 .809.375.809.839 0 .464-.362.839-.809.839z" fill="url(#d)" transform="translate(20.865 15.658)"/>
            <path d="M23.827 39.651H7.709c-.686 0-1.24-.375-1.24-.839 0-.464.554-.839 1.24-.839h16.118c.685 0 1.24.375 1.24.84 0 .463-.555.838-1.24.838z" fill="url(#d)" transform="translate(20.865 15.658)"/>
            <path d="M30.592 23.707H7.142c-.447 0-.808-.375-.808-.84 0-.463.361-.838.809-.838h23.449c.447 0 .808.375.808.839 0 .464-.361.839-.808.839z" fill="url(#d)" transform="translate(20.865 15.658)"/>
            <path d="M30.727 28.742H7.277c-.447 0-.808-.375-.808-.84 0-.463.361-.838.808-.838h23.45c.447 0 .808.375.808.839 0 .464-.361.84-.808.84z" fill="url(#d)" transform="translate(20.865 15.658)"/>
            <path d="M30.727 34.616H7.277c-.447 0-.808-.375-.808-.839 0-.464.361-.839.808-.839h23.45c.447 0 .808.375.808.84 0 .463-.361.838-.808.838z" fill="url(#d)" transform="translate(20.865 15.658)"/>
            <path d="M21.716 4.935c0-.552.438-.999 1-.999h6.146c.551 0 .998.452.998 1v13.046l-4.072-3.571-4.072 3.571V4.935z" fill="url(#d)" transform="translate(20.865 15.658)"/>
        </g>
        <g transform="translate(394.154 495.008)">
            <ellipse fill="url(#e)" opacity=".2" cx="39.867" cy="39.892" rx="39.867" ry="39.892"/>
            <g fill-rule="nonzero">
                <path d="M19.811 20.58c.74-1.757 1.366-3.135 1.88-4.134.386-.74.747-1.365 1.085-1.873a9.774 9.774 0 0 1 1.229-1.486 4.728 4.728 0 0 1 1.663-1.088c.626-.242 1.325-.363 2.097-.363h3.188v4.641c0 .21.077.391.23.544a.74.74 0 0 0 .541.23c.225 0 .41-.073.554-.218L39.991 9.1a.753.753 0 0 0 .217-.556.755.755 0 0 0-.217-.557L32.302.276c-.192-.161-.386-.241-.578-.241a.75.75 0 0 0-.555.217.756.756 0 0 0-.216.556v4.64h-3.188c-1.093 0-2.121.134-3.086.4-.964.265-1.82.604-2.567 1.015-.747.41-1.47.962-2.169 1.655a19.293 19.293 0 0 0-1.783 2.007c-.49.644-1.004 1.45-1.542 2.416a35.752 35.752 0 0 0-1.302 2.538c-.33.726-.727 1.62-1.193 2.683-.739 1.757-1.366 3.135-1.88 4.134a20.663 20.663 0 0 1-1.084 1.873 9.787 9.787 0 0 1-1.23 1.486 4.726 4.726 0 0 1-1.662 1.088c-.627.242-1.326.363-2.097.363H.77a.748.748 0 0 0-.554.217.754.754 0 0 0-.217.556v4.64c0 .226.073.412.218.557a.75.75 0 0 0 .554.217h5.399c1.093 0 2.12-.133 3.085-.399.964-.266 1.82-.604 2.566-1.015.748-.411 1.47-.963 2.17-1.656a19.334 19.334 0 0 0 1.783-2.006c.49-.645 1.004-1.45 1.542-2.417.539-.967.973-1.813 1.302-2.538.329-.725.726-1.619 1.192-2.683z" fill="url(#e)" transform="translate(20.12 20.878)"/>
                <path d="M20.89 32.514h5.4c.706 0 1.361.117 1.964.35.602.235 1.108.516 1.518.847.41.33.82.785 1.23 1.365.409.58.734 1.092.975 1.535.241.444.538 1.028.892 1.753 1.237-2.917 2.338-5.116 3.302-6.599-2.571-3.625-5.865-5.438-9.882-5.438h-5.398a.749.749 0 0 0-.555.217.754.754 0 0 0-.216.556v4.64c0 .227.072.412.216.556a.75.75 0 0 0 .555.218z" fill="#FFF"/>
                <path d="M52.423 42.811c-.193-.16-.386-.24-.58-.24a.748.748 0 0 0-.553.216.754.754 0 0 0-.217.556v4.641h-3.19a5.38 5.38 0 0 1-1.963-.35c-.603-.234-1.11-.516-1.519-.847-.41-.33-.82-.785-1.229-1.366-.41-.58-.735-1.092-.976-1.535a46.339 46.339 0 0 1-.892-1.752c-1.237 2.9-2.33 5.1-3.277 6.599.433.628.883 1.188 1.35 1.679.465.491.907.922 1.325 1.293.417.37.891.693 1.422.967.53.274.996.503 1.398.689.402.185.908.334 1.518.447.61.112 1.125.198 1.543.253.417.056.988.097 1.71.121.724.025 1.31.032 1.76.025.45-.009.506-.037 1.02-.037v4.641c0 .21.077.39.23.544a.74.74 0 0 0 .541.23c.226 0 .41-.073.554-.218l7.713-7.734a.755.755 0 0 0 .216-.556.751.751 0 0 0-.217-.556l-7.687-7.71z" fill="#FFF"/>
            </g>
        </g>
        <g transform="translate(128.127 495.008)">
            <ellipse fill="#FAE1DE" cx="39.867" cy="40.264" rx="39.867" ry="39.892"/>
            <g transform="translate(19.375 20.132)">
                <rect fill="url(#f)" x=".168" y=".265" width="40.705" height="40.099" rx="4"/>
                <path d="M4.237 26.62V12.853h1.227V9.1H4.237V5.347c0-.714.615-1.316 1.345-1.316h29.74c.73 0 1.307.602 1.307 1.316v29.06c0 .714-.615 1.316-1.345 1.316H5.582c-.73 0-1.345-.602-1.345-1.316v-4.034h1.227V26.62H4.237z" fill="#FFF"/>
                <path d="M20.452 29.204c-5.276 0-9.553-4.184-9.553-9.346s4.277-9.346 9.553-9.346c5.276 0 9.553 4.184 9.553 9.346s-4.277 9.346-9.553 9.346zm0-5.124c2.383 0 4.315-1.89 4.315-4.222 0-2.331-1.932-4.221-4.315-4.221-2.383 0-4.315 1.89-4.315 4.221 0 2.332 1.932 4.222 4.315 4.222zm0-12.409c-.458 0-.85.384-.85.832v1.695c0 .447.392.831.85.831.458 0 .85-.384.85-.831v-1.695c0-.448-.392-.832-.85-.832zm0 13.048c-.458 0-.85.384-.85.832v1.695c0 .447.392.831.85.831.458 0 .85-.384.85-.831V25.55a.835.835 0 0 0-.85-.832zm8.368-4.86c0-.449-.392-.832-.85-.832h-1.732c-.458 0-.85.383-.85.831 0 .448.392.832.85.832h1.732c.49 0 .85-.352.85-.832zm-13.304 0c0-.449-.392-.832-.85-.832h-1.732c-.458 0-.85.383-.85.831 0 .448.392.832.85.832h1.732c.458 0 .85-.352.85-.832zm10.852-5.79a.842.842 0 0 0-1.176 0l-1.243 1.216a.798.798 0 0 0 0 1.151c.327.32.85.32 1.177 0l1.242-1.215c.327-.288.327-.832 0-1.151zm-9.414 9.211a.842.842 0 0 0-1.176 0l-1.243 1.215a.798.798 0 0 0 0 1.152c.327.32.85.32 1.177 0l1.242-1.216c.327-.287.327-.831 0-1.15zm9.414 2.399a.798.798 0 0 0 0-1.152l-1.242-1.215a.842.842 0 0 0-1.177 0 .798.798 0 0 0 0 1.151l1.243 1.216c.326.32.85.32 1.176 0zm-9.414-9.21a.798.798 0 0 0 0-1.152l-1.242-1.247a.842.842 0 0 0-1.177 0 .798.798 0 0 0 0 1.151l1.243 1.215a.814.814 0 0 0 1.176.032z" fill="url(#f)"/>
            </g>
        </g>
    </g>
</svg>
