<svg xmlns="http://www.w3.org/2000/svg" width="39" height="32" viewBox="0 0 39 32"><defs><linearGradient id="a" x1="1142.5" x2="1142.5" y1="1958" y2="1985" gradientUnits="userSpaceOnUse"><stop offset="0" stop-color="#16e0b5" stop-opacity=".6"/><stop offset="1" stop-color="#0be0b2"/></linearGradient><linearGradient id="b" x1="1139" x2="1139" y1="1956" y2="1971" gradientUnits="userSpaceOnUse"><stop offset="0" stop-color="#16e0b5" stop-opacity=".6"/><stop offset="1" stop-color="#0be0b2"/></linearGradient></defs><path fill="url(#a)" d="M1144.82 1961.4c.57 0 1.69-.46 2.18-.81l2.7-2.59 6.48 10.34s-2.96 1.19-4.32 2.59c-2.21 2.26-3.78 5.81-3.78 5.81-.57-.62-2.11-2.46-2.77-1.92a2.34 2.34 0 0 0-.41 2.88l.03.09h-.04a1.43 1.43 0 0 0-1.86-.04l-.03.04a2.1 2.1 0 0 0-.65 1.9l-.18.15a1.37 1.37 0 0 0-1.66.11 2.11 2.11 0 0 0-.67 1.72l-.51.38c-1.65.41-1.51 2.45-1.51 2.45-.15.16-.9-.3-1.11-.35a.92.92 0 0 1-.55-.41 1 1 0 0 1-.14-.73c.04-.24.16-.49.34-.65l2.75-2.47a.6.6 0 0 0 .23-.49c.14-.37-.31-.21-.44-.07l-3.78 3.23c-.68.72-1.6.34-1.91.28a1.06 1.06 0 0 1-.74-.55 1.5 1.5 0 0 1 .25-1.87l5.23-4.45c.78-.84-.25-.42-.13-.52a76.9 76.9 0 0 1-5.77 4.62c-.42.28-1 .12-1.06.11-.46-.05-.92-.29-1.11-.6a1.6 1.6 0 0 1 .15-1.8l.51-.42 5.69-4.64a.6.6 0 0 0 .23-.49c.05-.47-.42-.28-.8-.01l-6.47 5.17c-.48.43-1.62.16-1.98-.45-.36-.57-.25-1.45.26-1.87l11.49-10.1c.38-.38.94-1.68 1.02-3.56h4.84z" transform="translate(-1120 -1954)"/><path fill="#95ecd8" d="M28.83 23.2l-.82-1.4-.65-1.09a1.54 1.54 0 0 0-2.14-.18 2.31 2.31 0 0 0-.71 1.9l2.32 3.86a1.5 1.5 0 0 0 1.59-.22c.77-.66.97-1.95.41-2.87zm-4.48-8.29c-.45-1.63-.71-4.78-.71-4.78-.31-.82-1.33-1.68-2.46-2.38L18.86 6.4c-.35-.15-.62-.24-.73-.29-.99-.27-1.76-.2-2.54-.19-.94.01-1.84.01-2.47.21a3.3 3.3 0 0 1-2.6-.28L9.1 5 1 13.4l3.24 2.75.65.43a5.9 5.9 0 0 1 2.21 2.77l.28 1.42 11.5-10.1c.92.65 1.6 1.95 1.6 1.95 1.13 4.22 2.53 4.25 3.38 3.75.45-.27.65-.89.49-1.46zm-6.24 13.11c-.4.35-.64.93-.63 1.47 0 0 .07.72.4 1.25h.03l.26.44c.46.78 1.4.96 2.06.42.32-.27.51-.7.58-1.15l-1.63-2.7c-.36-.08-.76.02-1.07.27zm3.13 2.09a1.4 1.4 0 0 0 1.52.2c.58-.28.91-.92.95-1.58l-2.01-3.35a1.36 1.36 0 0 0-1.28.27c-.47.4-.71 1.09-.67 1.72l-.1.08zm1.67-6.61l.04-.04a1.4 1.4 0 0 1 1.39-.24l2.11 3.51c.01.6-.22 1.2-.66 1.57l-.04.04c-.45.38-1.03.42-1.52.18l-1.97-3.28c-.05-.67.18-1.34.65-1.74z"/><path fill="url(#b)" d="M1158.05 1968.17l-1.65 1.67c-.46.46-1.14.38-1.52-.16l-7.63-10.9a1.46 1.46 0 0 1 .13-1.82l1.65-1.66c.46-.46 1.14-.39 1.52.16l7.64 10.89c.38.55.32 1.37-.14 1.82zm-26.85-9.39c.38-.54.32-1.36-.14-1.82l-1.65-1.66c-.46-.46-1.14-.39-1.52.16l-7.64 10.89c-.38.55-.32 1.37.14 1.82l1.65 1.67c.46.46 1.14.38 1.52-.16z" transform="translate(-1120 -1954)"/></svg>