<svg xmlns="http://www.w3.org/2000/svg" width="60" height="60" viewBox="0 0 60 60"><defs><linearGradient id="a" x1="1236" x2="1236" y1="1059" y2="1074" gradientUnits="userSpaceOnUse"><stop offset="0" stop-color="#ff8269" stop-opacity=".4"/><stop offset="1" stop-color="#ff6c4f"/></linearGradient></defs><path fill="#f2f3fc" d="M0 30a30 30 0 1 1 60 0 30 30 0 0 1-60 0z"/><path fill="#fff" d="M16 26.86L29.42 17l13.98 9.86v18.31H16z"/><path fill="url(#a)" d="M1249.42 1073.67l-14.32-10.82-14.32 10.82a1.73 1.73 0 1 1-2.09-2.76l15.24-11.52c.7-.52 1.65-.52 2.34 0l15.25 11.52a1.73 1.73 0 0 1-2.1 2.76z" transform="translate(-1205 -1044)"/><path fill="#ff8269" d="M25 37.6a3.6 3.6 0 0 1 3.6-3.6h2.8a3.6 3.6 0 0 1 3.6 3.6V45H25z"/></svg>