<svg width="125" height="125" viewBox="0 0 125 125" xmlns="http://www.w3.org/2000/svg">
    <title>
        Group
    </title>
    <defs>
        <linearGradient x1="0%" y1="100%" y2="0%" id="a">
            <stop stop-color="#DD4DFA" offset="0%"/>
            <stop stop-color="#FF8D5E" offset="49.667%"/>
            <stop stop-color="#FFB942" offset="89.286%"/>
            <stop stop-color="#FFBE3E" offset="100%"/>
        </linearGradient>
        <filter x="-19.3%" y="-16.7%" width="138.6%" height="133.3%" filterUnits="objectBoundingBox" id="b">
            <feOffset in="SourceAlpha" result="shadowOffsetOuter1"/>
            <feGaussianBlur stdDeviation="4.5" in="shadowOffsetOuter1" result="shadowBlurOuter1"/>
            <feColorMatrix values="0 0 0 0 0.414603028 0 0 0 0 0.499707015 0 0 0 0 0.569276148 0 0 0 0.475854846 0" in="shadowBlurOuter1" result="shadowMatrixOuter1"/>
            <feMerge>
                <feMergeNode in="shadowMatrixOuter1"/>
                <feMergeNode in="SourceGraphic"/>
            </feMerge>
        </filter>
        <linearGradient x1="50%" y1="0%" x2="50%" y2="100%" id="c">
            <stop stop-color="#FFF" stop-opacity=".2" offset="0%"/>
            <stop stop-color="#FFF" offset="100%"/>
        </linearGradient>
        <linearGradient x1="50%" y1="0%" x2="50%" y2="100%" id="d">
            <stop stop-color="#FFF" stop-opacity=".5" offset="0%"/>
            <stop stop-color="#FFF" offset="100%"/>
        </linearGradient>
    </defs>
    <g fill="none" fill-rule="evenodd">
        <circle fill="url(#a)" cx="62.272" cy="62.272" r="62.272"/>
        <g filter="url(#b)" transform="translate(28.261 24.261)">
            <g opacity=".4">
                <path fill="url(#c)" opacity=".2" d="M34.779 79.368l.415-39.79L1.04 20.088.537 59.392z" transform="translate(.321 .532)"/>
                <path fill="url(#d)" d="M1.28 20.089l32.803 19.488L68.237 20.09 35.521.113z" transform="translate(.321 .532)"/>
                <path fill="url(#c)" opacity=".9" d="M34.499 79.368l-.416-39.79 34.154-19.489.503 39.303z" transform="translate(.321 .532)"/>
            </g>
            <path fill="url(#c)" opacity=".2" d="M17.941 40.943l.214-20.527L.537 10.363l-.26 20.275z" transform="translate(17.004 19.76)"/>
            <path fill="url(#d)" d="M.66 10.363l16.922 10.053 17.62-10.053L18.323.058z" transform="translate(17.004 19.76)"/>
            <path fill="url(#c)" opacity=".9" d="M17.797 40.943l-.215-20.527 17.62-10.053.259 20.275z" transform="translate(17.004 19.76)"/>
        </g>
    </g>
</svg>
