<svg xmlns="http://www.w3.org/2000/svg" width="344" height="368" viewBox="0 0 344 368"><defs><linearGradient id="a" x1="875.03" x2="688" y1="328.08" y2="498.12" gradientUnits="userSpaceOnUse"><stop offset="0" stop-color="#f5f9fc"/><stop offset=".25" stop-color="#f7fafc"/><stop offset="1" stop-color="#f0f3fa"/></linearGradient><linearGradient id="b" x1="872.08" x2="686" y1="330.05" y2="498.86" gradientUnits="userSpaceOnUse"><stop offset="0" stop-color="#f5f9fc"/><stop offset=".25" stop-color="#f7fafc"/><stop offset="1" stop-color="#f0f3fa"/></linearGradient><linearGradient id="c" x1="880" x2="689" y1="328" y2="598" gradientUnits="userSpaceOnUse"><stop offset="0" stop-color="#211d6e"/><stop offset="1" stop-color="#0c0c3b"/></linearGradient><linearGradient id="d" x1="860.04" x2="542" y1="579.67" y2="649.4" gradientUnits="userSpaceOnUse"><stop offset="0" stop-color="#f5f9fc"/><stop offset=".25" stop-color="#f7fafc"/><stop offset="1" stop-color="#f0f3fa"/></linearGradient><linearGradient id="e" x1="648.18" x2="806.16" y1="445.87" y2="641.63" gradientUnits="userSpaceOnUse"><stop offset="0" stop-color="#f5f9fc" stop-opacity=".67"/><stop offset="1" stop-color="#f5f8ff"/></linearGradient><linearGradient id="f" x1="855" x2="616" y1="509" y2="647" gradientUnits="userSpaceOnUse"><stop offset="0" stop-color="#211d6e" stop-opacity=".15"/><stop offset="1" stop-color="#0c0c3b" stop-opacity=".15"/></linearGradient><filter id="g" width="200%" height="200%" x="-50%" y="-50%"><feGaussianBlur in="SourceGraphic" result="SvgjsFeGaussianBlur1039Out" stdDeviation="1"/></filter><mask id="h"><path fill="#fff" d="M851.75 601.28l-158.47-91.16c-2.6-1.49-6.81-1.49-9.39 0l-66.96 38.77c-2.59 1.5-2.57 3.92.03 5.42l158.47 91.16a10.44 10.44 0 0 0 9.4 0l66.96-38.77c2.58-1.5 2.57-3.93-.04-5.42"/></mask><linearGradient id="i" x1="705" x2="623" y1="593" y2="640" gradientUnits="userSpaceOnUse"><stop offset="0" stop-color="#211d6e" stop-opacity=".15"/><stop offset="1" stop-color="#0c0c3b" stop-opacity=".15"/></linearGradient><filter id="j" width="200%" height="200%" x="-50%" y="-50%"><feGaussianBlur in="SourceGraphic" result="SvgjsFeGaussianBlur1048Out" stdDeviation="1"/></filter><mask id="k"><path fill="#fff" d="M702.62 618.47l-43.1-24.79a6.24 6.24 0 0 0-5.66 0l-30.69 17.77c-1.57.9-1.56 2.37.01 3.27l43.1 24.79c1.57.9 4.1.9 5.66 0l30.7-17.78c1.56-.9 1.55-2.36-.02-3.26"/></mask><linearGradient id="l" x1="709" x2="698" y1="408.19" y2="415" gradientUnits="userSpaceOnUse"><stop offset="0" stop-color="#fff" stop-opacity="0"/><stop offset="1" stop-color="#fff"/></linearGradient><linearGradient id="m" x1="709" x2="698" y1="415.19" y2="422" gradientUnits="userSpaceOnUse"><stop offset="0" stop-color="#fff" stop-opacity="0"/><stop offset="1" stop-color="#fff"/></linearGradient><linearGradient id="n" x1="709" x2="698" y1="421.19" y2="428" gradientUnits="userSpaceOnUse"><stop offset="0" stop-color="#fff" stop-opacity="0"/><stop offset="1" stop-color="#fff"/></linearGradient><linearGradient id="o" x1="709" x2="698" y1="428.19" y2="435" gradientUnits="userSpaceOnUse"><stop offset="0" stop-color="#fff" stop-opacity="0"/><stop offset="1" stop-color="#fff"/></linearGradient><linearGradient id="p" x1="669" x2="676" y1="408" y2="402" gradientUnits="userSpaceOnUse"><stop offset="0" stop-color="#ff6189"/><stop offset="1" stop-color="#ffaaa6" stop-opacity=".3"/></linearGradient><linearGradient id="q" x1="604" x2="611.5" y1="442.18" y2="437" gradientUnits="userSpaceOnUse"><stop offset="0" stop-color="#07ff49"/><stop offset="1" stop-color="#00fcfc"/></linearGradient><linearGradient id="r" x1="688" x2="681" y1="403.04" y2="409" gradientUnits="userSpaceOnUse"><stop offset="0" stop-color="#fff" stop-opacity=".4"/><stop offset="1" stop-color="#fff" stop-opacity=".7"/></linearGradient><linearGradient id="s" x1="676" x2="669" y1="409.04" y2="415" gradientUnits="userSpaceOnUse"><stop offset="0" stop-color="#fff" stop-opacity=".4"/><stop offset="1" stop-color="#fff" stop-opacity=".7"/></linearGradient><linearGradient id="t" x1="698" x2="691" y1="396.04" y2="402" gradientUnits="userSpaceOnUse"><stop offset="0" stop-color="#fff" stop-opacity=".4"/><stop offset="1" stop-color="#fff" stop-opacity=".7"/></linearGradient><clipPath id="u"><path fill="#fff" d="M708 389.22L725.03 379v2.73L708 391.95z"/></clipPath><linearGradient id="v" x1="689" x2="673" y1="380.78" y2="391" gradientUnits="userSpaceOnUse"><stop offset="0" stop-color="#fff" stop-opacity=".4"/><stop offset="1" stop-color="#fff" stop-opacity=".7"/></linearGradient><linearGradient id="w" x1="708" x2="692" y1="369.78" y2="380" gradientUnits="userSpaceOnUse"><stop offset="0" stop-color="#fff" stop-opacity=".4"/><stop offset="1" stop-color="#fff" stop-opacity=".7"/></linearGradient><linearGradient id="x" x1="722" x2="712" y1="361.34" y2="369" gradientUnits="userSpaceOnUse"><stop offset="0" stop-color="#fff" stop-opacity=".4"/><stop offset="1" stop-color="#fff" stop-opacity=".7"/></linearGradient><linearGradient id="y" x1="592" x2="576" y1="502.64" y2="512" gradientUnits="userSpaceOnUse"><stop offset="0" stop-color="#fff" stop-opacity=".4"/><stop offset="1" stop-color="#fff" stop-opacity=".7"/></linearGradient><linearGradient id="z" x1="592" x2="576" y1="487.64" y2="497" gradientUnits="userSpaceOnUse"><stop offset="0" stop-color="#fff" stop-opacity=".4"/><stop offset="1" stop-color="#fff" stop-opacity=".7"/></linearGradient><linearGradient id="A" x1="592" x2="576" y1="515.64" y2="525" gradientUnits="userSpaceOnUse"><stop offset="0" stop-color="#fff" stop-opacity=".4"/><stop offset="1" stop-color="#fff" stop-opacity=".7"/></linearGradient><linearGradient id="B" x1="613" x2="608" y1="499.74" y2="504" gradientUnits="userSpaceOnUse"><stop offset="0" stop-color="#fff" stop-opacity=".4"/><stop offset="1" stop-color="#fff" stop-opacity=".7"/></linearGradient><linearGradient id="C" x1="613" x2="608" y1="510.74" y2="515" gradientUnits="userSpaceOnUse"><stop offset="0" stop-color="#fff" stop-opacity=".4"/><stop offset="1" stop-color="#fff" stop-opacity=".7"/></linearGradient><linearGradient id="D" x1="613" x2="608" y1="521.74" y2="526" gradientUnits="userSpaceOnUse"><stop offset="0" stop-color="#fff" stop-opacity=".4"/><stop offset="1" stop-color="#fff" stop-opacity=".7"/></linearGradient><linearGradient id="E" x1="613" x2="608" y1="532.74" y2="537" gradientUnits="userSpaceOnUse"><stop offset="0" stop-color="#fff" stop-opacity=".4"/><stop offset="1" stop-color="#fff" stop-opacity=".7"/></linearGradient><linearGradient id="F" x1="592" x2="576" y1="529.64" y2="539" gradientUnits="userSpaceOnUse"><stop offset="0" stop-color="#fff" stop-opacity=".4"/><stop offset="1" stop-color="#fff" stop-opacity=".7"/></linearGradient><linearGradient id="G" x1="647.5" x2="647.5" y1="469" y2="528" gradientUnits="userSpaceOnUse"><stop offset="0" stop-color="#00b8f4" stop-opacity=".4"/><stop offset="1" stop-color="#00b8f4"/></linearGradient><linearGradient id="H" x1="648.5" x2="648.5" y1="477" y2="529" gradientUnits="userSpaceOnUse"><stop offset="0" stop-color="#00b8f4" stop-opacity=".4"/><stop offset="1" stop-color="#00b8f4"/></linearGradient><linearGradient id="I" x1="650.5" x2="650.5" y1="478" y2="529" gradientUnits="userSpaceOnUse"><stop offset="0" stop-color="#00b8f4" stop-opacity=".4"/><stop offset="1" stop-color="#00b8f4"/></linearGradient><linearGradient id="J" x1="735.05" x2="689.78" y1="439" y2="492" gradientUnits="userSpaceOnUse"><stop offset="0" stop-color="#7f6bff" stop-opacity=".26"/><stop offset="1" stop-color="#7f6bff" stop-opacity=".52"/></linearGradient><linearGradient id="K" x1="736.01" x2="691.7" y1="439" y2="491" gradientUnits="userSpaceOnUse"><stop offset="0" stop-color="#7f6bff" stop-opacity=".26"/><stop offset="1" stop-color="#7f6bff" stop-opacity=".52"/></linearGradient><linearGradient id="L" x1="737.05" x2="691.78" y1="441" y2="478" gradientUnits="userSpaceOnUse"><stop offset="0" stop-color="#7f6bff" stop-opacity=".26"/><stop offset="1" stop-color="#7f6bff" stop-opacity=".52"/></linearGradient><linearGradient id="M" x1="690.09" x2="688.16" y1="476" y2="492" gradientUnits="userSpaceOnUse"><stop offset="0" stop-color="#7f6bff" stop-opacity=".26"/><stop offset="1" stop-color="#7f6bff" stop-opacity=".52"/></linearGradient><linearGradient id="N" x1="738.01" x2="693.7" y1="441" y2="492" gradientUnits="userSpaceOnUse"><stop offset="0" stop-color="#7f6bff" stop-opacity=".26"/><stop offset="1" stop-color="#7f6bff" stop-opacity=".52"/></linearGradient><linearGradient id="O" x1="739.05" x2="693.78" y1="462" y2="485" gradientUnits="userSpaceOnUse"><stop offset="0" stop-color="#7f6bff" stop-opacity=".26"/><stop offset="1" stop-color="#7f6bff" stop-opacity=".52"/></linearGradient><linearGradient id="P" x1="692.09" x2="690.16" y1="481" y2="493" gradientUnits="userSpaceOnUse"><stop offset="0" stop-color="#7f6bff" stop-opacity=".26"/><stop offset="1" stop-color="#7f6bff" stop-opacity=".52"/></linearGradient><linearGradient id="Q" x1="739.01" x2="694.7" y1="463" y2="494" gradientUnits="userSpaceOnUse"><stop offset="0" stop-color="#7f6bff" stop-opacity=".26"/><stop offset="1" stop-color="#7f6bff" stop-opacity=".52"/></linearGradient><linearGradient id="R" x1="611" x2="604" y1="444.04" y2="450" gradientUnits="userSpaceOnUse"><stop offset="0" stop-color="#fff" stop-opacity=".4"/><stop offset="1" stop-color="#fff" stop-opacity=".7"/></linearGradient><linearGradient id="S" x1="622" x2="615" y1="437.04" y2="443" gradientUnits="userSpaceOnUse"><stop offset="0" stop-color="#fff" stop-opacity=".4"/><stop offset="1" stop-color="#fff" stop-opacity=".7"/></linearGradient><linearGradient id="T" x1="632" x2="625" y1="431.04" y2="437" gradientUnits="userSpaceOnUse"><stop offset="0" stop-color="#fff" stop-opacity=".4"/><stop offset="1" stop-color="#fff" stop-opacity=".7"/></linearGradient><linearGradient id="U" x1="638" x2="633" y1="443.74" y2="448" gradientUnits="userSpaceOnUse"><stop offset="0" stop-color="#fff" stop-opacity="0"/><stop offset="1" stop-color="#fff"/></linearGradient><linearGradient id="V" x1="638" x2="633" y1="449.74" y2="454" gradientUnits="userSpaceOnUse"><stop offset="0" stop-color="#fff" stop-opacity="0"/><stop offset="1" stop-color="#fff"/></linearGradient><linearGradient id="W" x1="638" x2="633" y1="456.74" y2="461" gradientUnits="userSpaceOnUse"><stop offset="0" stop-color="#fff" stop-opacity="0"/><stop offset="1" stop-color="#fff"/></linearGradient><linearGradient id="X" x1="638" x2="633" y1="462.74" y2="467" gradientUnits="userSpaceOnUse"><stop offset="0" stop-color="#fff" stop-opacity="0"/><stop offset="1" stop-color="#fff"/></linearGradient><linearGradient id="Y" x1="647" x2="642" y1="437.74" y2="442" gradientUnits="userSpaceOnUse"><stop offset="0" stop-color="#fff" stop-opacity="0"/><stop offset="1" stop-color="#fff"/></linearGradient><linearGradient id="Z" x1="647" x2="642" y1="444.74" y2="449" gradientUnits="userSpaceOnUse"><stop offset="0" stop-color="#fff" stop-opacity="0"/><stop offset="1" stop-color="#fff"/></linearGradient><linearGradient id="aa" x1="647" x2="642" y1="450.74" y2="455" gradientUnits="userSpaceOnUse"><stop offset="0" stop-color="#fff" stop-opacity="0"/><stop offset="1" stop-color="#fff"/></linearGradient><linearGradient id="ab" x1="647" x2="642" y1="457.74" y2="462" gradientUnits="userSpaceOnUse"><stop offset="0" stop-color="#fff" stop-opacity="0"/><stop offset="1" stop-color="#fff"/></linearGradient></defs><path fill="url(#a)" d="M884.17 595.54l-3.23 1.87.44-154.2c.01-4.4-3.09-9.75-6.93-11.96L692.94 326.82c-1.93-1.1-3.67-1.22-4.93-.5l3.21-1.85c1.27-.73 3.02-.63 4.95.48l181.5 104.44.01-.01c3.84 2.21 6.94 7.56 6.92 11.96zM688.01 326.33H688zm194.13 273.65l-3.22 1.87c1.24-.72 2.02-2.26 2.02-4.44l3.23-1.86c-.01 2.18-.78 3.71-2.03 4.43zm-3.22 1.87z" transform="translate(-541 -324)"/><path fill="url(#b)" d="M873.92 430.38c3.84 2.21 6.94 7.56 6.93 11.96l-.44 154.2c-.01 4.4-3.13 6.17-6.97 3.96L691.93 496.06c-3.84-2.2-6.94-7.55-6.93-11.95l.44-154.2c.01-4.4 3.13-6.17 6.97-3.96z" transform="translate(-541 -324)"/><path fill="url(#c)" d="M872.69 431.08c3.76 2.16 6.79 7.39 6.78 11.69l-.43 150.83c-.02 4.3-3.07 6.03-6.82 3.87L694.77 495.32c-3.75-2.16-6.78-7.39-6.77-11.69l.43-150.83c.01-4.3 3.06-6.03 6.81-3.87z" transform="translate(-541 -324)"/><path fill="url(#d)" d="M542 581.72l.01-3.72c0 1.46.96 2.91 2.89 4.03l181.51 104.43c3.84 2.21 10.04 2.21 13.86 0l133.82-77.48c1.9-1.09 2.84-2.53 2.85-3.97l-.01 3.72c-.01 1.44-.96 2.87-2.85 3.97l-133.82 77.48c-3.82 2.21-10.02 2.21-13.86 0L544.89 585.74c-1.93-1.11-2.89-2.57-2.89-4.02z" transform="translate(-541 -324)"/><path fill="#4653d5" d="M333.04 277.09c3.83 2.21 3.86 5.79.04 8l-133.82 77.48c-3.82 2.21-10.02 2.21-13.86 0L3.89 258.13c-3.84-2.21-3.86-5.79-.04-7.99l133.82-77.48c3.81-2.21 10.02-2.21 13.86 0z"/><path fill="url(#e)" d="M874.04 601.09c3.83 2.21 3.86 5.79.04 8l-133.82 77.48c-3.82 2.21-10.02 2.21-13.86 0L544.89 582.13c-3.84-2.21-3.86-5.79-.04-7.99l133.82-77.48c3.81-2.21 10.02-2.21 13.86 0z" transform="translate(-541 -324)"/><path fill="url(#f)" d="M851.75 601.28l-158.47-91.16c-2.6-1.49-6.81-1.49-9.39 0l-66.96 38.77c-2.59 1.5-2.57 3.92.03 5.42l158.47 91.16a10.44 10.44 0 0 0 9.4 0l66.96-38.77c2.58-1.5 2.57-3.93-.04-5.42" transform="translate(-541 -324)"/><path fill="#19165a" fill-opacity=".08" d="M611 650V506h246v144zm239.75-47.72l-158.47-91.16c-2.6-1.49-6.81-1.49-9.39 0l-66.96 38.77c-2.59 1.5-2.57 3.92.03 5.42l158.47 91.16a10.44 10.44 0 0 0 9.4 0l66.96-38.77c2.58-1.5 2.57-3.93-.04-5.42" filter="url(#g)" mask="url(&quot;#h&quot;)" transform="translate(-541 -324)"/><path fill="url(#i)" d="M702.62 618.47l-43.1-24.79a6.24 6.24 0 0 0-5.66 0l-30.69 17.77c-1.57.9-1.56 2.37.01 3.27l43.1 24.79c1.57.9 4.1.9 5.66 0l30.7-17.78c1.56-.9 1.55-2.36-.02-3.26" transform="translate(-541 -324)"/><path fill="#19165a" fill-opacity=".08" d="M618 644v-54h89v54zm83.62-24.53l-43.1-24.79a6.24 6.24 0 0 0-5.66 0l-30.69 17.77c-1.57.9-1.56 2.37.01 3.27l43.1 24.79c1.57.9 4.1.9 5.66 0l30.7-17.78c1.56-.9 1.55-2.36-.02-3.26" filter="url(#j)" mask="url(&quot;#k&quot;)" transform="translate(-541 -324)"/><path fill="url(#l)" d="M698 413.44l11.35-6.44v1.65L698 415.1z" transform="translate(-541 -324)"/><path fill="url(#m)" d="M698 420.44l11.35-6.44v1.65L698 422.1z" transform="translate(-541 -324)"/><path fill="url(#n)" d="M698 426.44l11.35-6.44v1.65L698 428.1z" transform="translate(-541 -324)"/><path fill="url(#o)" d="M698 433.44l11.35-6.44v1.65L698 435.1z" transform="translate(-541 -324)"/><path fill="url(#p)" d="M669 406.28l7.03-4.28v1.65l-7.03 4.29z" transform="translate(-541 -324)"/><path fill="url(#q)" d="M604 441.28l7.03-4.28v1.65l-7.03 4.29z" transform="translate(-541 -324)"/><path fill="#fff" fill-opacity=".2" d="M63 117.28l7.03-4.28v1.65L63 118.94z"/><path fill-opacity=".05" d="M63 117.28l7.03-4.28v1.65L63 118.94z"/><path fill="url(#r)" d="M681 406.28l7.03-4.28v2.73l-7.03 4.29z" transform="translate(-541 -324)"/><path fill="url(#s)" d="M669 412.28l7.03-4.28v2.73l-7.03 4.29z" transform="translate(-541 -324)"/><path fill="url(#t)" d="M691 399.28l7.03-4.28v2.73l-7.03 4.29z" transform="translate(-541 -324)"/><path fill="none" stroke="#fff" stroke-miterlimit="50" d="M708 389.22L725.03 379v2.73L708 391.95z" clip-path="url(&quot;#u&quot;)" transform="translate(-541 -324)"/><path fill="url(#v)" d="M673 387.9l16.23-8.9v2.73l-16.23 8.9z" transform="translate(-541 -324)"/><path fill="url(#w)" d="M692 376.9l16.23-8.9v2.73l-16.23 8.9z" transform="translate(-541 -324)"/><path fill="url(#x)" d="M712 365.94l9.73-5.94v2.73l-9.73 5.94z" transform="translate(-541 -324)"/><path fill="url(#y)" d="M576 512.02l16.23-8.9V501L576 509.9z" transform="translate(-541 -324)"/><path fill="url(#z)" d="M576 497.02l16.23-8.9V486L576 494.9z" transform="translate(-541 -324)"/><path fill="#fff" d="M25 179.77l3.89-2.22V175L25 177.22zM25 176.77l3.89-2.22V172L25 174.22zM30 176.76l1.62-.97V170l-1.62.97z"/><path fill="url(#A)" d="M576 525.02l16.23-8.9V514L576 522.9z" transform="translate(-541 -324)"/><path fill="url(#B)" d="M608 504.08l5.42-2.96V499l-5.42 2.96z" transform="translate(-541 -324)"/><path fill="url(#C)" d="M608 515.08l5.42-2.96V510l-5.42 2.96z" transform="translate(-541 -324)"/><path fill="url(#D)" d="M608 526.08l5.42-2.96V521l-5.42 2.96z" transform="translate(-541 -324)"/><path fill="url(#E)" d="M608 537.08l5.42-2.96V532l-5.42 2.96z" transform="translate(-541 -324)"/><path fill="url(#F)" d="M576 539.02l16.23-8.9V528L576 536.9z" transform="translate(-541 -324)"/><path fill="#fff" d="M29.96 212.62a7.88 7.88 0 0 0-2.96 5.62v3.48l2.98-2.16a7.85 7.85 0 0 0 2.97-5.62c0-1.88-1.29-2.55-2.99-1.32zm.01 5.48c-.19.14-.34.08-.34-.15a.9.9 0 0 1 .34-.65c.2-.14.35-.08.35.15 0 .23-.15.51-.35.65zm.23-1.67v.17a.6.6 0 0 1-.23.43c-.12.09-.23.04-.23-.1v-.41c0-.14.11-.34.23-.43.32-.23.58-.71.58-1.08 0-.38-.26-.49-.58-.26a1.5 1.5 0 0 0-.57 1.08.6.6 0 0 1-.23.44c-.12.09-.23.04-.23-.11 0-.67.46-1.53 1.03-1.95.58-.41 1.03-.21 1.03.46 0 .58-.34 1.31-.8 1.76z"/><path fill="#00b8ea" d="M127.32 144l1.59.91-9.05 10.16-9.07 5.16-9.05 9.58-9.1-4.28-9.05 10.45.08 28.2-1.59-.91-.08-28.21 9.05-10.45 9.1 4.28 9.05-9.57 9.07-5.17z"/><path fill="url(#G)" d="M634.05 489.61l9.1 4.28 9.05-9.57 9.07-5.17 9.05-10.15.1 33.46-45.34 25.81-.08-28.21 9.05-10.45" transform="translate(-541 -324)"/><path fill="#00b8ea" d="M129.33 152l1.59.91-9.06 5.16-9.05 11.05-9.07 5.16-9.08.23-9.07 5.16.08 25.6-1.6-.92-.07-25.59 9.07-5.17 9.08-.22 9.07-5.16 9.05-11.05z"/><path fill="url(#H)" d="M671.41 503.54l-45.34 25.81-.07-25.6 9.07-5.16 9.08-.22 9.06-5.16 9.06-11.05 9.06-5.16z" transform="translate(-541 -324)"/><path fill="#00b8ea" d="M130.32 154l1.59.91-9.05 13.75-9.05 10.97-9.09-1.49-9.07 2.81-9.06 9.76.05 15.53-1.6-.92L85 189.8l9.05-9.77 9.08-2.8 9.08 1.49 9.05-10.98z"/><path fill="url(#I)" d="M673.32 478l.08 25.5-45.36 25.82-.04-15.52 9.05-9.77 9.08-2.8 9.08 1.49 9.05-10.98 9.06-13.74" transform="translate(-541 -324)"/><path fill="url(#J)" d="M731.49 439l1.6.91-9.1 5.14-9.08 11.01-9.1 5.14-9.11.22-9.1 5.15.07 25.5-1.6-.91-.07-25.5 9.1-5.15 9.11-.22 9.1-5.14 9.08-11.01z" transform="translate(-541 -324)"/><path fill="url(#K)" d="M733.49 439l.07 26.45-45.49 25.71-.07-25.5 9.1-5.15 9.11-.22 9.1-5.14 9.08-11.01 9.1-5.14" transform="translate(-541 -324)"/><path fill="url(#L)" d="M733.48 441l1.6.91-9.09 13.69-9.09 10.93-9.11-1.48-9.11 2.8-9.08 9.72-1.6-.91 9.08-9.72 9.11-2.8 9.12 1.49 9.08-10.94z" transform="translate(-541 -324)"/><path fill="url(#M)" d="M689.64 492.38l-1.6-.91L688 476l1.6.91.04 15.47" transform="translate(-541 -324)"/><path fill="url(#N)" d="M735.48 441l.07 25.41-45.51 25.72-.04-15.47 9.08-9.72 9.11-2.8 9.12 1.49 9.08-10.94 9.09-13.69" transform="translate(-541 -324)"/><path fill="url(#O)" d="M735.51 463.26l1.6.9-9.12-1.25-9.09 6.16-9.08 10.52-9.1 5.15-9.12-2.32-1.6-.91 9.12 2.32 9.1-5.15 9.08-10.52 9.1-6.16z" transform="translate(-541 -324)"/><path fill="url(#P)" d="M691.63 493.23l-1.6-.91L690 481l1.6.91.03 11.32" transform="translate(-541 -324)"/><path fill="url(#Q)" d="M691 482.51l9.12 2.32 9.1-5.15 9.08-10.52 9.1-6.16 9.11 1.26.01 3.86-45.49 25.71-.03-11.32" transform="translate(-541 -324)"/><path fill="#fff" d="M24 155.11L51.57 140v6.48L24 161.59zM31.37 183v7.27l-1.27.72-.43.24-1.27.72-.43.24-1.27.72-.43.23-.85.48-.42.24v-3.12l1.27-.71v2.59l.43-.23v-5.2l1.27-.72v5.2l.43-.24v-4.16l1.27-.72v4.16l.43-.24v-6.75zM30.91 203.54c-.5.73-1.1 1.37-1.74 1.82-1.75 1.23-3.17.57-3.17-1.47a8.1 8.1 0 0 1 3.17-5.89v3.67z"/><path fill="#fff" d="M32.65 199.74a6.5 6.5 0 0 1-1.19 3.4L30 201.58v-3.07c1.46-1.02 2.65-.47 2.65 1.23z"/><path fill="url(#R)" d="M604 447.28l7.03-4.28v2.73l-7.03 4.29z" transform="translate(-541 -324)"/><path fill="url(#S)" d="M615 440.28l7.03-4.28v2.73l-7.03 4.29z" transform="translate(-541 -324)"/><path fill="url(#T)" d="M625 434.28l7.03-4.28v2.73l-7.03 4.29z" transform="translate(-541 -324)"/><path fill="url(#U)" d="M633 446.2l4.87-3.2v1.65l-4.87 3.21z" transform="translate(-541 -324)"/><path fill="url(#V)" d="M633 452.2l4.87-3.2v1.65l-4.87 3.21z" transform="translate(-541 -324)"/><path fill="url(#W)" d="M633 459.2l4.87-3.2v1.65l-4.87 3.21z" transform="translate(-541 -324)"/><path fill="url(#X)" d="M633 465.2l4.87-3.2v1.65l-4.87 3.21z" transform="translate(-541 -324)"/><path fill="url(#Y)" d="M642 440.2l4.87-3.2v1.65l-4.87 3.21z" transform="translate(-541 -324)"/><path fill="url(#Z)" d="M642 447.2l4.87-3.2v1.65l-4.87 3.21z" transform="translate(-541 -324)"/><path fill="url(#aa)" d="M642 453.2l4.87-3.2v1.65l-4.87 3.21z" transform="translate(-541 -324)"/><path fill="url(#ab)" d="M642 460.2l4.87-3.2v1.65l-4.87 3.21z" transform="translate(-541 -324)"/></svg>