<svg xmlns="http://www.w3.org/2000/svg" width="63" height="58" viewBox="0 0 63 58">
    <path fill="#cce1f4" d="M6.49 16h49.72a2.49 2.49 0 0 1 2.49 2.49v36.05a2.49 2.49 0 0 1-2.49 2.48H6.49A2.48 2.48 0 0 1 4 54.54V18.49A2.48 2.48 0 0 1 6.49 16z" opacity=".2"/>
    <path fill="#646192" d="M62.21 19.67h-.13a6.21 6.21 0 0 1-12.18 0H37.22a6.22 6.22 0 0 1-12.18 0H12.36a6.23 6.23 0 0 1-12.19 0H.05s-.38-3.9.99-5.35c2.52-4.1 13.93-12.06 13.93-12.06 1.01-1.52 2.35-1.24 3.73-1.24h24.86c1.37 0 2.57.07 3.73 1.24 0 0 11.68 8.42 14.08 12.32 1.07 1.36.84 5.09.84 5.09z"/>
    <path fill="#fff" d="M44.08 24.62a6.22 6.22 0 0 1-6.22-6.22c0-2.39-3.73-17.4-3.73-17.4h6.22s8.7 12.89 9.57 15.28a6.22 6.22 0 0 1-5.84 8.34zM25.43 18.4c0-2.65 3.73-17.4 3.73-17.4h-6.21s-8.84 12.99-9.65 15.48a6.21 6.21 0 1 0 12.13 1.92zm20.89 26.03h-7.46a2.48 2.48 0 0 1-2.48-2.48v-7.46A2.48 2.48 0 0 1 38.86 32h7.46a2.49 2.49 0 0 1 2.49 2.49v7.46a2.48 2.48 0 0 1-2.49 2.48zm0-8.7c0-.69-.56-1.24-1.24-1.24h-4.97c-.69 0-1.25.55-1.25 1.24v4.97c0 .69.56 1.25 1.25 1.25h4.97c.68 0 1.24-.56 1.24-1.25zM14 56.86h17.4V34.49A2.48 2.48 0 0 0 28.92 32H16.49A2.48 2.48 0 0 0 14 34.49z" opacity=".6"/>
</svg>
