<svg xmlns="http://www.w3.org/2000/svg" width="63" height="54" viewBox="0 0 63 54">
    <path fill="#fff" d="M15.86 0h41.31a4.87 4.87 0 0 1 4.87 4.86v43.75a4.87 4.87 0 0 1-4.87 4.86H15.86A4.87 4.87 0 0 1 11 48.61V4.86A4.87 4.87 0 0 1 15.86 0z" opacity=".2"/>
    <path fill="#fff" d="M37.61 11h1.21a.6.6 0 0 1 .61.61v30.38a.6.6 0 0 1-.61.6h-1.21a.6.6 0 0 1-.61-.6V11.61a.6.6 0 0 1 .61-.61z" opacity=".3"/>
    <path fill="#646192" d="M34.02 32.3a17 17 0 0 1-32.8-6.29 17 17 0 0 1 32.8-6.29zm-1.21 13.76v1.22c0 .33-.27.61-.61.61H.61a.61.61 0 0 1-.61-.61v-1.22c0-.33.27-.6.61-.6H32.2a.6.6 0 0 1 .61.6zM0 50.92v1.22c0 .33.27.61.61.61H32.2c.34 0 .61-.28.61-.61v-1.22a.6.6 0 0 0-.61-.6H.61a.6.6 0 0 0-.61.6z"/>
    <path fill="#fff" d="M24.94 30.43c0 2.68-1.68 4.74-4.86 5.14v1.91c0 .34-.28.61-.61.61h-1.22a.6.6 0 0 1-.6-.61v-1.82H14V17.43h3.65v-1.82a.6.6 0 0 1 .6-.61h1.22c.33 0 .61.27.61.61v2.01c2.55.55 3.74 2.37 3.74 4.43 0 1.77-.85 3.24-2.26 3.9V26a4.4 4.4 0 0 1 3.38 4.43zM18.2 19.48h-1.83v5.86h1.78c2.16 0 3.3-1.13 3.3-2.96 0-1.69-.96-2.9-3.25-2.9zm.86 7.91h-2.69v6.22s2.59-.2 3.59-.11c1.59-.29 2.55-1.22 2.55-3.04 0-1.88-1.35-3.07-3.45-3.07z"/>
</svg>
