<svg xmlns="http://www.w3.org/2000/svg" width="62" height="62" viewBox="0 0 62 62">
    <path fill="#cce1f4" d="M31.21 8a23.2 23.2 0 1 1 0 46.42 23.2 23.2 0 0 1 0-46.42z"/>
    <path fill="#fff" d="M17 24.84L31.37 16l14.37 8.84zm7.74 1.11V37h-4.42V25.95zm8.84 0V37h-4.42V25.95zm8.84 0V37H38V25.95zM19.21 40.32v-2.21h24.32v2.21zm25.42 3.31v-2.27H18.11v2.27z"/>
    <path fill="#fff" d="M30.95 61.89a30.95 30.95 0 1 1 0-61.9 30.95 30.95 0 0 1 0 61.9zM2.21 30.95c0 7.54 2.93 14.37 7.67 19.5L50.45 9.88a28.63 28.63 0 0 0-19.5-7.67A28.74 28.74 0 0 0 2.21 30.95zm49.8-19.5L11.45 52.01a28.57 28.57 0 0 0 19.5 7.67 28.73 28.73 0 0 0 28.73-28.73c0-7.54-2.92-14.38-7.67-19.5z"/>
</svg>
