<svg xmlns="http://www.w3.org/2000/svg" width="39" height="54" viewBox="0 0 39 54">
    <path fill="#cce1f4" d="M32 15a7 7 0 1 1 .01 13.99A7 7 0 0 1 32 15z" opacity=".2"/>
    <path fill="#fff" d="M35 23.56c0 .96-.67 1.97-2 2.31v.63a.5.5 0 0 1-.5.5h-1a.5.5 0 0 1-.5-.5V26h-2v-8h2v-.5c0-.28.22-.5.5-.5h1c.28 0 .5.22.5.5v.69c.97.34 1.42 1.09 1.42 1.84 0 .6-.32 1.25-.95 1.59v.02A1.94 1.94 0 0 1 35 23.56zm-3.53-4.04h-.53v1.69h.58c.67 0 1.01-.39 1.01-.83 0-.47-.34-.86-1.06-.86zm.44 3.19h-.97v1.79h.79c.93 0 1.33-.31 1.33-.95 0-.54-.43-.84-1.15-.84z" opacity=".4"/>
    <path fill="#cce1f4" d="M18 0a9 9 0 1 1 0 18 9 9 0 0 1 0-18z" opacity=".4"/>
    <path fill="#fff" d="M21 10.56c0 .96-.67 1.97-2 2.31v1.63a.5.5 0 0 1-.5.5h-1a.5.5 0 0 1-.5-.5V13h-2V5h2V3.5c0-.28.22-.5.5-.5h1c.28 0 .5.22.5.5v1.69c.97.34 1.42 1.09 1.42 1.84 0 .6-.32 1.25-.95 1.59v.02A1.94 1.94 0 0 1 21 10.56zm-3.53-4.04h-.53V8.2h.58c.67 0 1.01-.38 1.01-.82 0-.47-.34-.86-1.06-.86zm.44 3.19h-.97v1.79h.79c.93 0 1.33-.31 1.33-.95 0-.54-.43-.84-1.15-.84z"/>
    <path fill="#cce1f4" d="M26.35 29.57A8 8 0 0 1 19 34.14v-2.18c2.39.02 4.62-1.24 5.97-4.15l.85-1.81 1.81.86zM17.5 18h1c.28 0 .5.22.5.5v35a.5.5 0 0 1-.5.5h-1a.5.5 0 0 1-.5-.5v-35c0-.28.22-.5.5-.5zM31 38s-2.52.54-3.72.57l-2.72.07c-1.74.04-3.42 1.16-3.75 2.5L19 46s1.52-1 2.36-1.02l3.56-.09c1.75-.04 3.43-1.16 3.75-2.5zM0 27s3.57.82 5.27.86l3.85.1c2.47.07 4.85 1.74 5.31 3.75L17 39s-2.16-1.5-3.34-1.53l-5.05-.13c-2.47-.07-4.85-1.75-5.31-3.75z" opacity=".2"/>
</svg>
