<svg xmlns="http://www.w3.org/2000/svg" width="68" height="52" viewBox="0 0 68 52">
    <path fill="#fff" d="M5.16 0h56.8c2.85 0 5.16 2.1 5.16 4.69v42.25c0 2.59-2.31 4.69-5.16 4.69H5.16c-2.85 0-5.16-2.1-5.16-4.69V4.69C0 2.1 2.31 0 5.16 0z" opacity=".1"/>
    <path fill="#fff" d="M66.47 43.89c.36 0 .65.28.65.64v1.29c0 .36-.29.65-.65.65h-4.51v4.51c0 .36-.29.65-.65.65h-1.29a.65.65 0 0 1-.65-.65v-4.51h-5.16v4.51c0 .36-.29.65-.64.65h-1.29a.65.65 0 0 1-.65-.65v-4.51h-5.16v4.51c0 .36-.29.65-.65.65h-1.29a.64.64 0 0 1-.64-.65v-4.51h-5.17v4.51c0 .36-.29.65-.64.65h-1.29a.65.65 0 0 1-.65-.65v-4.51h-5.16v4.51c0 .36-.29.65-.65.65h-1.29a.65.65 0 0 1-.64-.65v-4.51h-5.17v4.51c0 .36-.29.65-.64.65H21.3a.65.65 0 0 1-.65-.65v-4.51h-5.16v4.51c0 .36-.29.65-.65.65h-1.29a.65.65 0 0 1-.64-.65v-4.51H7.74v4.51c0 .36-.28.65-.64.65H5.81a.65.65 0 0 1-.65-.65v-4.51H.65a.65.65 0 0 1-.65-.65v-1.29c0-.36.29-.64.65-.64h4.51v-5.17H.65a.65.65 0 0 1-.65-.64v-1.29c0-.36.29-.65.65-.65h4.51v-5.16H.65a.65.65 0 0 1-.65-.65v-1.29c0-.35.29-.64.65-.64h4.51v-5.17H.65a.65.65 0 0 1-.65-.64V21.3c0-.36.29-.65.65-.65h4.51v-5.16H.65a.65.65 0 0 1-.65-.65v-1.29c0-.35.29-.64.65-.64h4.51V7.74H.65A.64.64 0 0 1 0 7.1V5.81c0-.36.29-.65.65-.65h4.51V.65c0-.36.29-.65.65-.65H7.1c.36 0 .64.29.64.65v4.51h5.17V.65c0-.36.29-.65.64-.65h1.29c.36 0 .65.29.65.65v4.51h5.16V.65c0-.36.29-.65.65-.65h1.29c.35 0 .64.29.64.65v4.51h5.17V.65c0-.36.29-.65.64-.65h1.29c.36 0 .65.29.65.65v4.51h5.16V.65c0-.36.29-.65.65-.65h1.29c.35 0 .64.29.64.65v4.51h5.17V.65c0-.36.28-.65.64-.65h1.29c.36 0 .65.29.65.65v4.51h5.16V.65c0-.36.29-.65.65-.65h1.29c.35 0 .64.29.64.65v4.51h5.16V.65c0-.36.29-.65.65-.65h1.29c.36 0 .65.29.65.65v4.51h4.51c.36 0 .65.29.65.65V7.1c0 .36-.29.64-.65.64h-4.51v5.17h4.51c.36 0 .65.29.65.64v1.29c0 .36-.29.65-.65.65h-4.51v5.16h4.51c.36 0 .65.29.65.65v1.29c0 .35-.29.64-.65.64h-4.51v5.17h4.51c.36 0 .65.29.65.64v1.29c0 .36-.29.65-.65.65h-4.51v5.16h4.51c.36 0 .65.29.65.65v1.29c0 .35-.29.64-.65.64h-4.51v5.17zm-12.26 0h5.16v-5.17h-5.16zm0-7.75h5.16v-5.16h-5.16zm0-7.74h5.16v-5.17h-5.16zm0-7.75h5.16v-5.16h-5.16zm-7.74 23.24h5.16v-5.17h-5.16zm0-7.75h5.16v-5.16h-5.16zm0-7.74h5.16v-5.17h-5.16zm0-7.75h5.16v-5.16h-5.16zm-7.75 23.24h5.17v-5.17h-5.17zm0-7.75h5.17v-5.16h-5.17zm0-7.74h5.17v-5.17h-5.17zm0-7.75h5.17v-5.16h-5.17zm-7.74 23.24h5.16v-5.17h-5.16zm0-7.75h5.16v-5.16h-5.16zm0-7.74h5.16v-5.17h-5.16zm0-7.75h5.16v-5.16h-5.16zm-7.75 23.24h5.17v-5.17h-5.17zm0-7.75h5.17v-5.16h-5.17zm0-7.74h5.17v-5.17h-5.17zm0-7.75h5.17v-5.16h-5.17zm-7.74 23.24h5.16v-5.17h-5.16zm0-7.75h5.16v-5.16h-5.16zm0-7.74h5.16v-5.17h-5.16zm0-7.75h5.16v-5.16h-5.16zM7.74 43.89h5.17v-5.17H7.74zm0-7.75h5.17v-5.16H7.74zm0-7.74h5.17v-5.17H7.74zm0-7.75h5.17v-5.16H7.74zm0-12.91v5.17h5.17V7.74zm7.75 0v5.17h5.16V7.74zm7.74 0v5.17h5.17V7.74zm7.75 0v5.17h5.16V7.74zm7.74 0v5.17h5.17V7.74zm7.75 0v5.17h5.16V7.74zm7.74 0v5.17h5.16V7.74z" opacity=".08"/>
    <path fill="#fff" d="M57.33 18.72c-.92 0-1.77-.27-2.5-.71l-12.97 11.8a4.86 4.86 0 0 1-4.22 7.25 4.86 4.86 0 0 1-4.2-7.3l-3.63-3.62a4.83 4.83 0 0 1-4.88.01l-7.85 7.83a4.86 4.86 0 0 1-4.2 7.29 4.86 4.86 0 1 1 2.43-9.05l7.85-7.84a4.82 4.82 0 0 1 4.21-7.28 4.85 4.85 0 0 1 4.21 7.27L35.22 28a4.8 4.8 0 0 1 4.89.03l12.98-11.81A4.83 4.83 0 0 1 57.33 9a4.86 4.86 0 1 1 0 9.72zM12.87 34.04a2.37 2.37 0 1 0 0 4.74 2.37 2.37 0 0 0 0-4.74zm14.5-14.45a2.37 2.37 0 1 0-.02 4.74 2.37 2.37 0 0 0 .02-4.74zm10.27 10.25a2.36 2.36 0 1 0 0 4.72 2.36 2.36 0 1 0 0-4.72zM57.33 11.5a2.37 2.37 0 1 0 0 4.73 2.37 2.37 0 0 0 0-4.73z"/>
</svg>
