<svg xmlns="http://www.w3.org/2000/svg" width="34" height="34" viewBox="0 0 34 34"><defs><linearGradient id="a" x1="1140" x2="1140" y1="2105" y2="2139" gradientUnits="userSpaceOnUse"><stop offset="0" stop-color="#faab43" stop-opacity=".4"/><stop offset="1" stop-color="#fab246"/></linearGradient><linearGradient id="b" x1="1140" x2="1140" y1="2109" y2="2132" gradientUnits="userSpaceOnUse"><stop offset="0" stop-color="#faab43" stop-opacity=".4"/><stop offset="1" stop-color="#fab246"/></linearGradient><linearGradient id="c" x1="1140" x2="1140" y1="2114" y2="2128" gradientUnits="userSpaceOnUse"><stop offset="0" stop-color="#faab43" stop-opacity=".6"/><stop offset="1" stop-color="#fab246"/></linearGradient></defs><path fill="url(#a)" d="M1155.59 2136.29h-2.6v1.63c0 .54-.44.98-.98.98h-1.96a.98.98 0 0 1-.98-.98v-1.63h-18.25v1.63c0 .54-.44.98-.98.98h-1.95a.98.98 0 0 1-.98-.98v-1.63h-2.61a1.3 1.3 0 0 1-1.3-1.3v-28.69c0-.72.58-1.3 1.3-1.3h31.29c.72 0 1.31.58 1.31 1.3v28.69c0 .72-.59 1.3-1.31 1.3z" transform="translate(-1123 -2105)"/><path fill="url(#b)" d="M1128.3 2109h23.47c.72 0 1.3.58 1.3 1.3v20.86a1.3 1.3 0 0 1-1.3 1.31h-23.47a1.3 1.3 0 0 1-1.3-1.31v-20.86c0-.72.58-1.3 1.3-1.3z" transform="translate(-1123 -2105)"/><path fill="url(#c)" d="M1147.02 2121.82H1146a5.83 5.83 0 0 1-1.25 3.01l.72.72c.13.13.13.33 0 .46l-.46.46a.32.32 0 0 1-.46 0l-.72-.72a5.83 5.83 0 0 1-3.01 1.25v1.01c0 .18-.14.33-.32.33h-.65a.33.33 0 0 1-.33-.33V2127a5.87 5.87 0 0 1-3.01-1.25l-.72.72a.32.32 0 0 1-.46 0l-.46-.46a.32.32 0 0 1 0-.46l.72-.72a5.92 5.92 0 0 1-1.25-3.01h-1.01a.32.32 0 0 1-.33-.32v-.66c0-.18.15-.32.33-.32h1.01a5.87 5.87 0 0 1 1.25-3.01l-.72-.72a.32.32 0 0 1 0-.46l.46-.46a.32.32 0 0 1 .46 0l.72.72a5.87 5.87 0 0 1 3.01-1.25v-1.01c0-.18.15-.33.33-.33h.65c.18 0 .32.15.32.33v1.01c1.13.13 2.17.57 3.01 1.25l.72-.72a.32.32 0 0 1 .46 0l.46.46c.13.13.13.33 0 .46l-.72.72a5.83 5.83 0 0 1 1.25 3.01h1.02c.18 0 .32.14.32.32v.66c0 .18-.14.32-.32.32zm-6.85-1.95a1.3 1.3 0 1 0 0 2.6 1.3 1.3 0 0 0 1.31-1.3c0-.72-.59-1.3-1.31-1.3z" transform="translate(-1123 -2105)"/><path fill="#f9b25f" d="M6.91 15.82a.65.65 0 0 0-.65-.65H3.65a.65.65 0 1 0 0 1.3h2.61c.36 0 .65-.29.65-.65zm0-7.17A.65.65 0 0 0 6.26 8H3.65a.65.65 0 1 0 0 1.3h2.61c.36 0 .65-.29.65-.65zM3.65 22.34h2.61a.65.65 0 1 1 0 1.3H3.65a.65.65 0 1 1 0-1.3z"/></svg>