<?xml version="1.0" encoding="UTF-8"?><!DOCTYPE svg PUBLIC "-//W3C//DTD SVG 1.1//EN" "http://www.w3.org/Graphics/SVG/1.1/DTD/svg11.dtd"><svg xmlns="http://www.w3.org/2000/svg"><symbol id="icon-arrow" viewBox="0 0 11.8 9.4">
    <path d="M0 4.6h10.2M6 .6l4.7 4.1L6 8.8" stroke-width="1.5" stroke-miterlimit="50"/>
</symbol><symbol id="icon-arrowhead" viewBox="0 0 6.63 9.13">
    <path stroke-miterlimit="50" stroke-width="1.5" d="M.82.56l4.1 3.62L.82 7.8"/>
</symbol><symbol id="icon-facebook" viewBox="0 0 10 19">
    <title>
        facebook
    </title>
    <path d="M9.766.157v2.946H8.014c-.64 0-1.071.134-1.295.402-.223.268-.335.67-.335 1.205v2.11h3.27l-.435 3.303H6.384v8.471H2.97v-8.47H.123V6.82H2.97V4.387c0-1.384.387-2.457 1.161-3.22C4.904.404 5.934.023 7.222.023c1.093 0 1.941.045 2.544.134z" fill-rule="evenodd"/>
</symbol><symbol id="icon-linkedin" viewBox="0 0 32 32">
    <path d="M32 30a2 2 0 0 1-2 2H2a2 2 0 0 1-2-2V2a2 2 0 0 1 2-2h28a2 2 0 0 1 2 2v28z"/>
    <g>
        <path d="M7 11h4v14H7z"/>
        <path d="M20.499 11c-2.791 0-3.271 1.018-3.499 2v-2h-4v14h4v-8c0-1.297.703-2 2-2 1.266 0 2 .688 2 2v8h4v-7c0-4-.521-7-4.501-7z"/>
        <circle cx="9" cy="8" r="2"/>
    </g>
</symbol><symbol id="icon-twitter" viewBox="0 0 32 32">
    <path d="M31.993 6.077a13.027 13.027 0 0 1-3.77 1.033 6.588 6.588 0 0 0 2.887-3.63 13.144 13.144 0 0 1-4.168 1.592A6.56 6.56 0 0 0 22.149 3a6.562 6.562 0 0 0-6.562 6.563c0 .514.057 1.016.169 1.496-5.455-.274-10.291-2.887-13.529-6.858a6.544 6.544 0 0 0-.888 3.3 6.564 6.564 0 0 0 2.919 5.464 6.544 6.544 0 0 1-2.972-.821l-.001.082a6.568 6.568 0 0 0 5.265 6.437 6.606 6.606 0 0 1-2.963.113 6.572 6.572 0 0 0 6.13 4.558 13.166 13.166 0 0 1-8.15 2.811c-.53 0-1.053-.031-1.566-.092A18.592 18.592 0 0 0 10.062 29c12.072 0 18.675-10.001 18.675-18.675 0-.284-.008-.568-.02-.85a13.315 13.315 0 0 0 3.276-3.398z"/>
</symbol></svg>