<svg width="1025" height="679" viewBox="0 0 1025 679" xmlns="http://www.w3.org/2000/svg">
    <title>
        Group 5 Copy
    </title>
    <defs>
        <linearGradient x1="50%" y1="0%" x2="50%" y2="100%" id="a">
            <stop stop-color="#573DFF" stop-opacity=".4" offset="0%"/>
            <stop stop-color="#5B42FF" offset="100%"/>
        </linearGradient>
        <linearGradient x1="50%" y1="0%" x2="50%" y2="100%" id="b">
            <stop stop-color="#16E0B5" stop-opacity=".6" offset="0%"/>
            <stop stop-color="#0BE0B2" offset="100%"/>
        </linearGradient>
        <linearGradient x1="50%" y1="0%" x2="50%" y2="100%" id="c">
            <stop stop-color="#FF8269" stop-opacity=".4" offset="0%"/>
            <stop stop-color="#FF6C4F" offset="100%"/>
        </linearGradient>
        <linearGradient x1="50%" y1="0%" x2="50%" y2="100%" id="d">
            <stop stop-color="#7CE356" stop-opacity=".6" offset="0%"/>
            <stop stop-color="#73E34B" offset="100%"/>
        </linearGradient>
        <linearGradient x1="0%" y1="100%" y2="0%" id="e">
            <stop stop-color="#FF5781" offset="0%"/>
            <stop stop-color="#FFAAA6" stop-opacity=".3" offset="100%"/>
        </linearGradient>
        <linearGradient x1="50%" y1="0%" x2="50%" y2="100%" id="f">
            <stop stop-color="#333DFF" stop-opacity=".6" offset="0%"/>
            <stop stop-color="#333DFF" offset="100%"/>
        </linearGradient>
        <linearGradient x1="50%" y1="0%" x2="50%" y2="100%" id="g">
            <stop stop-color="#D94CC6" stop-opacity=".5" offset="0%"/>
            <stop stop-color="#D93FC4" offset="100%"/>
        </linearGradient>
    </defs>
    <g fill="none" fill-rule="evenodd">
        <g transform="translate(0 223)">
            <circle fill="url(#a)" opacity=".13" cx="40" cy="40.374" r="40"/>
            <path d="M33.213 53.7l-6.804 3.712c-.4.217-.758.485-1.092.777A22.698 22.698 0 0 0 40 63.55a22.713 22.713 0 0 0 14.598-5.287 6.036 6.036 0 0 0-1.2-.803l-7.286-3.643a2.779 2.779 0 0 1-1.536-2.485v-2.859c.205-.233.44-.532.69-.886a16.765 16.765 0 0 0 2.264-4.564 2.288 2.288 0 0 0 1.623-2.177v-3.052c0-.671-.298-1.27-.762-1.69v-4.412s.906-6.864-8.39-6.864c-9.296 0-8.39 6.864-8.39 6.864v4.411a2.275 2.275 0 0 0-.763 1.691v3.052c0 .803.423 1.51 1.055 1.92.763 3.318 2.76 5.707 2.76 5.707v2.788c-.002 1.016-.558 1.951-1.45 2.438z" fill="#FFF"/>
            <path d="M23.194.003C10.602-.212.219 9.822.004 22.413c-.123 7.14 3.06 13.557 8.126 17.825a6.06 6.06 0 0 1 1.082-.77l6.804-3.71a2.78 2.78 0 0 0 1.448-2.44v-2.789s-1.997-2.388-2.759-5.707a2.289 2.289 0 0 1-1.055-1.92V19.85c0-.67.299-1.27.763-1.69v-4.412s-.906-6.864 8.39-6.864c9.296 0 8.39 6.864 8.39 6.864v4.411c.465.42.762 1.02.762 1.691v3.052a2.288 2.288 0 0 1-1.623 2.177 16.765 16.765 0 0 1-2.265 4.564c-.25.354-.484.653-.689.886v2.86c0 1.051.595 2.014 1.536 2.484l7.286 3.643c.437.218.832.495 1.196.802 4.914-4.098 8.088-10.225 8.206-17.124C45.82 10.602 35.786.219 23.194.004z" fill="url(#a)" opacity=".8" transform="translate(17.196 17.944)"/>
        </g>
        <text font-family="SFUIDisplay-Regular, SF UI Display" font-size="14" letter-spacing=".175" fill="#000" transform="translate(0 223)">
            <tspan x="25" y="99">User</tspan>
        </text>
        <g transform="translate(935 223)">
            <circle fill="url(#b)" opacity=".2" cx="40" cy="40" r="40"/>
            <g fill-rule="nonzero">
                <path d="M19.878 20.635c.741-1.76 1.37-3.142 1.885-4.144.387-.743.75-1.37 1.089-1.878a9.802 9.802 0 0 1 1.233-1.49 4.744 4.744 0 0 1 1.669-1.091c.628-.243 1.33-.364 2.104-.364h3.199v4.653c0 .21.076.392.23.546.152.153.334.23.543.23a.75.75 0 0 0 .556-.218l7.738-7.755a.755.755 0 0 0 .218-.558.757.757 0 0 0-.218-.558L32.41.277c-.193-.162-.387-.242-.58-.242a.752.752 0 0 0-.556.218.758.758 0 0 0-.217.557v4.653h-3.2c-1.096 0-2.128.134-3.095.4-.968.267-1.826.606-2.576 1.018-.75.412-1.475.966-2.176 1.66a19.35 19.35 0 0 0-1.79 2.012c-.491.646-1.007 1.454-1.547 2.424a35.84 35.84 0 0 0-1.306 2.544c-.33.728-.73 1.624-1.197 2.69-.741 1.762-1.37 3.143-1.886 4.145-.387.743-.75 1.37-1.088 1.878a9.815 9.815 0 0 1-1.233 1.49 4.742 4.742 0 0 1-1.669 1.092c-.628.242-1.33.364-2.103.364H.774a.75.75 0 0 0-.556.217.756.756 0 0 0-.218.558v4.653c0 .226.073.412.218.558.146.145.331.218.557.218H6.19a11.6 11.6 0 0 0 3.096-.4c.967-.267 1.826-.606 2.575-1.018.75-.412 1.475-.966 2.176-1.66a19.39 19.39 0 0 0 1.79-2.012c.491-.647 1.007-1.454 1.547-2.423.54-.97.976-1.818 1.306-2.545.33-.727.73-1.624 1.197-2.69z" fill="url(#b)" transform="translate(20.187 20.935)"/>
                <path d="M20.96 32.602h5.417c.71 0 1.366.118 1.971.352.605.235 1.112.517 1.524.849.41.33.822.787 1.233 1.369.41.582.737 1.095.98 1.539.24.444.539 1.03.894 1.757 1.241-2.924 2.345-5.13 3.313-6.616-2.58-3.636-5.885-5.454-9.915-5.454h-5.416a.751.751 0 0 0-.557.219.756.756 0 0 0-.217.557v4.653c0 .227.072.412.217.557.146.146.331.218.557.218z" fill="#FFF"/>
                <path d="M52.598 42.928c-.194-.162-.387-.242-.581-.242a.751.751 0 0 0-.556.218.756.756 0 0 0-.217.557v4.654h-3.2c-.71 0-1.366-.118-1.971-.352-.605-.235-1.113-.517-1.523-.849-.411-.33-.822-.787-1.233-1.37a15.88 15.88 0 0 1-.98-1.539c-.242-.443-.54-1.03-.895-1.756-1.24 2.908-2.337 5.113-3.288 6.616.435.63.886 1.192 1.354 1.684.467.493.91.925 1.33 1.297.419.371.894.695 1.426.969.532.275 1 .505 1.403.69.404.187.912.336 1.524.45.612.112 1.128.197 1.547.253.42.057.992.097 1.717.122.725.024 1.314.032 1.765.024.452-.008.508-.037 1.024-.037v4.654c0 .21.077.392.23.545.153.154.334.23.544.23a.75.75 0 0 0 .555-.218l7.739-7.755a.757.757 0 0 0 .217-.557.753.753 0 0 0-.218-.558l-7.713-7.73z" fill="#FFF"/>
            </g>
        </g>
        <text font-family="SFUIDisplay-Regular, SF UI Display" font-size="14" letter-spacing=".175" fill="#000" transform="translate(922 223)">
            <tspan x="0" y="99">Fund Manager A</tspan>
        </text>
        <g transform="translate(0 398)">
            <circle fill="url(#a)" opacity=".13" cx="40" cy="40.374" r="40"/>
            <path d="M33.213 53.7l-6.804 3.712c-.4.217-.758.485-1.092.777A22.698 22.698 0 0 0 40 63.55a22.713 22.713 0 0 0 14.598-5.287 6.036 6.036 0 0 0-1.2-.803l-7.286-3.643a2.779 2.779 0 0 1-1.536-2.485v-2.859c.205-.233.44-.532.69-.886a16.765 16.765 0 0 0 2.264-4.564 2.288 2.288 0 0 0 1.623-2.177v-3.052c0-.671-.298-1.27-.762-1.69v-4.412s.906-6.864-8.39-6.864c-9.296 0-8.39 6.864-8.39 6.864v4.411a2.275 2.275 0 0 0-.763 1.691v3.052c0 .803.423 1.51 1.055 1.92.763 3.318 2.76 5.707 2.76 5.707v2.788c-.002 1.016-.558 1.951-1.45 2.438z" fill="#FFF"/>
            <path d="M23.194.003C10.602-.212.219 9.822.004 22.413c-.123 7.14 3.06 13.557 8.126 17.825a6.06 6.06 0 0 1 1.082-.77l6.804-3.71a2.78 2.78 0 0 0 1.448-2.44v-2.789s-1.997-2.388-2.759-5.707a2.289 2.289 0 0 1-1.055-1.92V19.85c0-.67.299-1.27.763-1.69v-4.412s-.906-6.864 8.39-6.864c9.296 0 8.39 6.864 8.39 6.864v4.411c.465.42.762 1.02.762 1.691v3.052a2.288 2.288 0 0 1-1.623 2.177 16.765 16.765 0 0 1-2.265 4.564c-.25.354-.484.653-.689.886v2.86c0 1.051.595 2.014 1.536 2.484l7.286 3.643c.437.218.832.495 1.196.802 4.914-4.098 8.088-10.225 8.206-17.124C45.82 10.602 35.786.219 23.194.004z" fill="url(#a)" opacity=".8" transform="translate(17.196 17.944)"/>
        </g>
        <text font-family="SFUIDisplay-Regular, SF UI Display" font-size="14" letter-spacing=".175" fill="#000" transform="translate(0 398)">
            <tspan x="25" y="99">User</tspan>
        </text>
        <g transform="translate(935 398)">
            <circle fill="url(#c)" opacity=".2" cx="40" cy="40" r="40"/>
            <g fill-rule="nonzero">
                <path d="M19.878 20.635c.741-1.76 1.37-3.142 1.885-4.144.387-.743.75-1.37 1.089-1.878a9.802 9.802 0 0 1 1.233-1.49 4.744 4.744 0 0 1 1.669-1.091c.628-.243 1.33-.364 2.104-.364h3.199v4.653c0 .21.076.392.23.546.152.153.334.23.543.23a.75.75 0 0 0 .556-.218l7.738-7.755a.755.755 0 0 0 .218-.558.757.757 0 0 0-.218-.558L32.41.277c-.193-.162-.387-.242-.58-.242a.752.752 0 0 0-.556.218.758.758 0 0 0-.217.557v4.653h-3.2c-1.096 0-2.128.134-3.095.4-.968.267-1.826.606-2.576 1.018-.75.412-1.475.966-2.176 1.66a19.35 19.35 0 0 0-1.79 2.012c-.491.646-1.007 1.454-1.547 2.424a35.84 35.84 0 0 0-1.306 2.544c-.33.728-.73 1.624-1.197 2.69-.741 1.762-1.37 3.143-1.886 4.145-.387.743-.75 1.37-1.088 1.878a9.815 9.815 0 0 1-1.233 1.49 4.742 4.742 0 0 1-1.669 1.092c-.628.242-1.33.364-2.103.364H.774a.75.75 0 0 0-.556.217.756.756 0 0 0-.218.558v4.653c0 .226.073.412.218.558.146.145.331.218.557.218H6.19a11.6 11.6 0 0 0 3.096-.4c.967-.267 1.826-.606 2.575-1.018.75-.412 1.475-.966 2.176-1.66a19.39 19.39 0 0 0 1.79-2.012c.491-.647 1.007-1.454 1.547-2.423.54-.97.976-1.818 1.306-2.545.33-.727.73-1.624 1.197-2.69z" fill="url(#c)" transform="translate(20.187 20.935)"/>
                <path d="M20.96 32.602h5.417c.71 0 1.366.118 1.971.352.605.235 1.112.517 1.524.849.41.33.822.787 1.233 1.369.41.582.737 1.095.98 1.539.24.444.539 1.03.894 1.757 1.241-2.924 2.345-5.13 3.313-6.616-2.58-3.636-5.885-5.454-9.915-5.454h-5.416a.751.751 0 0 0-.557.219.756.756 0 0 0-.217.557v4.653c0 .227.072.412.217.557.146.146.331.218.557.218z" fill="#FFF"/>
                <path d="M52.598 42.928c-.194-.162-.387-.242-.581-.242a.751.751 0 0 0-.556.218.756.756 0 0 0-.217.557v4.654h-3.2c-.71 0-1.366-.118-1.971-.352-.605-.235-1.113-.517-1.523-.849-.411-.33-.822-.787-1.233-1.37a15.88 15.88 0 0 1-.98-1.539c-.242-.443-.54-1.03-.895-1.756-1.24 2.908-2.337 5.113-3.288 6.616.435.63.886 1.192 1.354 1.684.467.493.91.925 1.33 1.297.419.371.894.695 1.426.969.532.275 1 .505 1.403.69.404.187.912.336 1.524.45.612.112 1.128.197 1.547.253.42.057.992.097 1.717.122.725.024 1.314.032 1.765.024.452-.008.508-.037 1.024-.037v4.654c0 .21.077.392.23.545.153.154.334.23.544.23a.75.75 0 0 0 .555-.218l7.739-7.755a.757.757 0 0 0 .217-.557.753.753 0 0 0-.218-.558l-7.713-7.73z" fill="#FFF"/>
            </g>
        </g>
        <text font-family="SFUIDisplay-Regular, SF UI Display" font-size="14" letter-spacing=".175" fill="#000" transform="translate(921 398)">
            <tspan x="0" y="99">Fund Manager B</tspan>
        </text>
        <g transform="translate(0 573)">
            <circle fill="url(#a)" opacity=".13" cx="40" cy="40.374" r="40"/>
            <path d="M33.213 53.7l-6.804 3.712c-.4.217-.758.485-1.092.777A22.698 22.698 0 0 0 40 63.55a22.713 22.713 0 0 0 14.598-5.287 6.036 6.036 0 0 0-1.2-.803l-7.286-3.643a2.779 2.779 0 0 1-1.536-2.485v-2.859c.205-.233.44-.532.69-.886a16.765 16.765 0 0 0 2.264-4.564 2.288 2.288 0 0 0 1.623-2.177v-3.052c0-.671-.298-1.27-.762-1.69v-4.412s.906-6.864-8.39-6.864c-9.296 0-8.39 6.864-8.39 6.864v4.411a2.275 2.275 0 0 0-.763 1.691v3.052c0 .803.423 1.51 1.055 1.92.763 3.318 2.76 5.707 2.76 5.707v2.788c-.002 1.016-.558 1.951-1.45 2.438z" fill="#FFF"/>
            <path d="M23.194.003C10.602-.212.219 9.822.004 22.413c-.123 7.14 3.06 13.557 8.126 17.825a6.06 6.06 0 0 1 1.082-.77l6.804-3.71a2.78 2.78 0 0 0 1.448-2.44v-2.789s-1.997-2.388-2.759-5.707a2.289 2.289 0 0 1-1.055-1.92V19.85c0-.67.299-1.27.763-1.69v-4.412s-.906-6.864 8.39-6.864c9.296 0 8.39 6.864 8.39 6.864v4.411c.465.42.762 1.02.762 1.691v3.052a2.288 2.288 0 0 1-1.623 2.177 16.765 16.765 0 0 1-2.265 4.564c-.25.354-.484.653-.689.886v2.86c0 1.051.595 2.014 1.536 2.484l7.286 3.643c.437.218.832.495 1.196.802 4.914-4.098 8.088-10.225 8.206-17.124C45.82 10.602 35.786.219 23.194.004z" fill="url(#a)" opacity=".8" transform="translate(17.196 17.944)"/>
        </g>
        <text font-family="SFUIDisplay-Regular, SF UI Display" font-size="14" letter-spacing=".175" fill="#000" transform="translate(0 573)">
            <tspan x="25" y="99">User</tspan>
        </text>
        <g transform="translate(935 573)">
            <circle fill="url(#d)" opacity=".3" cx="40" cy="40" r="40"/>
            <g fill-rule="nonzero">
                <path d="M19.878 20.635c.741-1.76 1.37-3.142 1.885-4.144.387-.743.75-1.37 1.089-1.878a9.802 9.802 0 0 1 1.233-1.49 4.744 4.744 0 0 1 1.669-1.091c.628-.243 1.33-.364 2.104-.364h3.199v4.653c0 .21.076.392.23.546.152.153.334.23.543.23a.75.75 0 0 0 .556-.218l7.738-7.755a.755.755 0 0 0 .218-.558.757.757 0 0 0-.218-.558L32.41.277c-.193-.162-.387-.242-.58-.242a.752.752 0 0 0-.556.218.758.758 0 0 0-.217.557v4.653h-3.2c-1.096 0-2.128.134-3.095.4-.968.267-1.826.606-2.576 1.018-.75.412-1.475.966-2.176 1.66a19.35 19.35 0 0 0-1.79 2.012c-.491.646-1.007 1.454-1.547 2.424a35.84 35.84 0 0 0-1.306 2.544c-.33.728-.73 1.624-1.197 2.69-.741 1.762-1.37 3.143-1.886 4.145-.387.743-.75 1.37-1.088 1.878a9.815 9.815 0 0 1-1.233 1.49 4.742 4.742 0 0 1-1.669 1.092c-.628.242-1.33.364-2.103.364H.774a.75.75 0 0 0-.556.217.756.756 0 0 0-.218.558v4.653c0 .226.073.412.218.558.146.145.331.218.557.218H6.19a11.6 11.6 0 0 0 3.096-.4c.967-.267 1.826-.606 2.575-1.018.75-.412 1.475-.966 2.176-1.66a19.39 19.39 0 0 0 1.79-2.012c.491-.647 1.007-1.454 1.547-2.423.54-.97.976-1.818 1.306-2.545.33-.727.73-1.624 1.197-2.69z" fill="url(#d)" transform="translate(20.187 20.935)"/>
                <path d="M20.96 32.602h5.417c.71 0 1.366.118 1.971.352.605.235 1.112.517 1.524.849.41.33.822.787 1.233 1.369.41.582.737 1.095.98 1.539.24.444.539 1.03.894 1.757 1.241-2.924 2.345-5.13 3.313-6.616-2.58-3.636-5.885-5.454-9.915-5.454h-5.416a.751.751 0 0 0-.557.219.756.756 0 0 0-.217.557v4.653c0 .227.072.412.217.557.146.146.331.218.557.218z" fill="#FFF"/>
                <path d="M52.598 42.928c-.194-.162-.387-.242-.581-.242a.751.751 0 0 0-.556.218.756.756 0 0 0-.217.557v4.654h-3.2c-.71 0-1.366-.118-1.971-.352-.605-.235-1.113-.517-1.523-.849-.411-.33-.822-.787-1.233-1.37a15.88 15.88 0 0 1-.98-1.539c-.242-.443-.54-1.03-.895-1.756-1.24 2.908-2.337 5.113-3.288 6.616.435.63.886 1.192 1.354 1.684.467.493.91.925 1.33 1.297.419.371.894.695 1.426.969.532.275 1 .505 1.403.69.404.187.912.336 1.524.45.612.112 1.128.197 1.547.253.42.057.992.097 1.717.122.725.024 1.314.032 1.765.024.452-.008.508-.037 1.024-.037v4.654c0 .21.077.392.23.545.153.154.334.23.544.23a.75.75 0 0 0 .555-.218l7.739-7.755a.757.757 0 0 0 .217-.557.753.753 0 0 0-.218-.558l-7.713-7.73z" fill="#FFF"/>
            </g>
        </g>
        <text font-family="SFUIDisplay-Regular, SF UI Display" font-size="14" letter-spacing=".175" fill="#000" transform="translate(922 573)">
            <tspan x="0" y="99">Fund Manager C</tspan>
        </text>
        <path d="M515.5 158.5v465.314" stroke="#000"/>
        <g transform="translate(471 27)">
            <path d="M68.226 0H0v120h88V20.153H68.226V0z" fill="url(#e)" opacity=".45"/>
            <path fill="url(#e)" fill-rule="nonzero" transform="matrix(-1 0 0 1 156.724 0)" d="M88.629 0L68.095 20.488H88.63z"/>
            <path d="M44 95.707c-1.948 0-4.04.489-5.867.273v15.24L44 108.293l5.867 2.927V95.98c-1.828.216-3.92-.273-5.867-.273z" fill="url(#e)" fill-rule="nonzero"/>
            <path d="M36.225 68.516c-2.226 1.284-2.88 4.336-4.167 6.557-1.249 2.152-3.605 4.212-3.605 6.878 0 2.666 2.356 4.726 3.605 6.879 1.288 2.22 1.941 5.272 4.167 6.557.585.337 1.229.512 1.908.592 1.828.216 3.92-.272 5.867-.272 1.948 0 4.04.488 5.867.272.679-.08 1.323-.255 1.908-.592 2.226-1.285 2.88-4.336 4.167-6.557 1.249-2.153 3.605-4.213 3.605-6.879 0-2.666-2.356-4.726-3.605-6.878-1.288-2.221-1.941-5.273-4.167-6.558-2.157-1.245-5.103-.32-7.775-.32-2.672 0-5.618-.925-7.775.32zM52.8 81.95c0 4.85-3.94 8.78-8.8 8.78-4.86 0-8.8-3.93-8.8-8.78 0-4.849 3.94-8.78 8.8-8.78 4.86 0 8.8 3.931 8.8 8.78z" fill="#FFF" fill-rule="nonzero"/>
            <ellipse fill="url(#e)" fill-rule="nonzero" cx="44" cy="81.951" rx="8.8" ry="8.78"/>
            <path fill="url(#e)" d="M20.305 31.145h47.39v4.58h-47.39z"/>
            <path fill="url(#e)" d="M20.305 41.221h47.39v4.58h-47.39z"/>
            <path fill="url(#e)" d="M20.305 51.298h47.39v4.58h-47.39z"/>
        </g>
        <path fill="#F5F7FC" d="M490 223h49v58h-49z"/>
        <g transform="translate(523 253)">
            <path d="M31.012 0H0v54h40V9.069h-8.988V0z" fill="url(#e)" opacity=".45"/>
            <path fill="url(#e)" fill-rule="nonzero" opacity=".89" transform="matrix(-1 0 0 1 71.238 0)" d="M40.286 0l-9.334 9.22h9.334z"/>
            <path d="M20 43.068c-.885 0-1.836.22-2.667.123v6.858L20 48.732l2.667 1.317V43.19c-.831.097-1.782-.123-2.667-.123z" fill="url(#e)" fill-rule="nonzero"/>
            <path d="M16.466 30.832c-1.012.578-1.309 1.951-1.894 2.95-.568.97-1.639 1.896-1.639 3.096 0 1.2 1.071 2.127 1.639 3.095.585 1 .882 2.373 1.894 2.951.266.152.558.23.867.267.83.097 1.782-.123 2.667-.123.885 0 1.836.22 2.667.123.308-.036.601-.115.867-.267 1.012-.578 1.309-1.951 1.894-2.95.568-.97 1.639-1.896 1.639-3.096 0-1.2-1.071-2.127-1.639-3.095-.585-1-.882-2.373-1.894-2.951-.98-.56-2.32-.144-3.534-.144s-2.553-.417-3.534.144zM24 36.878c0 2.182-1.79 3.951-4 3.951s-4-1.769-4-3.951c0-2.182 1.79-3.951 4-3.951s4 1.769 4 3.951z" fill="#FFF" fill-rule="nonzero"/>
            <ellipse fill="url(#e)" fill-rule="nonzero" cx="20" cy="36.878" rx="4" ry="3.951"/>
            <path fill="url(#e)" d="M9.229 14.015H30.77v2.061H9.229z"/>
            <path fill="url(#e)" d="M9.229 18.55H30.77v2.061H9.229z"/>
            <path fill="url(#e)" d="M9.229 23.084H30.77v2.061H9.229z"/>
        </g>
        <g transform="translate(500 235)">
            <path stroke="#000" d="M0 13h30v22H0z"/>
            <circle fill="#000" cx="15" cy="22" r="2"/>
            <path fill="#000" d="M14 23h2v5h-2z"/>
            <path d="M23.993 13.967c0-9.311-3-13.967-9.002-13.967C8.991 0 6 4.656 6.02 13.967" stroke="#000"/>
        </g>
        <path fill="#F5F7FC" d="M490 398h49v58h-49z"/>
        <g transform="translate(523 428)">
            <path d="M31.012 0H0v54h40V9.069h-8.988V0z" fill="url(#e)" opacity=".5"/>
            <path fill="url(#e)" fill-rule="nonzero" transform="matrix(-1 0 0 1 71.238 0)" d="M40.286 0l-9.334 9.22h9.334z"/>
            <path d="M20 43.068c-.885 0-1.836.22-2.667.123v6.858L20 48.732l2.667 1.317V43.19c-.831.097-1.782-.123-2.667-.123z" fill="url(#e)" fill-rule="nonzero"/>
            <path d="M16.466 30.832c-1.012.578-1.309 1.951-1.894 2.95-.568.97-1.639 1.896-1.639 3.096 0 1.2 1.071 2.127 1.639 3.095.585 1 .882 2.373 1.894 2.951.266.152.558.23.867.267.83.097 1.782-.123 2.667-.123.885 0 1.836.22 2.667.123.308-.036.601-.115.867-.267 1.012-.578 1.309-1.951 1.894-2.95.568-.97 1.639-1.896 1.639-3.096 0-1.2-1.071-2.127-1.639-3.095-.585-1-.882-2.373-1.894-2.951-.98-.56-2.32-.144-3.534-.144s-2.553-.417-3.534.144zM24 36.878c0 2.182-1.79 3.951-4 3.951s-4-1.769-4-3.951c0-2.182 1.79-3.951 4-3.951s4 1.769 4 3.951z" fill="#FFF" fill-rule="nonzero"/>
            <ellipse fill="url(#e)" fill-rule="nonzero" cx="20" cy="36.878" rx="4" ry="3.951"/>
            <path fill="url(#e)" d="M9.229 14.015H30.77v2.061H9.229z"/>
            <path fill="url(#e)" d="M9.229 18.55H30.77v2.061H9.229z"/>
            <path fill="url(#e)" d="M9.229 23.084H30.77v2.061H9.229z"/>
        </g>
        <g transform="translate(500 410)">
            <path stroke="#000" d="M.5 13.5h29v21H.5z"/>
            <circle fill="#000" cx="15" cy="22" r="2"/>
            <path fill="#000" d="M14 23h2v5h-2z"/>
            <path d="M23.993 13.967c0-9.311-3-13.967-9.002-13.967C8.991 0 6 4.656 6.02 13.967" stroke="#000"/>
        </g>
        <path fill="#F5F7FC" d="M490 573h49v58h-49z"/>
        <g transform="translate(523 603)">
            <path d="M31.012 0H0v54h40V9.069h-8.988V0z" fill="url(#e)" opacity=".45"/>
            <path fill="url(#e)" fill-rule="nonzero" transform="matrix(-1 0 0 1 71.238 0)" d="M40.286 0l-9.334 9.22h9.334z"/>
            <path d="M20 43.068c-.885 0-1.836.22-2.667.123v6.858L20 48.732l2.667 1.317V43.19c-.831.097-1.782-.123-2.667-.123z" fill="url(#e)" fill-rule="nonzero"/>
            <path d="M16.466 30.832c-1.012.578-1.309 1.951-1.894 2.95-.568.97-1.639 1.896-1.639 3.096 0 1.2 1.071 2.127 1.639 3.095.585 1 .882 2.373 1.894 2.951.266.152.558.23.867.267.83.097 1.782-.123 2.667-.123.885 0 1.836.22 2.667.123.308-.036.601-.115.867-.267 1.012-.578 1.309-1.951 1.894-2.95.568-.97 1.639-1.896 1.639-3.096 0-1.2-1.071-2.127-1.639-3.095-.585-1-.882-2.373-1.894-2.951-.98-.56-2.32-.144-3.534-.144s-2.553-.417-3.534.144zM24 36.878c0 2.182-1.79 3.951-4 3.951s-4-1.769-4-3.951c0-2.182 1.79-3.951 4-3.951s4 1.769 4 3.951z" fill="#FFF" fill-rule="nonzero"/>
            <ellipse fill="url(#e)" fill-rule="nonzero" cx="20" cy="36.878" rx="4" ry="3.951"/>
            <path fill="url(#e)" d="M9.229 14.015H30.77v2.061H9.229z"/>
            <path fill="url(#e)" d="M9.229 18.55H30.77v2.061H9.229z"/>
            <path fill="url(#e)" d="M9.229 23.084H30.77v2.061H9.229z"/>
        </g>
        <g transform="translate(500 584)">
            <path stroke="#000" d="M0 14h30v22H0z"/>
            <circle fill="#000" cx="15" cy="23" r="2"/>
            <path fill="#000" d="M14 24h2v5h-2z"/>
            <path d="M23.993 13.967c0-9.311-3-13.967-9.002-13.967C8.991 0 6 4.656 6.02 13.967" stroke="#000"/>
        </g>
        <g stroke="#000">
            <g transform="matrix(1 0 0 -1 106 269)">
                <path d="M305 11C223.575 60.284 83.485 54.271 5 11"/>
                <path d="M313.065 5.831l-7.196 11.324-6.18-10.286z"/>
                <circle cx="5.5" cy="11.5" r="5.5"/>
            </g>
            <g transform="matrix(-1 0 0 1 419 273)">
                <path d="M305 11C223.575 60.284 83.485 54.271 5 11"/>
                <path d="M313.065 5.831l-7.196 11.324-6.18-10.286z"/>
                <circle cx="5.5" cy="11.5" r="5.5"/>
            </g>
        </g>
        <g stroke="#000">
            <g transform="matrix(1 0 0 -1 597 270)">
                <path d="M305 12C223.575 61.284 83.485 55.271 5 12"/>
                <path d="M314.065 5.831l-7.196 11.324-6.18-10.286z"/>
                <circle fill="#FFF" cx="5.5" cy="12.5" r="5.5"/>
            </g>
            <g transform="matrix(-1 0 0 1 910 273)">
                <path d="M305 11C223.575 60.284 83.485 54.271 5 11"/>
                <path d="M313.065 5.831l-7.196 11.324-6.18-10.286z"/>
                <circle fill="#FFF" cx="5.5" cy="11.5" r="5.5"/>
            </g>
        </g>
        <g stroke="#000">
            <g transform="matrix(1 0 0 -1 597 432)">
                <path d="M305 11C223.575 60.284 83.485 54.271 5 11"/>
                <path fill="#FFF" d="M313.065 5.831l-7.196 11.324-6.18-10.286z"/>
                <circle fill="#FFF" cx="5.5" cy="11.5" r="5.5"/>
            </g>
            <g transform="matrix(-1 0 0 1 910 436)">
                <path d="M305 11C223.575 60.284 83.485 54.271 5 11"/>
                <path fill="#FFF" d="M313.065 5.831l-7.196 11.324-6.18-10.286z"/>
                <circle fill="#FFF" cx="5.5" cy="11.5" r="5.5"/>
            </g>
        </g>
        <g stroke="#000">
            <g transform="matrix(1 0 0 -1 597 616)">
                <path d="M305 11C223.575 60.284 83.485 54.271 5 11"/>
                <path fill="#FFF" d="M313.065 5.831l-7.196 11.324-6.18-10.286z"/>
                <circle fill="#FFF" cx="5.5" cy="11.5" r="5.5"/>
            </g>
            <g transform="matrix(-1 0 0 1 910 620)">
                <path d="M305 11C223.575 60.284 83.485 54.271 5 11"/>
                <path fill="#FFF" d="M313.065 5.831l-7.196 11.324-6.18-10.286z"/>
                <circle fill="#FFF" cx="5.5" cy="11.5" r="5.5"/>
            </g>
        </g>
        <g transform="translate(433 589)">
            <ellipse fill="url(#f)" opacity=".1" cx="28.5" cy="29" rx="28.5" ry="28.731"/>
            <path d="M.14 24.392L7.71 18.05l-1.124 4.632c1.853.41 7.514 2.252 8.338-1.126.783-3.31-4.487-4.213-6.598-4.734v-1.097L5.565 11.74l-1.421.364.9-3.653c0-.614-.207-1.33-1.236-1.536l-1.956-.512.72-2.866 3.706.921c.515.103 1.133.307 1.75.41L9.16.466l2.677.716-1.133 4.3c.72.205 1.441.307 2.162.512l1.03-4.3 2.675.717-1.132 4.402c3.603 1.126 6.176 2.866 5.661 6.143-.308 2.354-1.646 3.583-3.5 3.992 2.471 1.229 3.706 3.174 2.471 6.552-1.44 4.198-4.94 4.505-9.573 3.686L9.366 31.69l-2.676-.819 1.132-4.402c-.72-.205-1.44-.41-2.161-.512L4.528 30.36l-2.676-.716 1.132-4.505c-.617-.205-1.235-.307-1.955-.512l-.89-.234zm9.947-15.736l-1.338 5.426c1.544.41 6.278 1.945 6.999-1.126.72-3.174-4.117-3.89-5.661-4.3z" transform="translate(23.418 13.544)" fill="url(#f)"/>
            <g fill="#FFF">
                <path d="M12.413 29.269l9.472 6.263 9.882-6.29-9.88-16.353z"/>
                <path d="M12.282 31.064l9.704 14.26 9.73-14.26-9.73 6.385z"/>
            </g>
        </g>
        <g transform="translate(433 411)">
            <ellipse fill="url(#g)" opacity=".2" cx="28.5" cy="29" rx="28.5" ry="28.731"/>
            <path d="M20.644 15.462a3.991 3.991 0 0 0-3.994 3.991v19.878a3.988 3.988 0 0 0 3.994 3.992h15.712a3.991 3.991 0 0 0 3.994-3.992V19.453a3.988 3.988 0 0 0-3.994-3.991H20.644z" fill="#FFF"/>
            <path d="M12.62 10.114H5.107a.591.591 0 0 1-.578-.605c0-.334.258-.604.578-.604h7.515c.32 0 .578.27.578.604a.591.591 0 0 1-.578.605z" fill="url(#g)" transform="translate(14.916 11.278)"/>
            <path d="M12.62 13.486H5.107a.591.591 0 0 1-.578-.605c0-.334.258-.604.578-.604h7.515c.32 0 .578.27.578.604a.591.591 0 0 1-.578.605z" fill="url(#g)" transform="translate(14.916 11.278)"/>
            <path d="M17.033 28.559H5.511c-.49 0-.887-.27-.887-.605 0-.334.397-.604.887-.604h11.522c.49 0 .886.27.886.604 0 .334-.396.605-.886.605z" fill="url(#g)" transform="translate(14.916 11.278)"/>
            <path d="M21.87 17.075H5.105a.591.591 0 0 1-.578-.605c0-.334.258-.604.578-.604H21.87c.32 0 .579.27.579.604a.591.591 0 0 1-.579.605z" fill="url(#g)" transform="translate(14.916 11.278)"/>
            <path d="M21.966 20.701H5.202a.591.591 0 0 1-.578-.604c0-.334.259-.605.578-.605h16.764c.32 0 .578.27.578.605a.591.591 0 0 1-.578.604z" fill="url(#g)" transform="translate(14.916 11.278)"/>
            <path d="M21.966 24.932H5.202a.591.591 0 0 1-.578-.604c0-.335.259-.605.578-.605h16.764c.32 0 .578.27.578.605a.591.591 0 0 1-.578.604z" fill="url(#g)" transform="translate(14.916 11.278)"/>
            <path d="M15.525 3.842a1.01 1.01 0 0 1 1-1.007h3.82c.553 0 1.001.448 1.001 1.007v9.11l-2.91-2.573-2.911 2.572V3.842z" fill="url(#g)" transform="translate(14.916 11.278)"/>
        </g>
        <path d="M28.5 57.731C44.24 57.731 57 44.868 57 29c0-9.02-4.123-17.07-10.573-22.337A28.24 28.24 0 0 0 28.5.27C12.76.269 0 13.132 0 29c0 15.868 12.76 28.731 28.5 28.731z" fill="url(#c)" opacity=".2" transform="translate(433 242)"/>
        <path d="M448.981 267.24l12.519-9.252 13.051 9.253v13.177a4.007 4.007 0 0 1-3.995 4.008h-17.58a3.999 3.999 0 0 1-3.995-4.008v-13.177z" fill="#FFF"/>
        <path d="M29.318 13.77L15.958 3.616 2.598 13.77a1.616 1.616 0 0 1-2.27-.315c-.54-.715-.4-1.735.314-2.276L14.868.368a1.8 1.8 0 0 1 2.18 0l14.226 10.81c.713.542.853 1.562.313 2.277a1.616 1.616 0 0 1-2.269.315z" fill="url(#c)" transform="translate(445.785 255.963)"/>
        <path d="M11.187 22.263a3.995 3.995 0 0 1 3.997-4.004h1.595c2.207 0 3.997 1.801 3.997 4.004v6.2h-9.59v-6.2z" fill="url(#c)" transform="translate(445.785 255.963)"/>
        <g stroke="#000">
            <g transform="matrix(1 0 0 -1 106 438)">
                <path d="M305 11C223.575 60.284 83.485 54.271 5 11"/>
                <path d="M313.065 5.831l-7.196 11.324-6.18-10.286z"/>
                <circle cx="5.5" cy="11.5" r="5.5"/>
            </g>
            <g transform="matrix(-1 0 0 1 419 442)">
                <path d="M305 11C223.575 60.284 83.485 54.271 5 11"/>
                <path d="M313.065 5.831l-7.196 11.324-6.18-10.286z"/>
                <circle cx="5.5" cy="11.5" r="5.5"/>
            </g>
        </g>
        <g>
            <g transform="matrix(1 0 0 -1 106 613)">
                <path d="M305 11C223.575 60.284 83.485 54.271 5 11" stroke="#6A7F91" stroke-width="2"/>
                <path stroke="#000" d="M313.065 5.831l-7.196 11.324-6.18-10.286z"/>
                <circle stroke="#000" cx="5.5" cy="11.5" r="5.5"/>
            </g>
            <g transform="matrix(-1 0 0 1 419 617)" stroke="#000">
                <path d="M305 11C223.575 60.284 83.485 54.271 5 11"/>
                <path d="M313.065 5.831l-7.196 11.324-6.18-10.286z"/>
                <circle cx="5.5" cy="11.5" r="5.5"/>
            </g>
        </g>
        <text font-family="SFUIDisplay-Medium, SF UI Display" font-size="16" font-weight="400" letter-spacing=".2" fill="#000" transform="translate(0 -6)">
            <tspan x="435" y="15">Parent Smart Contract</tspan>
        </text>
        <text font-family="SFUIDisplay-Medium, SF UI Display" font-size="16" font-weight="400" letter-spacing=".2" fill="#000" transform="translate(0 -6)">
            <tspan x="739" y="245">ETH</tspan>
        </text>
        <text font-family="SFUIDisplay-Medium, SF UI Display" font-size="16" font-weight="400" letter-spacing=".2" fill="#000" transform="translate(0 -6)">
            <tspan x="258" y="245">ETH</tspan>
        </text>
        <text font-family="SFUIDisplay-Medium, SF UI Display" font-size="16" font-weight="400" letter-spacing=".2" fill="#000" transform="translate(0 -6)">
            <tspan x="739" y="408">ETH</tspan>
        </text>
        <text font-family="SFUIDisplay-Medium, SF UI Display" font-size="16" font-weight="400" letter-spacing=".2" fill="#000" transform="translate(0 -6)">
            <tspan x="739" y="592">ETH</tspan>
        </text>
        <text fill="url(#b)" font-family="SFUIText-Regular, SF UI Text" font-size="14" letter-spacing=".175" transform="translate(0 -6)">
            <tspan x="235" y="311">PoA-Token</tspan>
        </text>
        <text fill="url(#b)" font-family="SFUIText-Regular, SF UI Text" font-size="14" letter-spacing=".175" transform="translate(0 -6)">
            <tspan x="702" y="311">Security paper</tspan>
        </text>
        <text fill="url(#c)" font-family="SFUIText-Regular, SF UI Text" font-size="14" letter-spacing=".175" transform="translate(0 -6)">
            <tspan x="702" y="473">Security paper</tspan>
        </text>
        <text fill="url(#d)" font-family="SFUIText-Regular, SF UI Text" font-size="14" letter-spacing=".175" transform="translate(0 -6)">
            <tspan x="718" y="658">Dividends</tspan>
        </text>
        <text fill="url(#c)" font-family="SFUIText-Regular, SF UI Text" font-size="14" letter-spacing=".175" transform="translate(0 -6)">
            <tspan x="235" y="481">PoA-Token</tspan>
        </text>
        <text fill="url(#d)" font-family="SFUIText-Regular, SF UI Text" font-size="14" letter-spacing=".175" transform="translate(0 -6)">
            <tspan x="235" y="657">PoA-Token</tspan>
        </text>
        <text font-family="SFUIDisplay-Medium, SF UI Display" font-size="16" font-weight="400" letter-spacing=".2" fill="#000" transform="translate(0 -6)">
            <tspan x="258" y="413">ETH</tspan>
        </text>
        <text font-family="SFUIDisplay-Medium, SF UI Display" font-size="16" font-weight="400" letter-spacing=".2" fill="#000" transform="translate(0 -6)">
            <tspan x="258" y="589">ETH</tspan>
        </text>
    </g>
</svg>
