<svg xmlns="http://www.w3.org/2000/svg" width="221" height="43" viewBox="0 0 221 43"><path fill="#fff" d="M26.88 18.72h6.02v5.65H22v17.78a20.44 20.44 0 0 0 16.96-12.22A20.87 20.87 0 0 0 36.5 9zM4.2 9a20.88 20.88 0 0 0-2.45 20.92A20.44 20.44 0 0 0 18.7 42.14V24.36H7.88a51.83 51.83 0 0 1 .01-5.63h5.92zM20.9 1A20.19 20.19 0 0 0 7 6.53l12.17 12.33h3.47L34.8 6.54A20.15 20.15 0 0 0 20.9 1zM82.24 40.43v-2.65h2.54v-1.01h-2.54v-1.64h3.05v-1.09H81v6.39zm6.07 0v-6.39h-1.24v6.39zm6.76 0h1.01v-6.38h-1.25v4.18l-3.33-4.19h-.96v6.39h1.24v-4.1zm8.02-6.39h-5.32v1.09h2.04v5.3h1.23v-5.3h2.05zm2.93 5.3v-1.67h2.69v-1.01h-2.69v-1.53h3.11v-1.09h-4.35v6.39h4.44v-1.09zm4.77-.95a3.28 3.28 0 0 0 1.62 1.8c.38.19.79.29 1.25.29a3.15 3.15 0 0 0 2.19-.85c.19-.18.34-.39.44-.63l-1.02-.59a1.51 1.51 0 0 1-.68.75 1.82 1.82 0 0 1-1.65.04 2.12 2.12 0 0 1-.6-.47 2.3 2.3 0 0 1-.51-1.51 2.3 2.3 0 0 1 .46-1.44 1.69 1.69 0 0 1 1.39-.68c.14 0 .29.01.44.05.15.03.29.08.43.16.14.07.27.16.39.29.12.12.22.27.31.45l.95-.65a2.45 2.45 0 0 0-.96-1.01 2.89 2.89 0 0 0-1.52-.39 3.03 3.03 0 0 0-2.94 2.03 3.35 3.35 0 0 0 .01 2.36zm11.38-4.35v2.58h-2.9v-2.58h-1.24v6.39h1.24V37.7h2.9v2.73h1.23v-6.39zm10.66 0v2.58h-2.9v-2.58h-1.24v6.39h1.24V37.7h2.9v2.73h1.23v-6.39zm5.44 5.16c-.2-.12-.36-.27-.48-.47a1.95 1.95 0 0 1-.27-.66 3.97 3.97 0 0 1-.07-.78v-3.25h-1.24v3.25c0 .42.05.82.14 1.2a2.64 2.64 0 0 0 1.35 1.72c.36.17.79.26 1.31.26.49 0 .91-.08 1.26-.25.36-.17.65-.4.87-.68.23-.29.39-.63.5-1.01.1-.39.16-.8.16-1.24v-3.25h-1.24v3.25c0 .27-.02.52-.07.77a2.1 2.1 0 0 1-.27.67c-.12.19-.28.34-.48.46-.2.12-.45.18-.74.18s-.53-.06-.73-.17zm10.5-1.47c-.21-.28-.5-.47-.86-.58.3-.13.52-.33.68-.61.16-.27.23-.56.23-.87 0-.2-.03-.4-.1-.59-.07-.2-.17-.37-.29-.53a1.67 1.67 0 0 0-.46-.37 1.2 1.2 0 0 0-.6-.14h-3.42v6.39h3.08c.29 0 .55-.04.8-.11s.47-.18.66-.32a1.46 1.46 0 0 0 .6-1.22c0-.42-.1-.77-.32-1.05zm-.99 1.14c-.04.1-.1.19-.17.26a.68.68 0 0 1-.26.18c-.1.04-.2.06-.32.06h-1.84v-1.68h1.91c.1 0 .2.02.29.07.09.04.17.1.24.18.06.08.12.17.15.28a.88.88 0 0 1 0 .65zm-.88-3.77c.2 0 .36.07.5.21.13.15.2.34.2.59 0 .25-.07.45-.22.59a.73.73 0 0 1-.54.22h-1.65V35.1zm11.95 2.63c-.21-.28-.5-.47-.86-.58.3-.13.52-.33.68-.61.16-.27.23-.56.23-.87 0-.2-.03-.4-.1-.59-.07-.2-.17-.37-.29-.53a1.67 1.67 0 0 0-.46-.37 1.2 1.2 0 0 0-.6-.14h-3.42v6.39h3.08c.29 0 .55-.04.8-.11s.47-.18.66-.32a1.46 1.46 0 0 0 .6-1.22c0-.42-.1-.77-.32-1.05zm-.99 1.14c-.04.1-.1.19-.17.26a.68.68 0 0 1-.26.18c-.1.04-.2.06-.32.06h-1.84v-1.68h1.91c.1 0 .2.02.29.07.09.04.17.1.24.18.06.08.12.17.15.28a.88.88 0 0 1 0 .65zm-.88-3.77c.2 0 .36.07.5.21.13.15.2.34.2.59 0 .25-.07.45-.22.59a.73.73 0 0 1-.54.22h-1.65V35.1zm5.31 4.24v-1.67h2.69v-1.01h-2.69v-1.53h3.11v-1.09h-4.35v6.39h4.43v-1.09zm6.31 1.09v-2.15h1.22l1.31 2.15h1.39l-1.46-2.41c.36-.15.64-.39.84-.73.21-.34.32-.72.32-1.13a2.27 2.27 0 0 0-1.22-1.94 1.86 1.86 0 0 0-.82-.18h-2.82v6.39zm0-5.3h1.5c.11 0 .21.02.32.07.1.05.2.12.28.22.08.09.14.2.19.33a1.29 1.29 0 0 1 .01.81c-.04.13-.1.24-.17.33a.68.68 0 0 1-.26.22.6.6 0 0 1-.32.09h-1.55zm10.14 5.3v-1.09h-3.26v-5.3h-1.24v6.39zm2.9 0v-6.39h-1.24v6.39zm3.47-4.1v4.1h-1.24v-6.39h.96l3.33 4.19v-4.18h1.25v6.38h-1.01zM66.3 11.52h-6.26v16.45h-3.78V11.52H50V8.14h16.3zm2.43 16.45V8.14h8.67c.9 0 1.73.19 2.49.57a6.88 6.88 0 0 1 3.74 6.02c0 1.28-.32 2.45-.95 3.5a5.52 5.52 0 0 1-2.58 2.28l4.47 7.46h-4.28l-4-6.65h-3.75v6.65zm3.81-10.03h4.77c.35 0 .68-.08.98-.25.31-.17.57-.4.79-.68a3.96 3.96 0 0 0 .5-3.56 3.2 3.2 0 0 0-.6-1.02 2.57 2.57 0 0 0-.85-.67 2.21 2.21 0 0 0-.98-.24h-4.61zm19.81-9.8h3.36l7.45 19.83h-3.91l-1.82-4.95h-6.85l-1.79 4.95h-3.92zm4.39 12.17l-2.71-7.79-2.81 7.79zm12.38-5.05v12.71h-3.8V8.14h2.95l10.21 13.01V8.17h3.8v19.8h-3.09zm28.92-1.93a8.3 8.3 0 0 0-1.95-1.18c-.49-.22-1.02-.4-1.59-.55a6.78 6.78 0 0 0-1.73-.22c-1.05 0-1.83.19-2.35.59-.51.39-.77.94-.77 1.64 0 .41.1.75.29 1.02.19.27.47.51.84.71.37.21.83.4 1.39.56.56.17 1.21.35 1.95.53.95.26 1.82.54 2.61.84.78.3 1.44.67 1.98 1.12.54.44.96.98 1.26 1.6.29.63.44 1.4.44 2.31 0 1.06-.2 1.97-.59 2.72-.4.75-.93 1.36-1.61 1.83-.67.46-1.44.8-2.31 1.02-.88.21-1.79.32-2.75.32a14.52 14.52 0 0 1-8.22-2.57l1.68-3.32c.17.16.47.38.9.65a13.3 13.3 0 0 0 3.49 1.5c.72.18 1.45.28 2.21.28 2.09 0 3.14-.68 3.14-2.04 0-.43-.12-.79-.36-1.09a3 3 0 0 0-1.02-.78 9.24 9.24 0 0 0-1.6-.62l-2.09-.61c-.94-.26-1.76-.55-2.45-.85a6.59 6.59 0 0 1-1.72-1.09c-.46-.42-.8-.9-1.03-1.45a6.32 6.32 0 0 1 .2-4.65 5.4 5.4 0 0 1 1.53-1.96 7.07 7.07 0 0 1 2.28-1.19 10.57 10.57 0 0 1 6.59.26c1.16.43 2.17.95 3.04 1.55zm5.24 14.64V8.14h3.8v19.83zm19.56-14.64a8.3 8.3 0 0 0-1.95-1.18 9.76 9.76 0 0 0-1.58-.55 6.8 6.8 0 0 0-1.74-.22c-1.05 0-1.83.19-2.35.59-.51.39-.77.94-.77 1.64 0 .41.1.75.29 1.02.19.27.47.51.84.71.37.21.83.4 1.4.56.56.17 1.2.35 1.94.53.96.26 1.83.54 2.61.84.78.3 1.44.67 1.98 1.12a4.55 4.55 0 0 1 1.7 3.91 5.15 5.15 0 0 1-2.19 4.55c-.67.46-1.45.8-2.32 1.02-.87.21-1.79.32-2.75.32a14.4 14.4 0 0 1-8.22-2.57l1.69-3.32c.16.16.46.38.89.65a12.5 12.5 0 0 0 3.49 1.5 9.1 9.1 0 0 0 2.21.28c2.1 0 3.15-.68 3.15-2.04 0-.43-.12-.79-.36-1.09a3 3 0 0 0-1.02-.78 9.92 9.92 0 0 0-1.6-.62l-2.1-.61c-.94-.26-1.75-.55-2.44-.85a6.49 6.49 0 0 1-1.73-1.09c-.46-.42-.8-.9-1.03-1.45a6.17 6.17 0 0 1 .21-4.65 5.2 5.2 0 0 1 1.53-1.96 6.92 6.92 0 0 1 2.27-1.19 10.66 10.66 0 0 1 6.6.26c1.15.43 2.17.95 3.03 1.55zm19.75-1.81h-6.26v16.45h-3.78V11.52h-6.26V8.14h16.3zm9.88 16.59a8.8 8.8 0 0 1-3.91-.86 9.46 9.46 0 0 1-3-2.26 10.39 10.39 0 0 1 .11-13.95 9.55 9.55 0 0 1 3.05-2.22 8.9 8.9 0 0 1 3.83-.82c1.42 0 2.71.29 3.88.88a9.72 9.72 0 0 1 2.99 2.3 10.6 10.6 0 0 1 1.9 10.71 9.6 9.6 0 0 1-5.02 5.39 8.9 8.9 0 0 1-3.83.83zm-5.69-10.06a8 8 0 0 0 .39 2.49c.26.8.63 1.51 1.12 2.12a5.14 5.14 0 0 0 4.21 2.04 5.08 5.08 0 0 0 4.23-2.1c.49-.63.86-1.34 1.1-2.13a8 8 0 0 0-.02-4.9 7.05 7.05 0 0 0-1.13-2.12 5.35 5.35 0 0 0-8.43.07 6.76 6.76 0 0 0-1.09 2.12 7.93 7.93 0 0 0-.38 2.41zm18.19 9.92V8.14h8.66c.9 0 1.73.19 2.5.57.76.38 1.42.89 1.97 1.51a7.05 7.05 0 0 1 1.76 4.51 6.6 6.6 0 0 1-.95 3.5 5.43 5.43 0 0 1-2.58 2.28l4.47 7.46h-4.27l-4-6.65h-3.76v6.65zm3.8-10.03h4.78c.35 0 .67-.08.98-.25.3-.17.56-.4.78-.68.22-.29.4-.63.53-1.02.12-.39.19-.81.19-1.26a3.51 3.51 0 0 0-.81-2.3 2.6 2.6 0 0 0-.86-.67 2.18 2.18 0 0 0-.98-.24h-4.61z"/></svg>