<svg xmlns="http://www.w3.org/2000/svg" width="158" height="45" viewBox="0 0 158 45"><path fill="#fff" d="M157.88 33.4c-.19 0-.33.04-.46.04h-6.4a.58.58 0 0 1-.62-.39c-.84-1.98-1.71-3.95-2.55-5.93-.12-.28-.24-.42-.57-.4-.6.04-1.2 0-1.86 0v6.67H139V12.06a.99.99 0 0 1 .24-.03c3.91 0 7.82-.09 11.73.04 2.91.09 5.22 1.43 6.31 4.28 1.1 2.85.84 5.61-1.22 7.99-.6.59-1.25 1.13-1.93 1.62zm-12.46-12.35h3.28c.41 0 .83-.03 1.24-.1a1.61 1.61 0 0 0 1.4-1.42c.1-.68-.28-1.33-.91-1.57-.39-.15-.8-.24-1.21-.25-1.07-.04-2.13 0-3.2 0h-.61zM65.39 26.69v6.68H59V12.06l.21-.04c3.9 0 7.79-.06 11.69.03 4.33.09 7.28 3.52 6.96 7.89a6.92 6.92 0 0 1-3.76 5.92l3.8 7.52c-.2 0-.34.03-.49.03h-6.4a.54.54 0 0 1-.58-.4l-2.56-5.93a.54.54 0 0 0-.6-.4c-.61.03-1.21.01-1.88.01zm0-5.66h1.26c1.05-.02 2.1 0 3.14-.08a1.54 1.54 0 0 0 1.55-1.61c0-.88-.54-1.54-1.59-1.6-1.44-.1-2.89-.03-4.35-.03zM125.8 33.2c-3.51-.08-6.46-1.02-8.82-3.45a10.66 10.66 0 0 1-2.97-8.17 10.5 10.5 0 0 1 2.84-7 11 11 0 0 1 6.16-3.3 12.5 12.5 0 0 1 8.01.94c3.81 1.86 5.83 4.97 6.1 9.24a10.77 10.77 0 0 1-9.47 11.58c-.69.08-1.38.12-1.85.16zm-1.69-16.24c-2.06.59-3.39 2.35-3.58 4.79-.29 3.71 2.77 6.38 6.33 5.55 2.25-.53 3.75-2.59 3.77-5.16.03-3.7-3.06-6.15-6.52-5.18zM85.41 25.41v2.27h9.57v5.65H79V12h15.98v5.6h-9.56v2.07h9.34v5.74zM105.02 17.62h-7.99V12h16.52v2.17c0 .97.2 2.02-.09 2.89-.29.87-1.08 1.54-1.65 2.3l-6.04 7.93-.27.39h8.2v5.65H97v-.94-3.71c.01-.29.1-.57.27-.8 2.47-3.29 4.95-6.57 7.44-9.84.1-.11.17-.22.31-.42zM51.07 33.33h-6.42v-15.7H39V12h17.69v5.61h-5.62zM3.37 15.95c0-1.55-.05-3.06 0-4.57.22-5.53 4.49-10 9.9-10.36A10.65 10.65 0 0 1 24.4 9.99a13 13 0 0 1 .18 1.97c.03 1.31 0 2.63 0 3.98.44.11.87.18 1.29.32.51.16 1.01.35 1.5.56.38.16.61.55.57.97v20.88a.5.5 0 0 1-.4.59c-4.47 1.58-8.94 3.17-13.42 4.74-.19.06-.4.06-.6 0L.32 39.24a.4.4 0 0 1-.31-.46v-21.1a.86.86 0 0 1 .6-.87c.79-.29 1.6-.52 2.4-.77.1-.04.2-.06.36-.09zm.64 12.51V35c-.03.22.1.42.31.47l9.21 3.35a.9.9 0 0 0 .56 0l8.86-3.33a.47.47 0 0 0 .37-.53V22.63c0-1.2 0-1.2-1.17-1.42-2.1-.34-4.23-.52-6.37-.52-2.8-.09-5.61-.02-8.4.22-.96.09-1.91.29-2.86.47a.5.5 0 0 0-.39.22.55.55 0 0 0-.11.44l-.01 6.42zm3.65-13.02c4.15-.28 8.32-.28 12.47 0 0-1.45.11-2.88-.03-4.28a6.18 6.18 0 0 0-5.7-5.55 6.1 6.1 0 0 0-6.47 4.93c-.29 1.56-.19 3.21-.27 4.9z"/></svg>