<svg xmlns="http://www.w3.org/2000/svg" width="60" height="60" viewBox="0 0 60 60"><defs><linearGradient id="a" x1="556" x2="556" y1="1060" y2="1090" gradientUnits="userSpaceOnUse"><stop offset="0" stop-color="#333dff" stop-opacity=".6"/><stop offset="1" stop-color="#333dff"/></linearGradient></defs><path fill="#f2f3fc" d="M0 30a30 30 0 1 1 60 0 30 30 0 0 1-60 0z"/><path fill="url(#a)" d="M551.28 1081.58c1.8.4 7.31 2.19 8.12-1.09.76-3.22-4.38-4.1-6.43-4.6v-1.07l-2.69-3.87-1.38.35.87-3.54c0-.6-.2-1.3-1.2-1.49l-1.9-.5.7-2.79 3.61.9c.5.1 1.1.3 1.7.4l1.1-4.28 2.61.7-1.1 4.17c.7.2 1.4.3 2.1.5l1-4.18 2.61.7-1.1 4.28c3.5 1.09 6.01 2.78 5.51 5.96-.3 2.29-1.61 3.48-3.41 3.88 2.41 1.19 3.61 3.08 2.41 6.37-1.41 4.07-4.81 4.37-9.32 3.58l-1.11 4.37-2.6-.79 1.1-4.28c-.7-.2-1.4-.4-2.1-.5l-1.11 4.28-2.6-.7 1.1-4.37c-.6-.2-1.2-.3-1.9-.5l-.87-.23 7.37-6.16zm3.4-13.62l-1.3 5.27c1.51.39 6.12 1.89 6.82-1.1.7-3.08-4.01-3.78-5.52-4.17z" transform="translate(-522 -1044)"/><path fill="#fff" d="M12 30.91l9.22 6.08 9.62-6.11L21.22 15z"/><path fill="#fff" d="M12 33l9.45 13.85L30.92 33l-9.47 6.2z"/></svg>