<svg xmlns="http://www.w3.org/2000/svg" width="189.45" height="40" viewBox="0 0 189.45 40"><path fill="#fff" d="M19.87 39.87C8.93 39.73.5 31.43 0 20.42.05 8.79 8.66.26 19.89 0c11.5.35 19.59 9.02 19.84 19.95-.25 11.56-9.14 19.82-19.86 19.92zm-1.75-29.42c-.25-.04-.47-.06-.64-.1-1.07-.27-2.13-.53-3.19-.81-.52-.14-.57-.12-.71.42l-.34 1.38c-.12.43-.06.52.37.62.43.11.82.19 1.22.32.77.26 1.01.71.81 1.49l-.97 3.85c-.46 1.81-.89 3.63-1.34 5.45-.16.63-.47.82-1.11.68-.35-.08-.7-.18-1.04-.27-.35-.09-.47-.04-.63.3l-.73 1.69c-.19.47-.15.55.31.66l3.19.8c.67.17.68.18.51.86l-.65 2.52c-.08.3-.03.43.24.5.53.15 1.06.28 1.6.4.27.06.37 0 .47-.29.09-.28.13-.52.19-.77l.55-2.1c.06-.23.18-.32.41-.25l.82.21c.43.12.46.15.35.59-.21.89-.44 1.77-.66 2.65-.09.35-.07.44.24.54.53.16 1.06.3 1.59.43.27.06.36 0 .44-.29l.18-.73.53-2.16c.09-.33.13-.35.47-.32.13 0 .25.03.37.05.98.19 1.97.23 2.95.14a4.31 4.31 0 0 0 2.92-1.34 5.7 5.7 0 0 0 1.25-2.35c.22-.71.28-1.46.15-2.19a3.63 3.63 0 0 0-1.76-2.4l-.36-.27.33-.14c.48-.16.91-.44 1.25-.81a4.12 4.12 0 0 0 1.02-2.76 3.4 3.4 0 0 0-1.04-2.69 6.28 6.28 0 0 0-.79-.66 9.49 9.49 0 0 0-2.12-1.1c-.43-.16-.43-.18-.32-.62.23-.89.47-1.77.66-2.66.09-.37.05-.47-.25-.55-.52-.14-1.06-.28-1.59-.4-.28-.06-.36 0-.44.29-.08.28-.12.47-.18.73L22.14 11c-.09.36-.14.37-.49.28l-.74-.16c-.46-.11-.46-.17-.36-.62l.61-2.47c.13-.52.1-.56-.39-.7L19.45 7c-.37-.08-.47-.04-.54.32l-.37 1.51-.42 1.62zM90.12 19.15a.49.49 0 0 1 .03-.07c.24-.34.23-.37-.1-.58a4.32 4.32 0 0 1-.36-.22 1.55 1.55 0 0 1-.64-1.69c.14-.34.36-.65.65-.89.21-.19.38-.35.32-.66a.37.37 0 0 1 .05-.23.73.73 0 0 0 0-.8.32.32 0 0 1-.03-.27.3.3 0 0 1 .18-.2c.35-.18.4-.47.39-.82-.03-.94 0-1.88 0-2.82 0-.86-.03-1.72-.04-2.59V5.33a.28.28 0 0 1 .03-.18c.05-.07.13-.15.2-.15.09.01.16.07.2.15.03.12.04.25.04.37 0 .74-.04 1.48-.03 2.22 0 1.28.03 2.57.03 3.86.01.41 0 .83-.04 1.24-.06.26.06.51.29.63.38.24.38.26.22.67 0 .04-.06.1-.05.13.1.47 0 1 .42 1.38l.27.26c.7.89.6 1.69-.27 2.42-.1.07-.21.14-.32.19-.35.19-.35.23-.12.56l.07.13c-.11.19-.19.39-.25.6-.03.2-.03.4 0 .61.05 1.36.12 2.73.15 4.1.03 1.17 0 2.34.04 3.54.02.94.09 1.92.14 2.87v.38c.02.08-.01.17-.07.24a.25.25 0 0 1-.23.09h-.99a.24.24 0 0 1-.21-.08.27.27 0 0 1-.08-.22v-.19c.06-1.68.12-3.36.16-5.04.03-.87 0-1.73.04-2.6 0-.61.03-1.22.06-1.84.02-.61.09-1.1.08-1.64a3.8 3.8 0 0 0-.23-.88z"/><path fill="none" stroke="#fff" stroke-miterlimit="50" stroke-width=".9" d="M90.12 19.15a.49.49 0 0 1 .03-.07c.24-.34.23-.37-.1-.58a4.32 4.32 0 0 1-.36-.22 1.55 1.55 0 0 1-.64-1.69c.14-.34.36-.65.65-.89.21-.19.38-.35.32-.66a.37.37 0 0 1 .05-.23.73.73 0 0 0 0-.8.32.32 0 0 1-.03-.27.3.3 0 0 1 .18-.2c.35-.18.4-.47.39-.82-.03-.94 0-1.88 0-2.82 0-.86-.03-1.72-.04-2.59V5.33a.28.28 0 0 1 .03-.18c.05-.07.13-.15.2-.15.09.01.16.07.2.15.03.12.04.25.04.37 0 .74-.04 1.48-.03 2.22 0 1.28.03 2.57.03 3.86.01.41 0 .83-.04 1.24-.06.26.06.51.29.63.38.24.38.26.22.67 0 .04-.06.1-.05.13.1.47 0 1 .42 1.38l.27.26c.7.89.6 1.69-.27 2.42-.1.07-.21.14-.32.19-.35.19-.35.23-.12.56l.07.13c-.11.19-.19.39-.25.6-.03.2-.03.4 0 .61.05 1.36.12 2.73.15 4.1.03 1.17 0 2.34.04 3.54.02.94.09 1.92.14 2.87v.38c.02.08-.01.17-.07.24a.25.25 0 0 1-.23.09h-.99a.24.24 0 0 1-.21-.08.27.27 0 0 1-.08-.22v-.19c.06-1.68.12-3.36.16-5.04.03-.87 0-1.73.04-2.6 0-.61.03-1.22.06-1.84.02-.61.09-1.1.08-1.64a3.8 3.8 0 0 0-.23-.88z"/><path fill="#fff" d="M127.56 26.98v4.03h-.55c0-.15-.02-.3 0-.47 0-2.09.05-4.19.05-6.28V11.09c-.02-.4.12-.8.39-1.09.04.1.07.2.09.31 0 .27.03.53.03.8v6.38c0 .63-.05 1.25-.06 1.87.01.18.03.35.06.53h.09l.09-.21a6.3 6.3 0 0 1 5.67-4.11c.74-.04 1.47.03 2.19.21a5.52 5.52 0 0 1 3 2.15 8.63 8.63 0 0 1 1.47 3.98c.24 1.7.08 3.44-.47 5.08a6.79 6.79 0 0 1-1.99 3.03 5.88 5.88 0 0 1-4.79 1.33c-2.5-.33-4.15-1.76-5.06-4.1l-.12-.28zm10.92 1.25a8.67 8.67 0 0 0 1.13-3.91 9.81 9.81 0 0 0-.93-5.09c-.94-1.87-2.38-3.01-4.5-3.18a5.69 5.69 0 0 0-5.98 3.63c-.51 1.35-.74 2.8-.65 4.25.03 1.22.32 2.41.86 3.5a5.86 5.86 0 0 0 5.32 3.47c1.96.08 3.8-.95 4.75-2.67z"/><path fill="none" stroke="#fff" stroke-miterlimit="50" stroke-width=".9" d="M127.56 26.98v4.03h-.55c0-.15-.02-.3 0-.47 0-2.09.05-4.19.05-6.28V11.09c-.02-.4.12-.8.39-1.09.04.1.07.2.09.31 0 .27.03.53.03.8v6.38c0 .63-.05 1.25-.06 1.87.01.18.03.35.06.53h.09l.09-.21a6.3 6.3 0 0 1 5.67-4.11c.74-.04 1.47.03 2.19.21a5.52 5.52 0 0 1 3 2.15 8.63 8.63 0 0 1 1.47 3.98c.24 1.7.08 3.44-.47 5.08a6.79 6.79 0 0 1-1.99 3.03 5.88 5.88 0 0 1-4.79 1.33c-2.5-.33-4.15-1.76-5.06-4.1l-.12-.28zm10.92 1.25a8.67 8.67 0 0 0 1.13-3.91 9.81 9.81 0 0 0-.93-5.09c-.94-1.87-2.38-3.01-4.5-3.18a5.69 5.69 0 0 0-5.98 3.63c-.51 1.35-.74 2.8-.65 4.25.03 1.22.32 2.41.86 3.5a5.86 5.86 0 0 0 5.32 3.47c1.96.08 3.8-.95 4.75-2.67z"/><path fill="#fff" d="M156.05 26.3c-.04.25-.07.52-.12.77a5.98 5.98 0 0 1-4.95 4.63 8.5 8.5 0 0 1-3.18-.06 5.45 5.45 0 0 1-3.85-3.03 9.87 9.87 0 0 1-.93-4.81c0-.82.1-1.64.29-2.43a7.43 7.43 0 0 1 3.06-4.35c2.24-1.53 5.67-1.28 7.51.35a6.8 6.8 0 0 1 1.93 3.08 9.9 9.9 0 0 1 .43 3.51H143.6l-.05.24c0 1.29.25 2.57.74 3.76.78 2 2.69 3.32 4.83 3.32.62.04 1.25.01 1.87-.09a5.17 5.17 0 0 0 4.24-3.63c.14-.37.29-.73.47-1.08.06-.09.14-.18.23-.25zm-.35-2.91v-.76c-.05-.4-.11-.81-.2-1.21a6.58 6.58 0 0 0-2-3.61 5.85 5.85 0 0 0-8.12.56 7.56 7.56 0 0 0-1.73 3.95c-.06.34-.08.67-.13 1.05.58.04 1.1.1 1.61.1h9.72c.26.01.52-.04.85-.08z"/><path fill="none" stroke="#fff" stroke-miterlimit="50" stroke-width=".9" d="M156.05 26.3c-.04.25-.07.52-.12.77a5.98 5.98 0 0 1-4.95 4.63 8.5 8.5 0 0 1-3.18-.06 5.45 5.45 0 0 1-3.85-3.03 9.87 9.87 0 0 1-.93-4.81c0-.82.1-1.64.29-2.43a7.43 7.43 0 0 1 3.06-4.35c2.24-1.53 5.67-1.28 7.51.35a6.8 6.8 0 0 1 1.93 3.08 9.9 9.9 0 0 1 .43 3.51H143.6l-.05.24c0 1.29.25 2.57.74 3.76.78 2 2.69 3.32 4.83 3.32.62.04 1.25.01 1.87-.09a5.17 5.17 0 0 0 4.24-3.63c.14-.37.29-.73.47-1.08.06-.09.14-.18.23-.25zm-.35-2.91v-.76c-.05-.4-.11-.81-.2-1.21a6.58 6.58 0 0 0-2-3.61 5.85 5.85 0 0 0-8.12.56 7.56 7.56 0 0 0-1.73 3.95c-.06.34-.08.67-.13 1.05.58.04 1.1.1 1.61.1h9.72c.26.01.52-.04.85-.08z"/><path fill="#fff" d="M112.43 26.29c.08.5.13.93.22 1.37a4.08 4.08 0 0 0 2.75 3.21c1.6.59 3.35.63 4.98.11.49-.16.95-.4 1.37-.7a3.21 3.21 0 0 0 .99-3.93 2.5 2.5 0 0 0-1.18-1.22c-.62-.31-1.26-.56-1.92-.76-1.21-.36-2.45-.63-3.67-.97-.55-.15-1.08-.34-1.6-.55a2.77 2.77 0 0 1-1.79-2.6c-.11-1.63.71-2.71 2.01-3.51.69-.4 1.45-.63 2.23-.69a8.94 8.94 0 0 1 3.49.32 3.68 3.68 0 0 1 2.66 2.9c.1.44.13.9.19 1.41h-.58c0-.1-.03-.19-.03-.28-.09-2.01-1.11-3.28-3.07-3.75a7.65 7.65 0 0 0-3.86.06c-1.18.34-2.09 1.02-2.43 2.27-.33 1.25-.02 2.81 1.57 3.42.77.3 1.57.53 2.37.76 1.05.3 2.12.55 3.17.86.5.14.98.33 1.44.56 1.44.73 1.95 1.96 1.78 3.53a3.63 3.63 0 0 1-1.92 2.86c-.81.46-1.7.73-2.63.8a9.24 9.24 0 0 1-3.73-.34c-1.91-.6-2.94-1.94-3.22-3.9a1.4 1.4 0 0 1 .41-1.24z"/><path fill="none" stroke="#fff" stroke-miterlimit="50" stroke-width=".9" d="M112.43 26.29c.08.5.13.93.22 1.37a4.08 4.08 0 0 0 2.75 3.21c1.6.59 3.35.63 4.98.11.49-.16.95-.4 1.37-.7a3.21 3.21 0 0 0 .99-3.93 2.5 2.5 0 0 0-1.18-1.22c-.62-.31-1.26-.56-1.92-.76-1.21-.36-2.45-.63-3.67-.97-.55-.15-1.08-.34-1.6-.55a2.77 2.77 0 0 1-1.79-2.6c-.11-1.63.71-2.71 2.01-3.51.69-.4 1.45-.63 2.23-.69a8.94 8.94 0 0 1 3.49.32 3.68 3.68 0 0 1 2.66 2.9c.1.44.13.9.19 1.41h-.58c0-.1-.03-.19-.03-.28-.09-2.01-1.11-3.28-3.07-3.75a7.65 7.65 0 0 0-3.86.06c-1.18.34-2.09 1.02-2.43 2.27-.33 1.25-.02 2.81 1.57 3.42.77.3 1.57.53 2.37.76 1.05.3 2.12.55 3.17.86.5.14.98.33 1.44.56 1.44.73 1.95 1.96 1.78 3.53a3.63 3.63 0 0 1-1.92 2.86c-.81.46-1.7.73-2.63.8a9.24 9.24 0 0 1-3.73-.34c-1.91-.6-2.94-1.94-3.22-3.9a1.4 1.4 0 0 1 .41-1.24z"/><path fill="#fff" d="M84.66 23.71a9.72 9.72 0 0 1-1.04 4.59c-2.21 4.22-7.3 4.22-9.8 2.17a6.4 6.4 0 0 1-1.81-2.26 9.36 9.36 0 0 1 .02-8.5 6.2 6.2 0 0 1 4.2-3.49c3.27-.77 6.27.47 7.69 3.86.49 1.15.74 2.38.74 3.63zm-.52.28a9 9 0 0 0-1.23-4.69 5.81 5.81 0 0 0-6.65-2.66 5.67 5.67 0 0 0-3.85 3.32 9.09 9.09 0 0 0-.07 7.6 5.9 5.9 0 0 0 5.84 3.75 5.5 5.5 0 0 0 4.72-2.73A8.69 8.69 0 0 0 84.14 24z"/><path fill="none" stroke="#fff" stroke-miterlimit="50" stroke-width=".9" d="M84.66 23.71a9.72 9.72 0 0 1-1.04 4.59c-2.21 4.22-7.3 4.22-9.8 2.17a6.4 6.4 0 0 1-1.81-2.26 9.36 9.36 0 0 1 .02-8.5 6.2 6.2 0 0 1 4.2-3.49c3.27-.77 6.27.47 7.69 3.86.49 1.15.74 2.38.74 3.63zm-.52.28a9 9 0 0 0-1.23-4.69 5.81 5.81 0 0 0-6.65-2.66 5.67 5.67 0 0 0-3.85 3.32 9.09 9.09 0 0 0-.07 7.6 5.9 5.9 0 0 0 5.84 3.75 5.5 5.5 0 0 0 4.72-2.73A8.69 8.69 0 0 0 84.14 24z"/><path fill="#fff" d="M177.56 16.4v3.52h.07c.04-.06.08-.12.1-.18a5.07 5.07 0 0 1 2.4-2.86 6.06 6.06 0 0 1 5.34-.47c1.64.57 2.54 1.84 2.88 3.51.09.46.14.94.14 1.41v10.15h-.56v-.47c0-3.07.01-6.14.04-9.21a7.56 7.56 0 0 0-.22-2.01 4.3 4.3 0 0 0-3.77-3.22 6.18 6.18 0 0 0-2.42.15 5 5 0 0 0-3.16 2.63 7.86 7.86 0 0 0-.83 3.69V31.5h-.54c0-.14-.03-.26-.03-.38v-9.58-4.06c.02-.4.16-.78.41-1.09z"/><path fill="none" stroke="#fff" stroke-miterlimit="50" stroke-width=".9" d="M177.56 16.4v3.52h.07c.04-.06.08-.12.1-.18a5.07 5.07 0 0 1 2.4-2.86 6.06 6.06 0 0 1 5.34-.47c1.64.57 2.54 1.84 2.88 3.51.09.46.14.94.14 1.41v10.15h-.56v-.47c0-3.07.01-6.14.04-9.21a7.56 7.56 0 0 0-.22-2.01 4.3 4.3 0 0 0-3.77-3.22 6.18 6.18 0 0 0-2.42.15 5 5 0 0 0-3.16 2.63 7.86 7.86 0 0 0-.83 3.69V31.5h-.54c0-.14-.03-.26-.03-.38v-9.58-4.06c.02-.4.16-.78.41-1.09z"/><path fill="#fff" d="M97.56 31.43h-.52l-.04-.36.02-9.73V20.3a.79.79 0 0 1 .23-.68.21.21 0 0 0 .1-.21.22.22 0 0 0-.14-.18c-.18-.09-.19-.23-.19-.39-.02-.52-.02-1.04 0-1.56.08-.32.19-.64.33-.93h.11l.06.27v3.2h.1a.64.64 0 0 0 .08-.14 5.5 5.5 0 0 1 3.35-3.28 6.2 6.2 0 0 1 4.37 0c1.68.58 2.58 1.88 2.92 3.58.09.45.13.9.12 1.36v9.68c0 .13 0 .27-.02.43h-.54v-.47c0-3.21.03-6.42 0-9.63 0-.52-.07-1.04-.2-1.54a4.24 4.24 0 0 0-3.7-3.28 6.2 6.2 0 0 0-2.06.04 5.02 5.02 0 0 0-3.69 2.93 7.74 7.74 0 0 0-.69 3.29V31.43z"/><path fill="none" stroke="#fff" stroke-miterlimit="50" stroke-width=".9" d="M97.56 31.43h-.52l-.04-.36.02-9.73V20.3a.79.79 0 0 1 .23-.68.21.21 0 0 0 .1-.21.22.22 0 0 0-.14-.18c-.18-.09-.19-.23-.19-.39-.02-.52-.02-1.04 0-1.56.08-.32.19-.64.33-.93h.11l.06.27v3.2h.1a.64.64 0 0 0 .08-.14 5.5 5.5 0 0 1 3.35-3.28 6.2 6.2 0 0 1 4.37 0c1.68.58 2.58 1.88 2.92 3.58.09.45.13.9.12 1.36v9.68c0 .13 0 .27-.02.43h-.54v-.47c0-3.21.03-6.42 0-9.63 0-.52-.07-1.04-.2-1.54a4.24 4.24 0 0 0-3.7-3.28 6.2 6.2 0 0 0-2.06.04 5.02 5.02 0 0 0-3.69 2.93 7.74 7.74 0 0 0-.69 3.29V31.43z"/><path fill="#fff" d="M68.74 20.83h-.5l-.12-.44a4.83 4.83 0 0 0-4.34-3.89c-1-.11-2.02 0-2.97.31a5.65 5.65 0 0 0-3.35 3.06 9.88 9.88 0 0 0-.87 5.33c.1 1.1.43 2.17.97 3.13a6.17 6.17 0 0 0 3.76 2.85c1.59.4 3.26.15 4.66-.69a4.95 4.95 0 0 0 2.15-2.88c.12-.36.26-.71.42-1.05.04-.08.14-.13.27-.25v.54a5.7 5.7 0 0 1-4.9 4.87 6.41 6.41 0 0 1-7.46-4.51 9.93 9.93 0 0 1-.39-4.2 8.81 8.81 0 0 1 1.43-4.09 6.33 6.33 0 0 1 4.99-2.88 6.57 6.57 0 0 1 3.1.41 5.12 5.12 0 0 1 3.16 4.15.9.9 0 0 1-.01.23z"/><path fill="none" stroke="#fff" stroke-miterlimit="50" stroke-width=".9" d="M68.74 20.83h-.5l-.12-.44a4.83 4.83 0 0 0-4.34-3.89c-1-.11-2.02 0-2.97.31a5.65 5.65 0 0 0-3.35 3.06 9.88 9.88 0 0 0-.87 5.33c.1 1.1.43 2.17.97 3.13a6.17 6.17 0 0 0 3.76 2.85c1.59.4 3.26.15 4.66-.69a4.95 4.95 0 0 0 2.15-2.88c.12-.36.26-.71.42-1.05.04-.08.14-.13.27-.25v.54a5.7 5.7 0 0 1-4.9 4.87 6.41 6.41 0 0 1-7.46-4.51 9.93 9.93 0 0 1-.39-4.2 8.81 8.81 0 0 1 1.43-4.09 6.33 6.33 0 0 1 4.99-2.88 6.57 6.57 0 0 1 3.1.41 5.12 5.12 0 0 1 3.16 4.15.9.9 0 0 1-.01.23z"/><path fill="#fff" d="M50.32 11.06v4.56c1.12.2 2.27.21 3.4.03l.04.56H50.4c-.03.13-.04.26-.05.39v11.51c.01.4.07.79.18 1.16.15.57.63.99 1.21 1.05a8.29 8.29 0 0 0 1.89-.05v.47c-.84.21-1.71.19-2.54-.06a1.97 1.97 0 0 1-1.19-1.54c-.07-.42-.1-.84-.09-1.27V17.63c0-.46-.03-.9-.05-1.4h-2.73c-.08-.25 0-.36.2-.37l1.63-.05c.25 0 .51.04.75 0 .36-.04.53-.26.41-.59-.4-1.07-.15-2.18-.19-3.28.06-.33.16-.65.32-.94z"/><path fill="none" stroke="#fff" stroke-miterlimit="50" stroke-width=".9" d="M50.32 11.06v4.56c1.12.2 2.27.21 3.4.03l.04.56H50.4c-.03.13-.04.26-.05.39v11.51c.01.4.07.79.18 1.16.15.57.63.99 1.21 1.05a8.29 8.29 0 0 0 1.89-.05v.47c-.84.21-1.71.19-2.54-.06a1.97 1.97 0 0 1-1.19-1.54c-.07-.42-.1-.84-.09-1.27V17.63c0-.46-.03-.9-.05-1.4h-2.73c-.08-.25 0-.36.2-.37l1.63-.05c.25 0 .51.04.75 0 .36-.04.53-.26.41-.59-.4-1.07-.15-2.18-.19-3.28.06-.33.16-.65.32-.94z"/><path fill="#fff" d="M159.57 31.57h-.54c0-.15-.03-.27-.03-.39l.02-9.11.03-4.48a2 2 0 0 1 .42-1.22c.04.13.06.27.08.41v2.08c-.01.36 0 .72.04 1.08 1.11-2.67 3.25-3.72 5.98-3.94l.06.51c-.39.03-.74.05-1.1.09a5.03 5.03 0 0 0-4.25 3.06 7.75 7.75 0 0 0-.7 3.39v7.88l-.01.64z"/><path fill="none" stroke="#fff" stroke-miterlimit="50" stroke-width=".9" d="M159.57 31.57h-.54c0-.15-.03-.27-.03-.39l.02-9.11.03-4.48a2 2 0 0 1 .42-1.22c.04.13.06.27.08.41v2.08c-.01.36 0 .72.04 1.08 1.11-2.67 3.25-3.72 5.98-3.94l.06.51c-.39.03-.74.05-1.1.09a5.03 5.03 0 0 0-4.25 3.06 7.75 7.75 0 0 0-.7 3.39v7.88l-.01.64z"/><path fill="#fff" d="M168.44 10c.05.08.08.17.1.26v20.77h-.51c0-.13-.03-.25-.03-.37 0-4.88.01-9.75.04-14.63v-4.91c.01-.41.15-.8.4-1.12z"/><path fill="none" stroke="#fff" stroke-miterlimit="50" stroke-width=".9" d="M168.44 10c.05.08.08.17.1.26v20.77h-.51c0-.13-.03-.25-.03-.37 0-4.88.01-9.75.04-14.63v-4.91c.01-.41.15-.8.4-1.12z"/><path fill="#fff" d="M44.53 31.15h-.5c0-.13-.03-.24-.03-.34 0-4.5.03-9 0-13.5.04-.47.18-.92.43-1.31.14.47.2 14.13.1 15.15z"/><path fill="none" stroke="#fff" stroke-miterlimit="50" stroke-width=".9" d="M44.53 31.15h-.5c0-.13-.03-.24-.03-.34 0-4.5.03-9 0-13.5.04-.47.18-.92.43-1.31.14.47.2 14.13.1 15.15z"/><path fill="#fff" d="M172.52 16.03V31.1h-.51c0-.15-.02-.29 0-.43 0-3.3.02-6.6.05-9.91v-3.63c.01-.41.14-.79.35-1.13z"/><path fill="none" stroke="#fff" stroke-miterlimit="50" stroke-width=".9" d="M172.52 16.03V31.1h-.51c0-.15-.02-.29 0-.43 0-3.3.02-6.6.05-9.91v-3.63c.01-.41.14-.79.35-1.13z"/><path fill="#fff" d="M44.47 10v2.74H44V10z"/><path fill="none" stroke="#fff" stroke-miterlimit="50" stroke-width=".9" d="M44.47 10v2.74H44V10z"/><path fill="#fff" d="M172.49 12.82H172v-.55c0-.42.05-.85.05-1.27.01-.37.14-.72.37-1 .15.93.17 1.88.07 2.82z"/><path fill="none" stroke="#fff" stroke-miterlimit="50" stroke-width=".9" d="M172.49 12.82H172v-.55c0-.42.05-.85.05-1.27.01-.37.14-.72.37-1 .15.93.17 1.88.07 2.82z"/><path fill="#fff" d="M20.82 26.42c-.97-.09-1.94-.26-2.88-.5-.21-.06-.43-.1-.63-.17-.31-.09-.35-.16-.28-.47l.64-2.61.32-1.28c.11-.43.16-.43.52-.35 1.04.2 2.07.5 3.05.9.52.23 1 .54 1.4.94a1.96 1.96 0 1 1-.9 3.35c-.41.08-.83.12-1.24.19zM22.03 18.82a14.7 14.7 0 0 1-2.8-.52c-.22-.06-.26-.21-.21-.4l.18-.73.69-2.79c.11-.42.12-.42.55-.33.85.14 1.67.4 2.45.76.35.18.68.39.98.63.58.48.79 1.26.54 1.97a1.73 1.73 0 0 1-1.4 1.28c-.33.07-.66.1-.98.13z"/></svg>