<svg xmlns="http://www.w3.org/2000/svg" width="29" height="33" viewBox="0 0 29 33"><defs><linearGradient id="a" x1="1145" x2="1174" y1="4081" y2="4069" gradientUnits="userSpaceOnUse"><stop offset="0" stop-color="#ff3d6e"/><stop offset="1" stop-color="#ff6259" stop-opacity=".3"/></linearGradient><linearGradient id="b" x1="1145" x2="1174" y1="4073" y2="4061" gradientUnits="userSpaceOnUse"><stop offset="0" stop-color="#ff3d6e"/><stop offset="1" stop-color="#ff6259" stop-opacity=".3"/></linearGradient><linearGradient id="c" x1="1145" x2="1174" y1="4059" y2="4049" gradientUnits="userSpaceOnUse"><stop offset="0" stop-color="#ff3d6e"/><stop offset="1" stop-color="#ff6259" stop-opacity=".3"/></linearGradient><linearGradient id="d" x1="1145" x2="1174" y1="4066" y2="4054" gradientUnits="userSpaceOnUse"><stop offset="0" stop-color="#ff3d6e"/><stop offset="1" stop-color="#ff6259" stop-opacity=".3"/></linearGradient></defs><path fill="url(#a)" d="M1159.49 4074.13c-8 0-14.49-2.3-14.49-5.13v7.55h.03c.44 2.69 6.74 4.83 14.46 4.83 7.72 0 14.02-2.14 14.46-4.83h.03V4069c0 2.83-6.49 5.13-14.49 5.13z" transform="translate(-1145 -4049)"/><path fill="url(#b)" d="M1159.49 4066.13c-8 0-14.49-2.3-14.49-5.13v7.55h.03c.44 2.69 6.74 4.83 14.46 4.83 7.72 0 14.02-2.14 14.46-4.83h.03V4061c0 2.83-6.49 5.13-14.49 5.13z" transform="translate(-1145 -4049)"/><path fill="url(#c)" d="M1145 4054c0-2.76 6.5-5 14.5-5s14.5 2.24 14.5 5-6.5 5-14.5 5-14.5-2.24-14.5-5z" transform="translate(-1145 -4049)"/><path fill="url(#d)" d="M1159.49 4059.13c-8 0-14.49-2.3-14.49-5.13v7.55h.03c.44 2.69 6.74 4.83 14.46 4.83 7.72 0 14.02-2.14 14.46-4.83h.03V4054c0 2.83-6.49 5.13-14.49 5.13z" transform="translate(-1145 -4049)"/></svg>